<svg xmlns="http://www.w3.org/2000/svg" width="439.195" height="223.531"><defs><style>.a{fill:#e9e2c3}.c,.m{fill:#314581}.e{fill:#0a0d2c}.f,.l{fill:#fbaf2c}.h{fill:#fd5421}.k,.l,.m{fill-rule:evenodd}.k{fill:#2d3078}</style></defs><path class="a" d="M219.6 0C98.32 0 0 98.317 0 219.6h439.2C439.2 98.317 340.879 0 219.6 0z"/><path d="M420.973 146.314h-19.208a.154.154 0 010-.307h19.208a.154.154 0 010 .307zm0 2.846h-19.208a.154.154 0 010-.307h19.208a.154.154 0 010 .307zm0 2.843h-19.208a.154.154 0 010-.307h19.208a.154.154 0 010 .307z" stroke="#000" stroke-miterlimit="10" stroke-width=".25"/><path class="c" d="M113.311 70.463h212.263a10.211 10.211 0 0110.211 10.211v130.568H103.1V80.674a10.211 10.211 0 0110.211-10.211z"/><path d="M324.126 65.636H115.083a16.476 16.476 0 00-16.55 16.358v126.08h.551V81.994a15.924 15.924 0 0116-15.82h209.042a15.921 15.921 0 0115.986 15.82v126.08h.551V81.994a16.465 16.465 0 00-16.537-16.358z" fill="#070307"/><path class="e" d="M71.275 208.072h296.3v9.6a2.664 2.664 0 01-2.664 2.664H73.939a2.664 2.664 0 01-2.664-2.664v-9.6z"/><rect class="a" width="82.465" height="105.92" rx="8.851" transform="translate(240.562 86.359)"/><path class="f" d="M379.828 192.727s-9.09-16.589-24.737-21.486l-.09 6.139-3.33-7.417a55.459 55.459 0 00-18.171-.267s1.979 15.749 14.258 32.631l10.1-2.307-7.454 5.784s8.324 18.544 33.634 17.688z"/><path class="c" d="M372.435 223.53s-6.6-15.756 9.765-25.842c0 0 2.777 3.317 1.967 4.809 0 0 12.959-19.624 29.68-20.59 0 0 4.442 10.425-.914 19.034 0 0 3.658 1.163 5.094-3.409a30.26 30.26 0 01-5.094 22.181s3.772.68 4.017 3.816z"/><g opacity=".72"><path class="c" d="M409.95 196.502a27.533 27.533 0 014.795.426c2.291-7.527-.9-15.02-.9-15.02-16.721.966-29.68 20.59-29.68 20.59.81-1.492-1.967-4.809-1.967-4.809-16.362 10.085-9.765 25.842-9.765 25.842h10.065a27.457 27.457 0 0127.452-27.029z"/><path class="h" d="M418.062 197.721c-.021-.119-.035-.187-.035-.187-.018.058-.04.1-.059.161.031.008.063.015.094.026z"/></g><path d="M118.698 118.459h109.766v4.012H118.698zm0 36.911h109.766v4.012H118.698zm0 36.91h109.766v4.012H118.698z" fill="#111e3f"/><path class="e" d="M122.874 89.347h8.031v26.755h-8.031zm10.262 0h8.031v26.755h-8.031zm9.394 0h4.015v26.755h-4.015z"/><path class="f" d="M210.642 116.102h-8.031V89.347h8.031zm-10.262 0h-8.031V89.347h8.031zm-9.394 0h-4.015V89.347h4.015zm26.472 0h-4.015V89.347h4.015zm6.246 0h-4.015V89.347h4.015z"/><path class="h" d="M164.519 113.701l-3.573 1.854-12.07-23.805 3.573-1.854zm6.692 0l-3.573 1.854-12.072-23.805 3.573-1.854zm6.321 0l-3.573 1.854-12.072-23.805 3.573-1.854zm6.394 0l-3.573 1.854-12.072-23.805 3.573-1.854z"/><path class="f" d="M146.47 152.693h-8.031v-26.755h8.031zm-10.262 0h-8.031v-26.755h8.031zm-9.394 0h-4.015v-26.755h4.015zm26.472 0h-4.015v-26.755h4.015zm6.246 0h-4.015v-26.755h4.015z"/><path class="e" d="M190.788 152.693h-8.031v-26.755h8.031zm-9.394 0h-4.015v-26.755h4.015zm26.472 0h-4.015v-26.755h4.015zm6.246 0h-4.015v-26.755h4.015zm5.949 0h-4.015v-26.755h4.015z"/><path class="h" d="M180.849 189.854h-8.031v-26.755h8.031zm-10.262 0h-8.031v-26.755h8.031zm-9.394 0h-4.015v-26.755h4.015zm-20.872-1.787l3.573 1.854 12.072-23.805-3.573-1.854zm-6.693 0l3.573 1.854 12.072-23.805-3.573-1.854zm-6.32 0l3.573 1.854 12.069-23.805-3.573-1.854z"/><path class="f" d="M225.464 189.704h-8.031v-26.755h8.031zm-10.261 0h-8.031v-26.755h8.031zm-27.538.151h-4.015V163.1h4.015zm6.246 0h-4.015V163.1h4.015zm-72.998-1.788l3.573 1.854 12.072-23.805-3.573-1.854z"/><path class="c" d="M294.399 138.296l-13.387 13.808-11.822-13.808h7.617v-18.969h9.981v18.969zm-27.892 17.942h30.574v3.074h-30.574z"/><path d="M67.689 67.503c-14.246-14.676-24.844 3.966-23.365 22.679 1.4 17.74 16.521 78.612 13.717 104.221h5.789c14.158-32.838 22.097-108.111 3.859-126.9z" fill-rule="evenodd" fill="#fd5421"/><path class="k" d="M61.701 194.403c13.782-51.759-3.665-123.305-3.723-123.548a.82.82 0 00-.988-.609.828.828 0 00-.6 1c.058.243 17.527 71.87 3.64 123.158z"/><path class="l" d="M32.541 99.844c-15.012-8.046-18.8 9.512-12.946 24.037 4.852 12.038 26.28 47.645 34.382 70.522h7.631c.648-31.612-11.344-85.06-29.067-94.559z"/><path class="k" d="M58.82 194.403c-4.966-42.759-33.076-89.237-33.177-89.406a.68.68 0 00-.94-.233.7.7 0 00-.23.948c.1.17 28.03 46.347 32.99 88.691z"/><path class="l" d="M95.994 120.139c14.55-6.43 16.858 10.2 10.393 23.321-4.373 8.877-20.136 31.608-30.751 50.943H63.521c4.141-29.252 17.433-67.616 32.473-74.264z"/><path class="k" d="M67.847 194.403c10.33-35.439 34.123-68.837 34.218-68.972a.633.633 0 01.892-.149.648.648 0 01.148.9c-.094.134-23.635 33.185-33.941 68.221z"/><path class="m" d="M44.879 182.703h42.632a2.339 2.339 0 012.319 2.346v10.648a2.339 2.339 0 01-2.319 2.346H44.879a2.339 2.339 0 01-2.32-2.346v-10.648a2.339 2.339 0 012.32-2.346z"/><path class="m" d="M52.19 191.364h28.007l7.312 6.678-5.973 23.278H50.85l-5.973-23.278z"/><path d="M87.509 198.042l-1.228 4.784-38.157 7.867-3.246-12.651z" fill-rule="evenodd" fill="#0a0d2c"/></svg>