<svg xmlns="http://www.w3.org/2000/svg" xmlns:xlink="http://www.w3.org/1999/xlink" width="446.842" height="232.416"><defs><linearGradient id="a" y1=".5" x2="1" y2=".5" gradientUnits="objectBoundingBox"><stop offset="0" stop-color="#394f95"/><stop offset="1" stop-color="#132650"/></linearGradient><linearGradient id="b" y1=".5" x2="1" y2=".5" gradientUnits="objectBoundingBox"><stop offset="0" stop-color="#f5ffff"/><stop offset="1" stop-color="#ebeefc"/></linearGradient><linearGradient id="c" y1=".5" x2="1" y2=".5" gradientUnits="objectBoundingBox"><stop offset="0" stop-color="#c75aff"/><stop offset=".998" stop-color="#693ffb"/></linearGradient><linearGradient id="d" x1="0" y1=".5" x2="1" y2=".5" xlink:href="#c"/><clipPath id="e"><path class="a" d="M647.2 408.182s.8 4.55-1.875 7.5c0 0 5.354 2.677 7.5-1.071 0 0-2.677-7.765-1.873-11.781s-3.752 4.28-3.752 5.352z" transform="translate(-645.327 -401.737)"/></clipPath><style>.a{fill:#fff}.d{fill:#070307}.e{fill:#0a0d2c}.o{stroke-miterlimit:10}.g{fill:#fbaf2c}.l{fill:#fd5421}.o{fill:none;stroke-linecap:round;stroke-width:.5px;stroke:#070307}</style></defs><path d="M223.421 0C100.03 0 0 100.029 0 223.421h446.842C446.842 100.029 346.813 0 223.421 0z" fill="#e9e2c3"/><path d="M116.487 81.482h213.906a10.211 10.211 0 0110.211 10.211v131.562H106.276V91.693a10.211 10.211 0 0110.211-10.211z" fill="#314581"/><path class="d" d="M328.864 76.62h-210.52a16.593 16.593 0 00-16.667 16.473v126.97h.556V93.093a16.036 16.036 0 0116.111-15.93h210.52a16.033 16.033 0 0116.1 15.93v126.97h.556V93.093a16.581 16.581 0 00-16.656-16.473z"/><path class="e" d="M74.227 220.063h298.39v9.689a2.664 2.664 0 01-2.664 2.664H76.891a2.664 2.664 0 01-2.664-2.664v-9.689z"/><path class="a" d="M352.672 37.311a.279.279 0 01-.235-.426c.083-.13 8.2-13.3 6.837-32.979a.278.278 0 11.554-.039c1.38 19.874-6.839 33.181-6.921 33.315a.28.28 0 01-.235.129z"/><path d="M399.084 96.508h-19.923a.145.145 0 010-.289h19.923a.145.145 0 110 .289zm0 2.247h-19.923a.145.145 0 010-.289h19.923a.145.145 0 110 .289zm0 2.247h-19.923a.144.144 0 010-.288h19.923a.144.144 0 110 .288z" stroke-miterlimit="10" stroke="#000" stroke-width=".25"/><path class="g" d="M333.453 11.735a21.544 21.544 0 00-34.2 25.454l-1.324 3.757-3.431 9.741 9.745-3.433L308 45.93a21.544 21.544 0 0025.454-34.2z"/><path class="a" d="M310.037 26.503a2.941 2.941 0 11-2.941-2.942 2.942 2.942 0 012.941 2.942zm11.421 0a2.941 2.941 0 11-2.941-2.942 2.942 2.942 0 012.941 2.942zm11.425 0a2.941 2.941 0 11-2.942-2.942 2.942 2.942 0 012.942 2.942z"/><rect width="102.209" height="43.493" rx="3.049" transform="translate(150.733 161.129)" style="mix-blend-mode:multiply;isolation:isolate" opacity=".16" fill="url(#a)"/><rect width="102.577" height="42.553" rx="3.213" transform="translate(146.562 164.488)" fill="url(#b)"/><path class="e" d="M235.652 184.19c-2.428 5.9-10.057 9.709-12.485-.694s-8.324-7.283-9.364-3.468-4.538 9.713-7.283 3.12c-2.69-6.461-4.491-.851-5.2 1.041-1.2 3.18-1.63-.963-3.468-.694-1.716.251-3.122 6.589-8.323 6.242s-3.815-9.017-9.711-12.831-8.671 5.9-14.22 9.363-4.854-5.2-8.323-5.549-5.548 11.445-5.548 11.445v8.067h91.128v-16.4c-.644-2.84-4.96-5.091-7.203.358z"/><path d="M566.765 481.058a.73.73 0 11-.73-.73.73.73 0 01.73.73z" transform="translate(-401.758 -313.931)" fill="url(#c)"/><path d="M602.164 481.623a.73.73 0 11-.73-.73.729.729 0 01.73.73z" transform="translate(-391.421 -313.766)" fill="url(#d)"/><path class="l" d="M260.569 127.033s4.048 52.919 2.031 88c0 0 4.275 2.62 4.871.558s23.988-75.31 14.348-88.5-21.25-.058-21.25-.058z"/><path class="l" d="M264.353 122.915s11.424 54.4 15.666 92.1c0 0 4.686 2.876 4.868.583s5.912-32.957 2.72-49.021c-.977-4.916 6-27.5 1.547-42.232a13.737 13.737 0 00-2.262-4.556c-9.152-13.752-22.539 3.126-22.539 3.126z"/><path class="d" d="M232.916 83.086s-1.041-2.872-1.811-4.446c-.447-.912-1.346-3.822-2.561-3.539s.8 2.522.389 3.587c-.322.832-1.906.545-2.3 2.172s2.709 4.212 2.709 4.212"/><path class="a" d="M295.813 97.794a58.339 58.339 0 00-1.318-6.822c-3.307-13.088-15.7-16.526-16.8-16.757a.129.129 0 00-.065-.014c-5.581-1.394-7.778.35-7.778.35a6.682 6.682 0 00-1.253.568c-1.809.464-7.185 3.221-11.37 7.789-2.556 2.791-12.054 17.831-12.054 17.831s-9.38-10.79-12.352-17.843l-3.488 2.171s5.518 23.415 15.878 24.042c0 0 4.662-.129 13.943-8.753.532 11.35 1.412 26.674 1.412 26.674l28.588-2.689s-.584-5.349-1.2-9.845c2.753 1.189 4.758 1.655 6.438 1.255 1.166-.269 2.806-7.75 1.419-17.957zm-6.757 8.656a12.665 12.665 0 01-1.729-.494c-.052-1.757-.992-8.744-1.07-10.6.018.053 3.514 11.043 2.804 11.095z"/><path class="a" d="M268.809 71.301s.8 4.55-1.875 7.5c0 0 5.354 2.677 7.5-1.071 0 0-2.677-7.765-1.873-11.781s-3.752 4.28-3.752 5.352z"/><g clip-path="url(#e)" transform="translate(266.936 64.856)"><path d="M1.071 9.122s4.552-1.607 4.016-5.623S.535 7.247 1.071 9.122z" style="mix-blend-mode:multiply;isolation:isolate" opacity=".49" fill="#fff"/></g><path class="g" d="M268.789 94.414l1.406 11.815c.041.354-.329.655-.793.646l-17.035-.363a.725.725 0 01-.745-.518L249.75 94.54c-.058-.353.3-.665.767-.665h17.5a.723.723 0 01.772.539z"/><path class="a" d="M266.399 60.592s-2.41 4.819-1.07 9.1 6.158 3.213 7.764-2.142c0 0 2.142-7.764.8-8.031s-6.957.002-7.494 1.073z"/><path class="d" d="M270.684 59.953c-3.441.776-9.552 4.886-13.314-4.125-3.545-8.494 6.114-5.4 9.083-5.99 2.916-.585 4.33-6.759 10.806.629 1.453 1.658 7.025-.954 8.137 6.048 1.628 10.243-12.81 13.574-12.81 13.574v-3.018c0-1.818 2.309-8.072-1.902-7.118z"/><path class="a" d="M274.237 66.53c-.36 1.076-1.235 1.753-1.952 1.513s-1.006-1.309-.645-2.384 1.234-1.753 1.951-1.513 1.006 1.307.646 2.384z"/><path class="d" d="M267.467 215.587l1.531 2.452c.382.933-.4 1.876-1.572 1.9l-10.6.208c-.946.019-1.434-.964-.727-1.463l6.5-3.655zm-5.51-2.245a.32.32 0 00.172.046l3.4-.031a.229.229 0 00.252-.225.277.277 0 00-.289-.22l-3.4.031a.229.229 0 00-.252.225.231.231 0 00.117.174zm22.93 2.256l1.517 2.46c.38.935-.407 1.875-1.581 1.891l-10.6.153c-.947.014-1.43-.972-.721-1.466l6.521-3.62zm-5.501-2.274a.325.325 0 00.171.048l3.4-.014a.228.228 0 00.252-.224.274.274 0 00-.287-.221l-3.4.013a.212.212 0 00-.136.4zm-5.164-111.286s-1.883-2.643-5.375-.775c-1.693.907-2.3-.276-2.858.331-.946 1.032 3.176 4.439 7.2 4.218z"/><path class="o" d="M278.329 109.208s7.416 4.377 9.629 5.07"/><path stroke="#fff" fill="none" stroke-linecap="round" stroke-width=".5" stroke-miterlimit="10" d="M269.444 134.603l6.851 55.161"/><path class="o" d="M200.129 9.734h9.9a7.7 7.7 0 017.7 7.7v9.1"/><g transform="translate(119.794 14.558)"><rect class="l" width="93.115" height="97.85" rx="3.654"/><rect class="l" width="93.115" height="54.449" rx="3.143" transform="translate(0 102.584)"/><path class="g" d="M9.469 7.891h74.966v5.524H9.469zm0 20.517h21.306v21.306H9.469z"/><circle class="g" cx="12.626" cy="12.626" r="12.626" transform="rotate(-67.48 129.984 26.934)"/><path class="g" d="M83.849 30.711H42.264c-.323 0-.585-.167-.585-.372s.262-.372.585-.372h41.585c.324 0 .587.167.587.372s-.263.372-.587.372zm0 5.814H42.264c-.323 0-.585-.165-.585-.371s.262-.372.585-.372h41.585c.324 0 .587.165.587.372s-.263.371-.587.371zm0 5.815H42.264c-.323 0-.585-.167-.585-.372s.262-.372.585-.372h41.585c.324 0 .587.167.587.372s-.263.372-.587.372zm0 5.815H42.264c-.323 0-.585-.165-.585-.371s.262-.372.585-.372h41.585c.324 0 .587.167.587.372s-.263.371-.587.371zm-.433 9.761H11.149c-.563 0-1.018-.165-1.018-.371s.455-.372 1.018-.372h72.266c.563 0 1.019.167 1.019.372s-.455.371-1.018.371zm0 5.814H11.149c-.563 0-1.018-.167-1.018-.372s.455-.372 1.018-.372h72.266c.563 0 1.019.167 1.019.372s-.455.372-1.018.372zm0 5.814H11.149c-.563 0-1.018-.165-1.018-.371s.455-.372 1.018-.372h72.266c.563 0 1.019.167 1.019.372s-.455.371-1.018.371zm0 5.815H11.149c-.563 0-1.018-.167-1.018-.372s.455-.371 1.018-.371h72.266c.563 0 1.019.165 1.019.371s-.455.372-1.018.372zm-32.841 46.692H9.327c-.322 0-.583-.167-.583-.372s.261-.371.583-.371h41.248c.32 0 .581.165.581.371s-.26.372-.581.372zm0 5.814H9.327c-.322 0-.583-.165-.583-.371s.261-.372.583-.372h41.248c.32 0 .581.167.581.372s-.26.371-.581.371zm0 5.815H9.327c-.322 0-.583-.167-.583-.372s.261-.372.583-.372h41.248c.32 0 .581.167.581.372s-.26.372-.581.372zm0 5.815H9.327c-.322 0-.583-.167-.583-.372s.261-.372.583-.372h41.248c.32 0 .581.167.581.372s-.26.372-.581.372z"/></g></svg>