<svg xmlns="http://www.w3.org/2000/svg" width="380.82" height="347.471"><defs><style>.b{fill:#fd5421}.c{fill:#fbaf2c}.f{fill:#070307}.g{fill:#0a0d2c}.h{fill:#111e3f}.k{fill:#fff}</style></defs><g transform="translate(-70.269 -105.12)"><path d="M80.855 447.891s-53.121-136.785 78.627-224.327c0 0 22.354 28.79 15.837 41.742 0 0 93.732-151.8 228.371-160.186 0 0 38.155 78.317 3.243 146.683 0 0 29.453 10.1 41.024-29.593 0 0 19.985 101.587-41.024 192.554 0 0 30.374 5.909 32.346 33.127z" fill="#e9e2c3"/><path class="b" d="M140.77 425.373s-8.679-17.71-20.8-19.746l-.061 4.105-2.229-4.959a37.071 37.071 0 00-12.152-.18s1.323 10.531 9.533 21.821l6.757-1.543-4.984 3.868s5.567 12.4 22.493 11.827z"/><path class="c" d="M131.565 440.593s-4.411-10.536 6.53-17.28c0 0 1.857 2.219 1.315 3.215 0 0 8.665-13.122 19.847-13.768 0 0 2.97 6.971-.611 12.728 0 0 2.445.779 3.406-2.278a20.237 20.237 0 01-3.406 14.832s2.522.456 2.686 2.552z"/><path class="c" d="M156.653 422.52a18.529 18.529 0 013.206.284 16.4 16.4 0 00-.6-10.044c-11.182.646-19.847 13.768-19.847 13.768.542-1-1.315-3.215-1.315-3.215-10.942 6.744-6.53 17.28-6.53 17.28h6.73a18.361 18.361 0 0118.356-18.073zm5.425.815a2.132 2.132 0 00-.025-.125c-.011.037-.027.069-.039.106z" opacity=".72"/><path d="M163.196 313.326h207.167a10.211 10.211 0 0110.212 10.211v120.158h-227.59V323.537a10.211 10.211 0 0110.211-10.211z" fill="#314581"/><path class="f" d="M369.171 308.174H164.706c-8.923 0-16.187 6.822-16.187 15.208v117.212h.539V323.382c0-8.111 7.015-14.707 15.648-14.707h204.465c8.621 0 15.636 6.6 15.636 14.707v117.212h.54V323.382c0-8.386-7.253-15.208-16.176-15.208z"/><path class="g" d="M121.857 440.594h289.808v9.333a2.664 2.664 0 01-2.663 2.667H124.521a2.664 2.664 0 01-2.664-2.667v-9.333z"/><rect class="h" width="43.72" height="10.683" rx="3.421" transform="translate(322.594 418.194)"/><rect class="h" width="43.72" height="10.683" rx="3.421" transform="translate(266.048 418.194)"/><path d="M112.759 353.824H88.682a.175.175 0 010-.35h24.077a.175.175 0 010 .35zm0 2.717H88.682a.175.175 0 010-.35h24.077a.175.175 0 010 .35zm0 2.717H88.682a.175.175 0 010-.35h24.077a.175.175 0 010 .35zM396.048 181.07h-24.079a.175.175 0 110-.35h24.079a.175.175 0 110 .35zm0 2.717h-24.079a.175.175 0 110-.35h24.079a.175.175 0 110 .35zm0 2.717h-24.079a.175.175 0 010-.35h24.079a.175.175 0 110 .35z" stroke-miterlimit="10" stroke="#000" stroke-width=".25"/><rect class="b" width="101.52" height="159.301" rx="8.851" transform="translate(266.048 220.378)"/><path d="M355.199 240.773h-77.381a.494.494 0 010-.978h77.381a.494.494 0 010 .978zm0 6.579h-77.381a.494.494 0 010-.978h77.381a.494.494 0 010 .978zm0 6.578h-77.381a.495.495 0 010-.979h77.381a.495.495 0 010 .979zm0 6.272h-77.381a.494.494 0 010-.978h77.381a.494.494 0 010 .978zm0 6.582h-77.381a.494.494 0 010-.978h77.381a.494.494 0 010 .978zm0 6.575h-77.381a.495.495 0 010-.979h77.381a.495.495 0 010 .979zm0 6.272h-77.381a.494.494 0 010-.978h77.381a.494.494 0 010 .978zm0 6.579h-77.381a.494.494 0 010-.978h77.381a.494.494 0 010 .978zm0 6.578h-77.381a.495.495 0 010-.979h77.381a.495.495 0 010 .979zm0 6.271h-77.381a.495.495 0 010-.979h77.381a.495.495 0 010 .979zm0 6.579h-77.381a.495.495 0 010-.979h77.381a.495.495 0 010 .979zm0 6.578h-77.381a.494.494 0 010-.978h77.381a.494.494 0 010 .978zm0 6.272h-77.381a.495.495 0 010-.979h77.381a.495.495 0 010 .979zm0 6.579h-77.381a.495.495 0 010-.979h77.381a.495.495 0 010 .979zm0 6.578h-77.381a.494.494 0 010-.978h77.381a.494.494 0 010 .978zm0 6.272h-77.381a.495.495 0 010-.979h77.381a.495.495 0 010 .979zm0 6.578h-77.381a.494.494 0 010-.978h77.381a.494.494 0 010 .978zm0 6.579h-77.381a.494.494 0 010-.978h77.381a.494.494 0 010 .978zm0 6.271h-77.381a.494.494 0 010-.978h77.381a.494.494 0 010 .978zm0 6.579h-77.381a.494.494 0 010-.978h77.381a.494.494 0 010 .978z" fill="#011721"/><rect class="c" width="99.416" height="38.925" rx="10.34" transform="translate(204.89 238.066)"/><path class="k" d="M290.733 251.698h-72.742c-.476 0-.862-.219-.862-.49s.386-.489.862-.489h72.742c.475 0 .86.219.86.489s-.385.49-.86.49zm0 7.365h-72.742c-.476 0-.862-.22-.862-.49s.386-.489.862-.489h72.742c.475 0 .86.219.86.489s-.385.49-.86.49zm0 7.363h-72.742c-.476 0-.862-.219-.862-.489s.386-.489.862-.489h72.742c.475 0 .86.219.86.489s-.385.489-.86.489z"/><path class="g" d="M283.754 295.205a35.678 35.678 0 10-35.678-35.678 35.718 35.718 0 0035.678 35.678zm0-66.375a30.7 30.7 0 11-30.7 30.7 30.733 30.733 0 0130.7-30.7z"/><path class="g" d="M221.903 318.966l37.02-37.02 3.719 3.72-37.02 37.02z"/><path class="k" d="M191.297 302.394s-1.957 15.584 12.052 23.161a2.545 2.545 0 002.221-.044c3.52-1.569 12.986-4.76 21.7-16.463l-1.4-2.038s-7.989 3.84-20.812 10.177c0 0-5.542-8.763-6.387-14.373z"/><path class="g" d="M227.352 325.125a7.859 7.859 0 005.578-2.311l23.921-23.92a7.889 7.889 0 00-11.156-11.154l-23.921 23.92a7.89 7.89 0 005.579 13.468z"/><rect class="h" width="56.019" height="73.438" rx="5.052" transform="translate(178.445 336.79)"/><path class="b" d="M165.932 352.758c4.7 35.992 12.892 83.44 12.892 83.44l3.837-1.521c4.8-36.28 6.546-63.655 5.887-85.7z"/><path class="f" d="M178.538 434.572l-.646 3.114a1.577 1.577 0 001.721 1.783l9.126-.979a.858.858 0 00.334-1.591l-6.29-3.04zm6.099-3.404a.232.232 0 01-.131.078l-2.884.586a.234.234 0 01-.094-.458l2.886-.584a.233.233 0 01.275.181.231.231 0 01-.052.197z"/><path class="b" d="M164.684 352.264c-1.337 36.273-1.131 84.422-1.131 84.422l4.037-.863c10.748-34.98 18.515-67.937 21.523-89.785z"/><path class="f" d="M163.543 435.036L162.389 438a1.576 1.576 0 001.4 2.044l9.162.548a.857.857 0 00.593-1.513l-5.7-4.043zm6.578-2.344a.233.233 0 01-.144.055l-2.94.1a.234.234 0 01-.017-.467l2.942-.1a.235.235 0 01.242.226.241.241 0 01-.083.186z"/><path d="M175.398 409.021s11.476-44.447 13.187-58.682" stroke="#fff" stroke-width=".5" fill="none" stroke-linecap="round" stroke-miterlimit="10"/><ellipse class="f" cx="10.762" cy="13.021" rx="10.762" ry="13.021" transform="rotate(-74.255 280.292 34.077)"/><path class="k" d="M187.841 307.074s-7.139 20.753 12.079 31.136a3.673 3.673 0 002.84.267c4.713-1.479 16.69-4.286 29.424-18.826l-1.37-2.572s-10.272 4.585-27.532 10.761c0 0-5.142-4.162-4.257-19.544z"/><path class="f" d="M230.794 317.148s1.91-3.949 4.068-1.888c1.035.987 2.509-1.365 3.017-1.023.865.584-2.725 4.922-5.681 5.464z"/><path class="k" d="M196.796 299.331a3.3 3.3 0 01-.206-2.748l1.927.365 2.658-2.425-2.027-5.247s-1 4.35-4.218 2.989c0 0-1.394.556-.465 2.038 0 0-.362 2.8-1.327 3.07a11.114 11.114 0 013.658 1.958z"/><path class="k" d="M198.806 303.707a7.078 7.078 0 00-4.835-6.131c-1.877-.586-4.316-.486-7.278 1.409a47.837 47.837 0 00-6.963 6.432c-3.221 3.546-11.607 32.009-13.6 37.768-1.082 2.619-5.189 14.674.183 17.513a4.682 4.682 0 004.986-.512 64.443 64.443 0 008.03-7.524c6.908-8.237 9.355-.45 9.355-.45s11.835-30.278 10.122-48.505z"/><circle class="f" cx="5.199" cy="5.199" r="5.199" transform="translate(169.875 274.388)"/><path class="f" d="M195.132 335.26a.425.425 0 01-.294-.117c-.077-.07-7.63-7.238-8.578-20.617a.435.435 0 11.868-.061c.924 13.02 8.228 19.972 8.3 20.041a.436.436 0 01.02.615.431.431 0 01-.316.139z"/><path d="M351.806 215.933h7.847a12.142 12.142 0 0112.141 12.143v12.7m-89.822 142.868h-7.847a12.142 12.142 0 01-12.141-12.143v-12.7" fill="none" stroke-linecap="round" stroke="#070307" stroke-width=".6" stroke-miterlimit="10"/></g></svg>