<svg xmlns="http://www.w3.org/2000/svg" width="1430.669" height="768"><defs><clipPath id="a"><path fill="#fff" d="M0 0h1366v768H0z"/></clipPath><style>.c{fill:none;stroke:#fcaf3a;stroke-miterlimit:10;stroke-width:3px}.e{fill:#405fbd}</style></defs><g clip-path="url(#a)"><g transform="rotate(-90 376.718 318.29)"><path class="c" d="M549.3-73.758s-46.008 20.931-37.83 72.643c9.17 57.982-43.961 82.9-80.255 68.539S397.439-.191 328.469-1.832C257.952-3.501 243.1-70.475 243.1-70.475"/><path class="c" d="M496.135-89.354s-19.936 44.2-12.78 88.176-25.016 49.12-37.826 43.978c-26.581-10.67-31.693-67.718-74.632-71.412-32.278-2.776-75.654 19.29-98.657-30.781"/><path class="c" d="M474.666-69.654s7.18 45.177-24.536 37.113c-36.353-9.244-35.782-30.957-81.788-10.436-16.364 7.3-82.3 9.439-69.009-30.781"/><ellipse class="c" cx="13.802" cy="20.316" rx="13.802" ry="20.316" transform="translate(437.861 -13.427)"/></g><path d="M589.169 631.744a170.734 170.734 0 00-170.734 170.734 170.734 170.734 0 00170.734 170.733 170.734 170.734 0 00170.734-170.734 170.734 170.734 0 00-170.734-170.733zm0 287.64a116.907 116.907 0 01-116.91-116.906 116.907 116.907 0 01116.91-116.911 116.906 116.906 0 01116.906 116.906 116.906 116.906 0 01-116.906 116.911z" opacity=".204" fill="#405fbd"/></g><g transform="translate(286.133 -377.252)"><path class="e" d="M882.5 538.9a4.652 4.652 0 11-4.652-4.652 4.652 4.652 0 014.652 4.652zm30.806 0a4.652 4.652 0 11-4.652-4.652 4.652 4.652 0 014.652 4.652zm30.803 0a4.652 4.652 0 11-4.652-4.652 4.652 4.652 0 014.652 4.652zm30.804 0a4.653 4.653 0 11-4.653-4.652 4.653 4.653 0 014.653 4.652zm30.803 0a4.652 4.652 0 11-4.652-4.652 4.652 4.652 0 014.652 4.652zm30.803 0a4.652 4.652 0 11-4.652-4.652 4.652 4.652 0 014.652 4.652zm30.804 0a4.652 4.652 0 11-4.652-4.652 4.652 4.652 0 014.652 4.652zm30.803 0a4.652 4.652 0 11-4.652-4.652 4.652 4.652 0 014.652 4.652zm30.804 0a4.652 4.652 0 11-4.652-4.652 4.652 4.652 0 014.652 4.652zm-230.822 24.39a4.652 4.652 0 11-4.652-4.652 4.652 4.652 0 014.652 4.652z"/><circle class="e" cx="4.652" cy="4.652" r="4.652" transform="translate(919.608 558.638)"/><circle class="e" cx="4.652" cy="4.652" r="4.652" transform="translate(950.411 558.638)"/><path class="e" d="M990.519 563.29a4.652 4.652 0 11-4.652-4.652 4.652 4.652 0 014.652 4.652zm30.803 0a4.652 4.652 0 11-4.652-4.652 4.652 4.652 0 014.652 4.652zm30.804 0a4.652 4.652 0 11-4.652-4.652 4.652 4.652 0 014.652 4.652z"/><circle class="e" cx="4.652" cy="4.652" r="4.652" transform="translate(1073.625 558.638)"/><circle class="e" cx="4.652" cy="4.652" r="4.652" transform="translate(1104.428 558.638)"/><path class="e" d="M1144.536 563.29a4.652 4.652 0 11-4.652-4.652 4.652 4.652 0 014.652 4.652z"/></g></svg>