<svg xmlns="http://www.w3.org/2000/svg" width="1366" height="360"><defs><clipPath id="a"><path class="a" transform="translate(0 1783)" d="M0 0h1366v360H0z"/></clipPath><style>.a{fill:#405fbd}.d{fill:#fff}</style></defs><path class="a" d="M0 0h1366v360H0z"/><g clip-path="url(#a)" transform="translate(0 -1783)"><path d="M1070.33 2023.309a156.669 156.669 0 00-156.669 156.669 156.669 156.669 0 00156.669 156.669 156.669 156.669 0 00156.669-156.669 156.669 156.669 0 00-156.669-156.669zm0 263.945a107.276 107.276 0 01-107.276-107.276 107.276 107.276 0 01107.276-107.276 107.276 107.276 0 01107.276 107.276 107.276 107.276 0 01-107.276 107.276z" opacity=".153" fill="#fff"/></g><g transform="translate(292.678 -442.252)"><path class="d" d="M882.5 538.9a4.652 4.652 0 11-4.652-4.652 4.652 4.652 0 014.652 4.652zm30.806 0a4.652 4.652 0 11-4.652-4.652 4.652 4.652 0 014.652 4.652zm30.803 0a4.652 4.652 0 11-4.652-4.652 4.652 4.652 0 014.652 4.652zm30.804 0a4.653 4.653 0 11-4.653-4.652 4.653 4.653 0 014.653 4.652zm30.803 0a4.652 4.652 0 11-4.652-4.652 4.652 4.652 0 014.652 4.652zm-107.608 24.39a4.652 4.652 0 11-4.652-4.652 4.652 4.652 0 014.652 4.652z"/><circle class="d" cx="4.652" cy="4.652" r="4.652" transform="translate(919.608 558.638)"/><circle class="d" cx="4.652" cy="4.652" r="4.652" transform="translate(950.411 558.638)"/><path class="d" d="M990.519 563.29a4.652 4.652 0 11-4.652-4.652 4.652 4.652 0 014.652 4.652zm30.803 0a4.652 4.652 0 11-4.652-4.652 4.652 4.652 0 014.652 4.652z"/></g></svg>