<svg xmlns="http://www.w3.org/2000/svg" width="1422.669" height="1089"><defs><clipPath id="a"><path fill="#fff" d="M0 0h1366v1089H0z"/></clipPath><style>.b{fill:#405fbd}.e{fill:none;stroke:#fb5521;stroke-miterlimit:10;stroke-width:3px}</style></defs><g transform="translate(278.133 -275.252)"><path class="b" d="M882.5 538.9a4.652 4.652 0 11-4.652-4.652 4.652 4.652 0 014.652 4.652zm30.806 0a4.652 4.652 0 11-4.652-4.652 4.652 4.652 0 014.652 4.652zm30.803 0a4.652 4.652 0 11-4.652-4.652 4.652 4.652 0 014.652 4.652zm30.804 0a4.653 4.653 0 11-4.653-4.652 4.653 4.653 0 014.653 4.652zm30.803 0a4.652 4.652 0 11-4.652-4.652 4.652 4.652 0 014.652 4.652zm30.803 0a4.652 4.652 0 11-4.652-4.652 4.652 4.652 0 014.652 4.652zm30.804 0a4.652 4.652 0 11-4.652-4.652 4.652 4.652 0 014.652 4.652zm30.803 0a4.652 4.652 0 11-4.652-4.652 4.652 4.652 0 014.652 4.652zm30.804 0a4.652 4.652 0 11-4.652-4.652 4.652 4.652 0 014.652 4.652zm-230.822 24.39a4.652 4.652 0 11-4.652-4.652 4.652 4.652 0 014.652 4.652z"/><circle class="b" cx="4.652" cy="4.652" r="4.652" transform="translate(919.608 558.638)"/><circle class="b" cx="4.652" cy="4.652" r="4.652" transform="translate(950.411 558.638)"/><path class="b" d="M990.519 563.29a4.652 4.652 0 11-4.652-4.652 4.652 4.652 0 014.652 4.652zm30.803 0a4.652 4.652 0 11-4.652-4.652 4.652 4.652 0 014.652 4.652zm30.804 0a4.652 4.652 0 11-4.652-4.652 4.652 4.652 0 014.652 4.652z"/><circle class="b" cx="4.652" cy="4.652" r="4.652" transform="translate(1073.625 558.638)"/><circle class="b" cx="4.652" cy="4.652" r="4.652" transform="translate(1104.428 558.638)"/><path class="b" d="M1144.536 563.29a4.652 4.652 0 11-4.652-4.652 4.652 4.652 0 014.652 4.652z"/></g><g clip-path="url(#a)"><g transform="rotate(-90 511.26 511.833)" opacity=".3"><path class="e" d="M614.382-70.443s-55.782 25.38-45.868 88.084c11.12 70.307-53.305 100.526-97.313 83.108s-40.957-81.987-124.586-83.972C261.108 14.748 243.1-66.462 243.1-66.462"/><path class="e" d="M549.92-89.354s-24.174 53.594-15.5 106.919-30.33 59.561-45.863 53.325c-32.231-12.939-38.43-82.113-90.5-86.592-39.139-3.367-91.735 23.39-119.627-37.324"/><path class="e" d="M523.887-65.467s8.706 54.78-29.752 45c-44.081-11.206-43.388-37.535-99.173-12.65-19.842 8.85-99.793 11.446-83.677-37.324"/><ellipse class="e" cx="16.735" cy="24.634" rx="16.735" ry="24.634" transform="translate(479.259 2.712)"/></g><path d="M51.169-98.885A136.363 136.363 0 00-85.194 37.478a136.363 136.363 0 00136.363 136.36A136.363 136.363 0 00187.53 37.478 136.363 136.363 0 0051.169-98.885zm0 229.735a93.372 93.372 0 01-93.372-93.372 93.372 93.372 0 0193.372-93.372 93.372 93.372 0 0193.372 93.372 93.372 93.372 0 01-93.372 93.372z" fill="#fd5421" opacity=".204"/></g></svg>