<svg xmlns="http://www.w3.org/2000/svg" width="1366" height="764"><defs><clipPath id="a"><path fill="#fff" d="M0 0h1366v764H0z"/></clipPath><style>.b{fill:#405fbd}.d{fill:none;stroke:#fb5521;stroke-miterlimit:10;stroke-width:3px}</style></defs><g transform="translate(-821.867 -218.252)"><path class="b" d="M882.5 538.9a4.652 4.652 0 11-4.652-4.652 4.652 4.652 0 014.652 4.652zm30.806 0a4.652 4.652 0 11-4.652-4.652 4.652 4.652 0 014.652 4.652zm30.803 0a4.652 4.652 0 11-4.652-4.652 4.652 4.652 0 014.652 4.652zm30.804 0a4.653 4.653 0 11-4.653-4.652 4.653 4.653 0 014.653 4.652zm30.803 0a4.652 4.652 0 11-4.652-4.652 4.652 4.652 0 014.652 4.652zm30.803 0a4.652 4.652 0 11-4.652-4.652 4.652 4.652 0 014.652 4.652zm30.804 0a4.652 4.652 0 11-4.652-4.652 4.652 4.652 0 014.652 4.652zm30.803 0a4.652 4.652 0 11-4.652-4.652 4.652 4.652 0 014.652 4.652zm30.804 0a4.652 4.652 0 11-4.652-4.652 4.652 4.652 0 014.652 4.652zm-230.822 24.39a4.652 4.652 0 11-4.652-4.652 4.652 4.652 0 014.652 4.652z"/><circle class="b" cx="4.652" cy="4.652" r="4.652" transform="translate(919.608 558.638)"/><circle class="b" cx="4.652" cy="4.652" r="4.652" transform="translate(950.411 558.638)"/><path class="b" d="M990.519 563.29a4.652 4.652 0 11-4.652-4.652 4.652 4.652 0 014.652 4.652zm30.803 0a4.652 4.652 0 11-4.652-4.652 4.652 4.652 0 014.652 4.652zm30.804 0a4.652 4.652 0 11-4.652-4.652 4.652 4.652 0 014.652 4.652z"/><circle class="b" cx="4.652" cy="4.652" r="4.652" transform="translate(1073.625 558.638)"/><circle class="b" cx="4.652" cy="4.652" r="4.652" transform="translate(1104.428 558.638)"/><path class="b" d="M1144.536 563.29a4.652 4.652 0 11-4.652-4.652 4.652 4.652 0 014.652 4.652z"/></g><g clip-path="url(#a)"><g transform="rotate(-90 923.032 -292.042)"><path class="d" d="M371.279 176.016s-55.785-25.38-45.868-88.084c11.12-70.308-53.305-100.526-97.311-83.108S187.141 86.811 103.512 88.8C18 90.825 0 172.035 0 172.035"/><path class="d" d="M306.817 194.927s-24.174-53.594-15.5-106.919-30.33-59.561-45.863-53.325c-32.231 12.939-38.43 82.113-90.5 86.592-39.135 3.366-91.731-23.391-119.623 37.323"/><path class="d" d="M280.783 171.04s8.706-54.78-29.752-45c-44.08 11.207-43.388 37.535-99.172 12.652-19.842-8.85-99.793-11.445-83.677 37.324"/><ellipse class="d" cx="16.735" cy="24.634" rx="16.735" ry="24.634" transform="translate(236.156 53.593)"/></g><path d="M939.169 512.884a157.593 157.593 0 00-157.593 157.593A157.593 157.593 0 00939.169 828.07a157.593 157.593 0 00157.594-157.593 157.593 157.593 0 00-157.594-157.593zm0 265.5a107.909 107.909 0 01-107.908-107.907 107.909 107.909 0 01107.908-107.909 107.909 107.909 0 01107.909 107.909 107.909 107.909 0 01-107.909 107.909z" fill="#e9e3bf" opacity=".196"/></g></svg>