<svg xmlns="http://www.w3.org/2000/svg" width="1568.929" height="668"><path fill="rgba(64,95,189,.1)" d="M0 0h1366v668H0z"/><path d="M139.236 99.838a96.472 96.472 0 01-19.3-1.946 95.283 95.283 0 01-17.976-5.58 95.778 95.778 0 01-16.267-8.83A96.46 96.46 0 0171.52 71.788a96.461 96.461 0 01-11.694-14.173 95.791 95.791 0 01-8.83-16.267 95.288 95.288 0 01-5.58-17.976 96.476 96.476 0 01-1.946-19.3c0-1.186.022-2.388.066-3.573h30.223a67.13 67.13 0 00-.1 3.573 65.163 65.163 0 005.153 25.524 65.572 65.572 0 006.046 11.139 66.042 66.042 0 008.007 9.7 66.044 66.044 0 009.7 8.007 65.578 65.578 0 0011.138 6.046 65.163 65.163 0 0025.524 5.153 65.161 65.161 0 0025.524-5.153 65.577 65.577 0 0011.138-6.046 66.037 66.037 0 009.7-8.007 66.036 66.036 0 008.007-9.7 65.578 65.578 0 006.046-11.139 65.163 65.163 0 005.153-25.524c0-1.187-.032-2.39-.1-3.573h30.223c.044 1.194.065 2.4.065 3.573a96.469 96.469 0 01-1.946 19.3 95.29 95.29 0 01-5.58 17.976 95.787 95.787 0 01-8.829 16.267 96.463 96.463 0 01-11.694 14.173 96.454 96.454 0 01-14.173 11.694 95.775 95.775 0 01-16.267 8.83 95.28 95.28 0 01-17.976 5.58 96.47 96.47 0 01-19.282 1.946z" opacity=".603" fill="#fcaf3a" stroke="transparent" stroke-miterlimit="10"/><path d="M1450.199 315a118.729 118.729 0 00-118.729 118.729 118.729 118.729 0 00118.729 118.729 118.729 118.729 0 00118.73-118.729A118.729 118.729 0 001450.199 315zm0 200.027a81.3 81.3 0 01-81.3-81.3 81.3 81.3 0 0181.3-81.3 81.3 81.3 0 0181.3 81.3 81.3 81.3 0 01-81.3 81.296z" fill="#fd5421" opacity=".603"/></svg>