<svg xmlns="http://www.w3.org/2000/svg" width="1366" height="553.646"><defs><style>.c{fill:#fd5421}</style></defs><path fill="rgba(64,95,189,.1)" d="M0 0h1366v393H0z"/><path d="M1070.33 240.309a156.669 156.669 0 00-156.669 156.669 156.669 156.669 0 00156.669 156.669 156.669 156.669 0 00156.669-156.669 156.669 156.669 0 00-156.669-156.669zm0 263.945a107.276 107.276 0 01-107.276-107.276 107.276 107.276 0 01107.276-107.276 107.276 107.276 0 01107.276 107.276 107.276 107.276 0 01-107.276 107.276z" fill="#405fbd" opacity=".603"/><g transform="translate(292.678 -442.252)"><path class="c" d="M882.5 538.9a4.652 4.652 0 11-4.652-4.652 4.652 4.652 0 014.652 4.652zm30.806 0a4.652 4.652 0 11-4.652-4.652 4.652 4.652 0 014.652 4.652zm30.803 0a4.652 4.652 0 11-4.652-4.652 4.652 4.652 0 014.652 4.652zm30.804 0a4.653 4.653 0 11-4.653-4.652 4.653 4.653 0 014.653 4.652zm30.803 0a4.652 4.652 0 11-4.652-4.652 4.652 4.652 0 014.652 4.652zm-107.608 24.39a4.652 4.652 0 11-4.652-4.652 4.652 4.652 0 014.652 4.652z"/><circle class="c" cx="4.652" cy="4.652" r="4.652" transform="translate(919.608 558.638)"/><circle class="c" cx="4.652" cy="4.652" r="4.652" transform="translate(950.411 558.638)"/><path class="c" d="M990.519 563.29a4.652 4.652 0 11-4.652-4.652 4.652 4.652 0 014.652 4.652zm30.803 0a4.652 4.652 0 11-4.652-4.652 4.652 4.652 0 014.652 4.652z"/></g></svg>