<svg xmlns="http://www.w3.org/2000/svg" width="356.984" height="308.782"><defs><style>.b{fill:#fd5421}.c{fill:#fbaf2c}.e{fill:none;stroke-linecap:round;stroke-width:.6px;stroke:#070307;stroke-miterlimit:10}.g{fill:#0a0d2c}.h{fill:#314581}.l{fill:#fff}.k{fill:#070307}</style></defs><g transform="translate(.3)"><path d="M9.85 299.407s-46.4-119.481 68.679-195.948c0 0 19.526 25.148 13.835 36.46 0 0 81.875-132.6 199.481-139.92 0 0 33.327 68.409 2.833 128.127 0 0 25.727 8.822 35.833-25.849 0 0 17.458 88.736-35.833 168.193 0 0 26.53 5.163 28.253 28.938z" fill="#e9e2c3"/><path class="b" d="M320.9 291.964s8.813-17.982 21.123-20.05l.061 4.168 2.26-5.036a37.666 37.666 0 0112.339-.181s-1.345 10.692-9.68 22.156l-6.861-1.567 5.061 3.928s-5.651 12.594-22.835 12.009z"/><path class="c" d="M332.708 307.418s4.833-11.542-7.153-18.928c0 0-2.034 2.429-1.44 3.522 0 0-9.492-14.375-21.741-15.082 0 0-3.255 7.636.67 13.943 0 0-2.68.853-3.732-2.5a22.169 22.169 0 003.732 16.248s-2.763.5-2.944 2.795z"/><path class="c" d="M305.227 287.62a20.145 20.145 0 00-3.512.312 17.96 17.96 0 01.659-11c12.249.707 21.741 15.082 21.741 15.082-.593-1.093 1.44-3.522 1.44-3.522 11.986 7.386 7.153 18.928 7.153 18.928h-7.372a20.113 20.113 0 00-20.109-19.8zm-5.941.893a3.74 3.74 0 01.026-.138c.012.042.03.076.044.117z" opacity=".72"/><circle class="b" cx="84.103" cy="84.103" r="84.103" transform="translate(8.508 73.882)"/><circle class="e" cx="84.513" cy="84.513" r="84.513" transform="translate(0 67.395)"/><path class="c" d="M84.809 172.916a8.279 8.279 0 00-3.155.612 7.662 7.662 0 00-4.275 4.276 8.433 8.433 0 000 6.31 7.733 7.733 0 004.278 4.276 8.473 8.473 0 006.3 0 7.764 7.764 0 002.574-1.7 7.842 7.842 0 001.706-2.575 8.434 8.434 0 000-6.307 7.941 7.941 0 00-1.705-2.581 7.8 7.8 0 00-2.574-1.7 8.265 8.265 0 00-3.149-.611zm-6.453-6.394h12.9v-2.147a8.068 8.068 0 01.8-3.429 10.209 10.209 0 013.07-3.486 60.448 60.448 0 005.526-4.773 25.1 25.1 0 003.475-4.258 14.677 14.677 0 001.851-4.19 19.331 19.331 0 00.546-4.774 17.49 17.49 0 00-1.63-7.714 16.335 16.335 0 00-4.433-5.614 19.472 19.472 0 00-6.506-3.4 26.736 26.736 0 00-7.933-1.149c-6.39 0-11.687 1.705-15.743 5.067-3.922 3.249-6.287 8.007-7.036 14.148l13.275.862a9.96 9.96 0 012.672-5.684c1.631-1.735 4.025-2.613 7.115-2.613a7.5 7.5 0 015.208 1.878 6.756 6.756 0 012.109 5.253 6.343 6.343 0 01-.971 3.339 19.231 19.231 0 01-2.56 3.2c-1.1 1.125-2.388 2.318-3.837 3.545s-3.05 2.7-4.793 4.381a9.335 9.335 0 00-2.394 3.443 12.969 12.969 0 00-.713 4.575z"/><path d="M285.028 62.662h-21.031a.153.153 0 110-.306h21.032a.153.153 0 110 .306zm0 2.373h-21.031a.153.153 0 110-.306h21.032a.153.153 0 110 .306zm0 2.372h-21.031a.152.152 0 110-.3h21.032a.152.152 0 110 .3zM29.988 264.322H8.955a.153.153 0 110-.306h21.033a.153.153 0 010 .306zm0 2.376H8.955a.153.153 0 010-.306h21.033a.153.153 0 010 .306zm0 2.369H8.955a.152.152 0 110-.3h21.033a.152.152 0 110 .3z" stroke-width=".25" stroke="#000" stroke-miterlimit="10"/><path class="g" d="M326.116 205.789c0 9.384-7.393 17.009-16.477 17.009H148.334v-1.3a15.715 15.715 0 000-31.413v-1.3h161.308a16.763 16.763 0 0116.474 17.004z"/><path class="h" d="M312.462 238.223a17.021 17.021 0 01-16.925 18.59H128.883v-1.3a15.714 15.714 0 000-31.427v-1.3h166.1c8.885.009 16.677 6.592 17.479 15.437z"/><path class="g" d="M331.848 256.813v1.3a24.689 24.689 0 000 49.377v1.3h-164.05a26.011 26.011 0 01-25.967-26.953c.516-14.085 12.561-25.016 26.656-25.016z"/><path d="M187.72 280.15h-20.631a.165.165 0 110-.329h20.631a.165.165 0 110 .329zm0 3.056h-20.631a.165.165 0 110-.33h20.631a.165.165 0 010 .33zm0 3.057h-20.631a.165.165 0 110-.33h20.631a.165.165 0 010 .33z" stroke="#fff" fill="#fff" stroke-width=".25" stroke-miterlimit="10"/><path class="b" d="M287.683 185.976l-6.493 17.473-11.253 28.262-7.379-1.841s5.388-37.074 7.623-43.335c.164-.454 2.8-7.884 4.189-9.534 6.807-8.048 13.313 8.975 13.313 8.975z"/><path d="M268.6 192.796c.368-1.651.75-3.274 1.173-4.8a128.158 128.158 0 00-1.173 4.8z" fill="#233862"/><path class="b" d="M322.478 221.673l-6.343 4.2s-27.717-30.649-31.768-36.61c-3.833-5.62-6.384-10-9.48-9.371a32.238 32.238 0 00-3.887 1.773 22.453 22.453 0 01-9.79 7.6h-19.617c-6.6 0-13.466.014-13.466.014h-.382a4.482 4.482 0 01-4.46-3c-4.747-12.276.344-31.536.344-31.536l26.325 2.06 2.551 4.2c12.181-2.387 24.32-4.147 28.576-2.769 9.589 3.095 41.397 63.439 41.397 63.439z"/><path class="k" d="M248.43 120.542c-9.375 5.161-28.392 15.862-28.491 15.793 0 0-6.989 2.634-10.954 0-6.61-4.389-10.154-16.2 1.933-26.369 6.029-5.07 10.311-6.3 10.963-14.4.352-4.392 6.356-18.887 16.331-17.547.835.112 5.965.352 9.338 2.122 8.593 4.513 14.935 38.403.88 40.401z"/><path class="l" d="M240.315 113.163c.024.016-2.761.967-4.623.142-1.751-.773-3.079-3.656-3.053-3.658.8-.037 1.672-.732 2.346-5.3l.338.121 5.707 2.053s-.415 1.832-.682 3.575c-.221 1.457-.341 2.857-.033 3.067z"/><path class="l" d="M241.22 108.101s-9.376-1.258-8.5-7.085.252-9.914 6.276-9.357 6.85 2.954 7.031 4.97-2.345 11.65-4.807 11.472z"/><path class="k" d="M250.761 87.676s-8.351 7.2-14.03 7.776-7.829-1.244-7.829-1.244a22.188 22.188 0 005.362-7.265 3.992 3.992 0 013.293-2.354c4.054-.354 11.743-.51 13.204 3.087z"/><path class="l" d="M252.921 135.367c-.394 26.406-.108 20.888-3 23.393-.7.6-2.653.963-5.228 1.134-8.1.537-22.329-.8-22.87-2.293-1.867-5.178-.548-6.786-2.107-14.712a64.133 64.133 0 00-.6-2.749c-1.3-5.445-2.564-7.3 2.045-16.043 4.181-7.922 11.084-14.669 11.48-14.446 6.7 3.789 7.584 1.368 7.584 1.368s12.889 11.466 12.696 24.348z"/><path class="l" d="M240.227 111.015s13.114 1.923 14.446 6.809 9.174 33.607 9.174 33.607-5.768 1.037-8.434-1.629-9.274-24.724-9.274-24.724zm-7.584-1.368s-13.3.981-17.012 6.16c-5.227 7.289-15.595 38.356-9.653 42.5 6.692 4.666 32.05 1.1 32.05 1.1a5.718 5.718 0 00-.424-4.108c-1.1-1.788-20.46-5.929-21.285-6.755s10.316-16.093 10.316-18.568 6.008-20.329 6.008-20.329z"/><path class="h" d="M247.305 161.617h38.493l11.579-28.794h-38.433z"/><path class="h" d="M286.25 160.495h-50.83v1.122h50.378zm-10.168-13.276a1.334 1.334 0 00-1.308-1.832 2.626 2.626 0 00-2.358 1.832 1.335 1.335 0 001.308 1.833 2.628 2.628 0 002.358-1.833z"/><path class="k" d="M237.71 159.31s5.2 3.409 6.319-.671c.537-1.955 4.044-.172 4.412-.958.625-1.339-6.9-3.994-10.889-2.5z"/><path class="e" d="M222.033 136.504s-2.661 7.546-5.321 10.716"/><path d="M288.154 194.075c-4.711-5.332-9.867-13.831-12-14.157-2.638-.4-4.624 1.615-5.782 2.62a49.113 49.113 0 01-7.816 6.026" stroke="#fff" stroke-miterlimit="10" fill="none" stroke-linecap="round" stroke-width=".6"/><path class="k" d="M316.134 225.877l-.389 4.467c.127 1.559 1.87 2.313 3.51 1.518l14.8-7.175c1.322-.64 1.305-2.342-.023-2.533l-11.557-.476zm6.038-6.981a.5.5 0 01-.2.186l-4.726 2.353a.354.354 0 01-.5-.135.425.425 0 01.244-.506l4.725-2.353a.356.356 0 01.506.134.351.351 0 01-.049.321zm-59.61 10.977l-3.559 2.727c-1.065 1.146-.445 2.941 1.248 3.615l15.282 6.081c1.364.543 2.609-.618 1.854-1.727l-7.449-8.851zm9.228-.255a.518.518 0 01-.274-.026l-4.925-1.9a.355.355 0 01-.241-.464.425.425 0 01.537-.162l4.925 1.9a.354.354 0 01.243.464.359.359 0 01-.265.188z"/><path class="b" d="M239.723 85.112c-5.743 0-10.421 4.324-10.421 9.645 0 5.018 4.147 9.152 9.425 9.6v-.668c-4.9-.462-8.743-4.3-8.743-8.933 0-4.938 4.378-8.963 9.739-8.963s9.739 4.025 9.739 8.963a8.245 8.245 0 01-.887 3.736h.764a9.091 9.091 0 00.8-3.736c.001-5.32-4.664-9.644-10.416-9.644z"/><ellipse class="b" cx="4.03" cy="1.393" rx="4.03" ry="1.393" transform="rotate(-82.36 172.05 -80.348)"/><path class="k" d="M242.494 91.814a20.545 20.545 0 014.059 4.376c1.011 1.854 1.657 6.44 1.139 8.326 0 0 3.617-8.8.813-12.689-2.973-4.122-6.011-.013-6.011-.013z"/></g></svg>