<svg xmlns="http://www.w3.org/2000/svg" width="271.338" height="33.69"><defs><style>.a{fill:#fd5421}</style></defs><path class="a" d="M9.302 4.648A4.652 4.652 0 114.65-.004a4.652 4.652 0 014.652 4.652zm30.806 0a4.652 4.652 0 11-4.652-4.652 4.652 4.652 0 014.652 4.652zm30.803 0a4.652 4.652 0 11-4.652-4.652 4.652 4.652 0 014.652 4.652zm30.804 0a4.653 4.653 0 11-4.653-4.652 4.653 4.653 0 014.653 4.652zm30.803 0a4.652 4.652 0 11-4.652-4.652 4.652 4.652 0 014.652 4.652zm30.803 0a4.652 4.652 0 11-4.652-4.652 4.652 4.652 0 014.652 4.652zm30.804 0a4.652 4.652 0 11-4.652-4.652 4.652 4.652 0 014.652 4.652zm30.803 0a4.652 4.652 0 11-4.652-4.652 4.652 4.652 0 014.652 4.652zm30.804 0a4.652 4.652 0 11-4.652-4.652 4.652 4.652 0 014.652 4.652zM24.91 29.038a4.652 4.652 0 11-4.652-4.652 4.652 4.652 0 014.652 4.652z"/><circle class="a" cx="4.652" cy="4.652" r="4.652" transform="translate(46.409 24.386)"/><circle class="a" cx="4.652" cy="4.652" r="4.652" transform="translate(77.213 24.386)"/><path class="a" d="M117.321 29.038a4.652 4.652 0 11-4.652-4.652 4.652 4.652 0 014.652 4.652zm30.803 0a4.652 4.652 0 11-4.652-4.652 4.652 4.652 0 014.652 4.652zm30.804 0a4.652 4.652 0 11-4.652-4.652 4.652 4.652 0 014.652 4.652z"/><circle class="a" cx="4.652" cy="4.652" r="4.652" transform="translate(200.427 24.386)"/><circle class="a" cx="4.652" cy="4.652" r="4.652" transform="translate(231.23 24.386)"/><path class="a" d="M271.338 29.038a4.652 4.652 0 11-4.652-4.652 4.652 4.652 0 014.652 4.652z"/></svg>