<svg xmlns="http://www.w3.org/2000/svg" width="132.518" height="33.69"><defs><style>.a{fill:#405fbd}</style></defs><path class="a" d="M24.501 4.648a4.652 4.652 0 11-4.652-4.652 4.652 4.652 0 014.652 4.652zm30.804 0a4.652 4.652 0 11-4.652-4.652 4.652 4.652 0 014.652 4.652zm30.803 0a4.652 4.652 0 11-4.652-4.652 4.652 4.652 0 014.652 4.652zm30.804 0a4.652 4.652 0 11-4.652-4.652 4.652 4.652 0 014.652 4.652zM9.304 29.038a4.652 4.652 0 11-4.652-4.652 4.652 4.652 0 014.652 4.652zm30.804 0a4.652 4.652 0 11-4.652-4.652 4.652 4.652 0 014.652 4.652z"/><circle class="a" cx="4.652" cy="4.652" r="4.652" transform="translate(61.607 24.386)"/><circle class="a" cx="4.652" cy="4.652" r="4.652" transform="translate(92.41 24.386)"/><path class="a" d="M132.518 29.038a4.652 4.652 0 11-4.652-4.652 4.652 4.652 0 014.652 4.652z"/></svg>