<svg xmlns="http://www.w3.org/2000/svg" xmlns:xlink="http://www.w3.org/1999/xlink" width="345.85" height="179.887"><defs><linearGradient id="a" y1=".5" x2="1" y2=".5" gradientUnits="objectBoundingBox"><stop offset="0" stop-color="#394f95"/><stop offset="1" stop-color="#132650"/></linearGradient><linearGradient id="b" y1=".5" x2="1" y2=".5" gradientUnits="objectBoundingBox"><stop offset="0" stop-color="#f5ffff"/><stop offset="1" stop-color="#ebeefc"/></linearGradient><linearGradient id="c" y1=".5" x2="1" y2=".5" gradientUnits="objectBoundingBox"><stop offset="0" stop-color="#c75aff"/><stop offset=".998" stop-color="#693ffb"/></linearGradient><linearGradient id="d" x1="0" y1=".5" x2="1" y2=".5" xlink:href="#c"/><clipPath id="e"><path class="a" d="M646.778 406.725s.621 3.522-1.451 5.8c0 0 4.144 2.072 5.8-.829 0 0-2.072-6.01-1.45-9.118s-2.899 3.322-2.899 4.147z"/></clipPath><style>.a{fill:#fff}.d{fill:#070307}.e{fill:#0a0d2c}.o{stroke-miterlimit:10}.g{fill:#fbaf2c}.l{fill:#fd5421}.o{fill:none;stroke-linecap:round;stroke-width:.5px;stroke:#070307}</style></defs><g transform="translate(-438.722 -351.539)"><path d="M611.647 351.539a172.925 172.925 0 00-172.925 172.925h345.85a172.925 172.925 0 00-172.925-172.925z" fill="#e9e2c3"/><path d="M531.19 414.605h160.945a10.211 10.211 0 0110.211 10.211v99.519H520.979v-99.519a10.211 10.211 0 0110.211-10.211z" fill="#314581"/><path class="d" d="M693.259 410.842h-162.94a12.842 12.842 0 00-12.9 12.75v98.273h.43v-98.273a12.411 12.411 0 0112.47-12.33h162.94a12.409 12.409 0 0112.46 12.33v98.273h.43v-98.273a12.834 12.834 0 00-12.89-12.75z"/><path class="e" d="M496.173 521.865h230.95v6.9a2.664 2.664 0 01-2.664 2.664H498.837a2.664 2.664 0 01-2.664-2.664v-6.9z"/><path d="M747.608 426.234h-15.42a.112.112 0 010-.224h15.42a.112.112 0 010 .224zm0 1.74h-15.42a.112.112 0 010-.224h15.42a.112.112 0 010 .224zm0 1.739h-15.42a.112.112 0 010-.223h15.42a.112.112 0 110 .223zM478.5 487.1h-15.42a.112.112 0 110-.223h15.42a.112.112 0 010 .223zm0 1.736h-15.42a.111.111 0 110-.223h15.42a.111.111 0 010 .223zm0 1.74h-15.42a.112.112 0 010-.224h15.42a.112.112 0 010 .224z" stroke-miterlimit="10" stroke="#000" stroke-width=".25"/><path class="g" d="M696.811 360.622a16.674 16.674 0 00-26.469 19.7l-1.025 2.908-2.657 7.542 7.542-2.657 2.908-1.025a16.674 16.674 0 0019.7-26.469z"/><path class="a" d="M678.687 372.052a2.277 2.277 0 11-2.276-2.277 2.277 2.277 0 012.276 2.277zm8.84 0a2.276 2.276 0 11-2.276-2.277 2.277 2.277 0 012.276 2.277zm8.84 0a2.276 2.276 0 11-2.277-2.277 2.277 2.277 0 012.277 2.277z"/><rect width="79.109" height="33.663" rx="3.049" transform="translate(555.388 476.25)" style="mix-blend-mode:multiply;isolation:isolate" opacity=".16" fill="url(#a)"/><rect width="79.393" height="32.936" rx="3.213" transform="translate(552.159 478.85)" fill="url(#b)"/><path class="e" d="M621.114 494.1c-1.879 4.563-7.784 7.515-9.663-.537s-6.443-5.637-7.248-2.684-3.512 7.518-5.637 2.415c-2.082-5-3.476-.659-4.026.806-.925 2.461-1.262-.745-2.684-.537-1.328.194-2.416 5.1-6.442 4.831s-2.953-6.979-7.516-9.931-6.711 4.563-11.006 7.247-3.757-4.026-6.442-4.3-4.294 8.858-4.294 8.858v6.244h70.532v-12.7c-.498-2.188-3.838-3.93-5.574.288z"/><path d="M566.435 480.893a.565.565 0 11-.565-.565.565.565 0 01.565.565z" fill="url(#c)"/><path d="M601.834 481.458a.565.565 0 11-.565-.565.564.564 0 01.565.565z" fill="url(#d)"/><path class="l" d="M640.4 449.861s3.133 40.959 1.572 68.108c0 0 3.309 2.028 3.77.432s18.566-58.289 11.105-68.5-16.447-.04-16.447-.04z"/><path class="l" d="M643.328 446.671s8.842 42.111 12.125 71.287c0 0 3.627 2.226 3.768.451s4.576-25.508 2.1-37.942c-.756-3.805 4.641-21.281 1.2-32.687a10.633 10.633 0 00-1.751-3.526c-7.081-10.643-17.442 2.417-17.442 2.417z"/><path class="d" d="M619 415.846s-.806-2.223-1.4-3.441c-.346-.706-1.042-2.958-1.982-2.739s.619 1.952.3 2.776c-.249.644-1.475.422-1.778 1.681s2.1 3.26 2.1 3.26"/><path class="a" d="M667.681 427.231a45.185 45.185 0 00-1.02-5.28c-2.56-10.13-12.15-12.791-13-12.97a.1.1 0 00-.05-.011c-4.32-1.079-6.02.271-6.02.271a5.174 5.174 0 00-.97.44 23.013 23.013 0 00-8.8 6.029c-1.978 2.16-9.33 13.8-9.33 13.8s-7.26-8.351-9.56-13.81l-2.7 1.68s4.264 18.122 12.28 18.61c0 0 3.608-.1 10.792-6.775.412 8.785 1.093 20.645 1.093 20.645l22.127-2.081s-.452-4.14-.925-7.62c2.131.92 3.683 1.281 4.983.971.9-.209 2.17-5.999 1.1-13.899zm-5.23 6.7a9.8 9.8 0 01-1.338-.382c-.04-1.36-.768-6.768-.828-8.208.01.04 2.715 8.55 2.166 8.59z"/><path class="a" d="M646.778 406.725s.621 3.522-1.451 5.8c0 0 4.144 2.072 5.8-.829 0 0-2.072-6.01-1.45-9.118s-2.899 3.322-2.899 4.147z"/><g clip-path="url(#e)"><path d="M646.156 408.8s3.523-1.244 3.108-4.352-3.523 2.898-3.108 4.352z" style="mix-blend-mode:multiply;isolation:isolate" opacity=".49" fill="#fff"/></g><path class="g" d="M646.761 424.614l1.088 9.145c.032.274-.255.507-.614.5l-13.185-.281a.561.561 0 01-.577-.4l-1.449-8.865c-.045-.273.234-.515.594-.515h13.547a.56.56 0 01.596.416z"/><path class="a" d="M644.912 398.436s-1.865 3.73-.828 7.045 4.766 2.487 6.009-1.658c0 0 1.658-6.009.622-6.216s-5.388 0-5.803.829z"/><path class="d" d="M648.228 397.938c-2.663.6-7.393 3.782-10.305-3.193-2.744-6.574 4.732-4.176 7.03-4.636 2.257-.453 3.351-5.231 8.364.487 1.125 1.283 5.437-.738 6.3 4.681 1.26 7.928-9.915 10.506-9.915 10.506v-2.336c-.002-1.406 1.785-6.247-1.474-5.509z"/><path class="a" d="M650.977 403.032c-.279.833-.956 1.357-1.511 1.171s-.779-1.013-.5-1.845.955-1.357 1.51-1.171.78 1.013.501 1.845z"/><path class="d" d="M645.738 518.4l1.185 1.9c.3.722-.308 1.452-1.217 1.47l-8.207.161c-.732.015-1.11-.746-.563-1.132l5.032-2.829zm-4.267-1.737a.248.248 0 00.133.036l2.634-.024a.177.177 0 00.2-.174.214.214 0 00-.224-.17l-2.634.024a.177.177 0 00-.2.174.179.179 0 00.091.134zm17.75 1.746l1.174 1.9c.294.724-.315 1.451-1.224 1.464l-8.207.118c-.733.011-1.107-.752-.558-1.135l5.047-2.8zm-4.258-1.76a.251.251 0 00.132.037l2.635-.011a.176.176 0 00.2-.173.212.212 0 00-.222-.171l-2.635.01a.164.164 0 00-.1.308zm-3.997-86.134a3.094 3.094 0 00-4.16-.6c-1.31.7-1.783-.214-2.212.256-.732.8 2.458 3.436 5.576 3.265z"/><path class="o" d="M654.145 436.064a71.3 71.3 0 007.453 3.924"/><path stroke="#fff" fill="none" stroke-linecap="round" stroke-width=".5" stroke-miterlimit="10" d="M647.268 455.719l5.302 42.694"/><path class="o" d="M593.619 359.073h7.66a5.958 5.958 0 015.958 5.958v7.043"/><rect class="l" width="72.07" height="75.734" rx="3.654" transform="translate(531.441 362.806)"/><rect class="l" width="72.07" height="42.143" rx="3.143" transform="translate(531.441 442.205)"/><path class="g" d="M538.77 368.914h58.022v4.275H538.77zm0 15.88h16.491v16.491H538.77z"/><circle class="g" cx="9.772" cy="9.772" r="9.772" transform="rotate(-67.48 637.787 -195.603)"/><path class="g" d="M596.339 386.576h-32.186c-.25 0-.453-.129-.453-.288s.2-.288.453-.288h32.186c.251 0 .454.129.454.288s-.203.288-.454.288zm0 4.5h-32.186c-.25 0-.453-.128-.453-.287s.2-.288.453-.288h32.186c.251 0 .454.128.454.288s-.203.287-.454.287zm0 4.501h-32.186c-.25 0-.453-.129-.453-.288s.2-.288.453-.288h32.186c.251 0 .454.129.454.288s-.203.288-.454.288zm0 4.5h-32.186c-.25 0-.453-.128-.453-.287s.2-.288.453-.288h32.186c.251 0 .454.129.454.288s-.203.287-.454.287zm-.339 7.556h-55.929c-.436 0-.788-.128-.788-.287s.352-.288.788-.288H596c.436 0 .789.129.789.288s-.349.287-.789.287zm0 4.501h-55.929c-.436 0-.788-.129-.788-.288s.352-.288.788-.288H596c.436 0 .789.129.789.288s-.349.288-.789.288zm0 4.5h-55.929c-.436 0-.788-.128-.788-.287s.352-.288.788-.288H596c.436 0 .789.129.789.288s-.349.287-.789.287zm0 4.501h-55.929c-.436 0-.788-.129-.788-.288s.352-.287.788-.287H596c.436 0 .789.128.789.287s-.349.288-.789.288zm-25.414 36.137H538.66c-.249 0-.451-.129-.451-.288s.2-.287.451-.287h31.926c.248 0 .45.128.45.287s-.202.288-.45.288zm0 4.5H538.66c-.249 0-.451-.128-.451-.287s.2-.288.451-.288h31.926c.248 0 .45.129.45.288s-.202.287-.45.287zm0 4.501H538.66c-.249 0-.451-.129-.451-.288s.2-.288.451-.288h31.926c.248 0 .45.129.45.288s-.202.288-.45.288zm0 4.501H538.66c-.249 0-.451-.129-.451-.288s.2-.288.451-.288h31.926c.248 0 .45.129.45.288s-.202.288-.45.288z"/></g></svg>