<svg xmlns="http://www.w3.org/2000/svg" width="208.907" height="37.342"><defs><clipPath id="a"><path class="a" d="M0 0h28.978v37.342H0z" transform="translate(.398 .258)"/></clipPath><style>.a{fill:none}.b{fill:#405fbd}</style></defs><path class="b" d="M133.284.387c7.5-.7 10.156 1.275 11.265 4.137a4.252 4.252 0 01.161 1.833v18.752l10.606-.084a4.225 4.225 0 012.868 1.066c3.1 2.37 2.239 9.645 2.077 10.595h-26.977z"/><path d="M159.773 28.442c-.746-.572-4.556-1.094-5.939-1.082l-10.75.082-.035-24.584v-.616a5.446 5.446 0 011.081 1.386 7.89 7.89 0 01.554 1.414l13.824 21.33.54.637.452.779z" fill="#294cb5"/><path d="M158.508 26.371a4.646 4.646 0 00-3.038-1.082l-10.75.085-.036-20.337z" fill="#87b5d2"/><path class="b" d="M14.548 36.753H0V.589h14.548c5.706 0 10.444 1.7 13.7 4.911 3.213 3.168 4.911 7.723 4.911 13.171s-1.7 10-4.911 13.171c-3.257 3.213-7.995 4.911-13.7 4.911zm-3.357-26.446v16.669h2.768a7.8 7.8 0 005.875-2.253 8.641 8.641 0 002.076-6.052 8.743 8.743 0 00-2.076-6.1 7.778 7.778 0 00-5.875-2.26zm51.947-6.634v6.634H47.177v3.416h11.522a3.084 3.084 0 013.084 3.084v6.34H47.177v3.828h12.877a3.084 3.084 0 013.084 3.084v6.693H35.927V.589h24.127a3.084 3.084 0 013.084 3.084"/><path class="a" d="M65.198 0h28.978v37.342H65.198z"/><g clip-path="url(#a)" transform="translate(64.8 -.258)"><path class="b" d="M1.398 24.701a24.482 24.482 0 0011.721 3.592c2.356 0 4.771-.176 4.771-1.884 0-1.119-.707-1.414-1.944-1.767l-5.535-1.414C3.578 21.403.398 18.163.398 12.158c0-7.718 6.361-11.9 14.548-11.9a24.416 24.416 0 0111.78 2.592v10.13a20.086 20.086 0 00-11.19-3.475c-2.179 0-3.828.412-3.828 1.59 0 1.06.766 1.473 2 1.767l5.183 1.414c7.186 2.062 10.484 5.713 10.484 11.367 0 8.54-7.362 11.957-15.9 11.957a27.016 27.016 0 01-12.077-2.827z"/></g><path class="b" d="M108.017 15.726L117.735.589h13.076l-11.544 17.316 12.074 18.848h-13.25l-10.074-15.964v15.964H96.591V.589h8.342a3.084 3.084 0 013.084 3.084zm66.907 21.027h-11.426V.589h8.342a3.084 3.084 0 013.084 3.084zm22.087 0h-18.2V.589h17.2c3.789 0 6.742.837 8.776 2.489a8.949 8.949 0 013.124 7.347 8.719 8.719 0 01-1.45 4.933 7.111 7.111 0 01-3.438 2.724 8.271 8.271 0 014.226 3.181 9.524 9.524 0 011.662 5.477 10.889 10.889 0 01-.8 4.273 8.271 8.271 0 01-2.323 3.141c-2.062 1.724-5.015 2.599-8.777 2.599zm-7.422-14.136v4.889h5.537c1.753 0 2.885-.948 2.885-2.416 0-1.549-1.079-2.473-2.885-2.473zm0-12.84v4.654h4.771c1.9 0 2.945-.837 2.945-2.356 0-1.5-1.018-2.3-2.945-2.3z"/></svg>