<svg xmlns="http://www.w3.org/2000/svg" width="110.956" height="66.564"><defs><style>.b{fill:#fd5421}.c{fill:#fff}.d{fill:#fbaf2c}.e{fill:#0a0d2c}.g{fill:#314581}.i{fill:#405fbd}</style></defs><path d="M56.463 12.071A54.493 54.493 0 001.97 66.564h108.986a54.492 54.492 0 00-54.493-54.493z" fill="#e9e2c3"/><g transform="translate(30.595 .3)"><rect class="b" width="41.561" height="51.791" rx="7.155" transform="translate(0 1.819)"/><path class="c" d="M36.502 10.169H4.818a.2.2 0 010-.4h31.684a.2.2 0 010 .4zm0 3.699H4.818a.2.2 0 010-.4h31.684a.2.2 0 010 .4zm0 3.698H4.818a.2.2 0 010-.4h31.684a.2.2 0 010 .4zm0 3.7H4.818a.2.2 0 010-.4h31.684a.2.2 0 010 .4zm0 3.699H4.818a.2.2 0 010-.4h31.684a.2.2 0 010 .4zm0 3.7H4.818a.2.2 0 010-.4h31.684a.2.2 0 010 .4zm0 3.698H4.818a.2.2 0 010-.4h31.684a.2.2 0 010 .4zm0 3.699H4.818a.2.2 0 010-.4h31.684a.2.2 0 010 .4zm0 3.695H4.818a.2.2 0 010-.4h31.684a.2.2 0 010 .4zm0 3.704H4.818a.2.2 0 010-.4h31.684a.2.2 0 010 .4zm0 3.7H4.818a.2.2 0 010-.4h31.684a.2.2 0 010 .4z"/><g transform="translate(27.921 27.807)"><rect class="d" width="40.7" height="15.935" rx="7.968"/><path class="c" d="M35.143 5.581H5.363c-.195 0-.352-.089-.352-.2s.157-.2.352-.2h29.78c.195 0 .352.09.352.2s-.157.2-.352.2zm0 3.015H5.363c-.195 0-.352-.09-.352-.2s.157-.2.352-.2h29.78c.195 0 .352.09.352.2s-.157.2-.352.2zm0 3.015H5.363c-.195 0-.352-.09-.352-.2s.157-.2.352-.2h29.78c.195 0 .352.09.352.2s-.157.2-.352.2z"/></g><path class="e" d="M50.31 35.775a14.606 14.606 0 10-14.606 14.606A14.622 14.622 0 0050.31 35.775zm-2.039 0a12.567 12.567 0 11-12.567-12.567 12.581 12.581 0 0112.568 12.567z"/><path class="e" d="M44.348 46.476l1.522-1.522 15.156 15.155-1.523 1.522z"/><path class="e" d="M58.797 62.629a3.217 3.217 0 01-2.284-.946L46.72 51.89a3.23 3.23 0 114.568-4.567l9.793 9.793a3.23 3.23 0 01-2.284 5.514z"/><path d="M35.108 0h3.212a4.97 4.97 0 014.97 4.97v5.2" fill="none" stroke="#070307" stroke-linecap="round" stroke-miterlimit="10" stroke-width=".6"/></g><path class="d" d="M19.226 53.324s-3.772-6.885-10.266-8.917l-.037 2.548-1.382-3.078A23.014 23.014 0 000 43.766a32.36 32.36 0 005.917 13.542l4.193-.958-3.093 2.4s3.454 7.7 13.959 7.34z"/><path class="g" d="M16.158 66.108s-2.738-6.539 4.052-10.725c0 0 1.153 1.376.816 2 0 0 5.378-8.144 12.318-8.545 0 0 1.843 4.326-.38 7.9 0 0 1.518.483 2.115-1.415a12.559 12.559 0 01-2.115 9.205s1.566.283 1.667 1.584z"/><g opacity=".72"><path class="g" d="M31.727 54.891a11.459 11.459 0 011.99.177 10.171 10.171 0 00-.373-6.233c-6.939.4-12.318 8.545-12.318 8.545.336-.619-.816-2-.816-2-6.79 4.185-4.052 10.725-4.052 10.725h4.177a11.4 11.4 0 0111.392-11.214z"/><path class="b" d="M35.094 55.397l-.015-.078-.025.067z"/></g><g transform="translate(.948 25.161)"><path class="c" d="M5.952 1.13A1.13 1.13 0 114.822 0a1.13 1.13 0 011.13 1.13zm7.483 0A1.13 1.13 0 1112.305 0a1.13 1.13 0 011.13 1.13z"/><path class="i" d="M20.917 1.13A1.13 1.13 0 1119.787 0a1.13 1.13 0 011.13 1.13zm7.483 0A1.13 1.13 0 1127.27 0a1.13 1.13 0 011.13 1.13z"/><path class="c" d="M2.26 7.054a1.13 1.13 0 11-1.13-1.13 1.13 1.13 0 011.13 1.13zm7.483 0a1.13 1.13 0 11-1.13-1.13 1.13 1.13 0 011.13 1.13z"/><circle class="i" cx="1.13" cy="1.13" r="1.13" transform="translate(14.966 5.924)"/><circle class="i" cx="1.13" cy="1.13" r="1.13" transform="translate(22.448 5.924)"/><path class="i" d="M32.192 7.054a1.13 1.13 0 11-1.13-1.13 1.13 1.13 0 011.13 1.13z"/></g></svg>