<svg xmlns="http://www.w3.org/2000/svg" width="100" height="100"><defs><clipPath id="a"><circle class="a" cx="50" cy="50" r="50"/></clipPath><style>.a{fill:#f5f5f5}.c{fill:#011721}.d{fill:#9c6639}.g{fill:#20120c}</style></defs><g transform="translate(-2630.349 -943.949)"><circle class="a" cx="50" cy="50" r="50" transform="translate(2630.349 943.95)"/><g transform="translate(2630.349 943.95)" clip-path="url(#a)"><g transform="translate(5.508 18.662)"><path class="c" d="M46.952 5.177S41.827-1.523 34.285.32c-11.234 2.74-9.466 9.568-5.386 14.852 8.538 11.057 5.13 12.815 10.471 12.362 6.6-.559 7.622.017 11.963-9.923 2.507-5.74 1.934-12.483-4.381-12.434z"/><path class="d" d="M44.609 16.975s.086-7.736-8.414-8.879c-5.774-.776-7.58 4.631-7.707 11.931s2.046 12.089 7.008 10.991c5.229-1.156 8.343-3.6 9.559-7.519a4.168 4.168 0 003.7-4.732c-.375-4.788-4.146-1.792-4.146-1.792z"/><path class="d" d="M32.842 38.187s2.281-.978 2.3-8.629l10.649-7.7s.237 13.509 3.023 15.349c0 0-1.42 14.965-9.708 15.346-5.034.233-5.809-10.642-6.264-14.366z"/><path d="M33.978 16.451s-1.181 3.24-2.15 4.078.571 2.208 2.5 1.723c.766-.191-.35-5.801-.35-5.801z" fill="#89532e"/><path d="M32.843 38.187a6.853 6.853 0 006.244 3.276c1.917-.041 6.512-.141 9.728-4.253 0 0 31.471 3.4 41.056 28.2 0 0-44.729 39.86-89.871 1.479 0 .005 10.266-24.195 32.843-28.702z" fill="#fcaf3a"/><circle class="g" cx=".911" cy=".911" r=".911" transform="translate(29.24 15.789)"/><circle class="g" cx=".911" cy=".911" r=".911" transform="translate(37.265 15.789)"/><path class="g" d="M39.915 13.084a12.2 12.2 0 00-2.014-.135.928.928 0 00-.815 1.014.941.941 0 001.014.815 9.2 9.2 0 011.521.122.92.92 0 00.294-1.816zm-9.74-.31a5.343 5.343 0 00-.729.007 13.44 13.44 0 00-.515 1.918 1.027 1.027 0 00.131-.018c.092-.019.183-.037.274-.051.043-.007.087-.012.131-.018h.041c.2 0 .4-.01.6 0a.929.929 0 00.951-.887.938.938 0 00-.884-.951z"/><path class="c" d="M43.623 11.703s0 9.014-2.143 10.328-12.945.387-12.945.387-1.908 5.785-.052 7.642 8.64 3.043 11.5 1.114 5.17-3 5.228-14.594c-.003-.001.483-4.377-1.588-4.877z"/><path d="M31.529 25.337l4.484-.464s.117 1.777-2.031 1.983a2.116 2.116 0 01-2.453-1.519z" fill="#fff"/></g></g></g></svg>