<svg xmlns="http://www.w3.org/2000/svg" width="100" height="100"><defs><clipPath id="a"><circle class="a" cx="50" cy="50" r="50"/></clipPath><style>.a{fill:#f5f5f5}.c{fill:#011721}.d{fill:#e5af9c}.e{fill:#fff}</style></defs><g transform="translate(-2901.449 -943.949)"><circle class="a" cx="50" cy="50" r="50" transform="translate(2901.449 943.95)"/><g transform="translate(2901.449 943.95)" clip-path="url(#a)"><g transform="translate(-5.439 14.995)"><path class="c" d="M59.777 6.119s4.584-.75 9.309 4.474c3.206 3.545 3.033 10.225.663 13.842-7.348 11.209 12.151 13.724 6.789 23.983-6.047 11.57-29.111 15.73-33.516 17.143-9.1 2.919-22.682 13.287-39.173-4.524-7.617-8.226-5.63-36.6 21.691-31.573 4.711.867 15.564-3.891 13.246-10.431C32.155.328 51.035-5.803 59.777 6.119z"/><path class="d" d="M62.122 20.297s-.557-8.884-7.89-9.666c-5.559-.591-7.486 5.712-7.552 12.716s2.055 11.581 6.807 10.49c5.008-1.149 7.976-3.522 9.113-7.285a4 4 0 003.509-4.568c-.396-4.591-3.987-1.687-3.987-1.687z"/><path class="d" d="M52.755 40.675s2.246-2.577 1.805-7.694l7.694-7.407s-.062 12.444 3.768 14.824c0 0-.205 5.893-5.028 6.224s-7.774-2.377-8.239-5.947z"/><path class="e" d="M63.75 26.468a1.26 1.26 0 11-.842-1.571 1.261 1.261 0 01.842 1.571z"/><path d="M51.464 20.335c-.018-.14-.733-.117-.757.021a4.741 4.741 0 01-1.149 2.76c-.935.8.9 1.57 1.649 1.486.633-.07.413-3.07.257-4.267zm3.134 13.215s3.409-1.534 4.629-2.86.119 3.18-.477 4.037a6.785 6.785 0 01-4.625 3.26 13.715 13.715 0 00.473-4.437z" fill="#d39784"/><path d="M66.022 40.398s-1.513 5.495-6.246 5.024-6.133-3.306-7.022-4.747c0 0-7.9-.85-19.012 7.481-10.286 7.715-12.643 18.538-15 24.857 0 0 41.035 36 77.732-3.626 0 0-5.367-27.173-30.452-28.989z" fill="#fd5421"/><circle class="c" cx=".911" cy=".911" r=".911" transform="translate(47.451 19.14)"/><circle class="c" cx=".911" cy=".911" r=".911" transform="translate(55.26 19.069)"/><path class="c" d="M56.839 16.073a12.154 12.154 0 00-2.017-.076.927.927 0 00-.786 1.037.941.941 0 001.037.785 9.135 9.135 0 011.524.077.92.92 0 00.242-1.823zm-7.902-.347a5.842 5.842 0 00-1.541.119.927.927 0 00-.681 1.108.939.939 0 001.108.681c.091-.019.183-.037.274-.051.043-.007.086-.012.13-.018h.04c.2 0 .4-.01.6 0a.929.929 0 00.951-.887.939.939 0 00-.881-.952z"/><path class="e" d="M49.689 27.516l5.084-.517s.065 2.938-2.37 3.16c-2.352.215-2.714-2.643-2.714-2.643zm12.446-7.233l-.095-.606-3.358.524a3.261 3.261 0 00-6.457-.2 1.707 1.707 0 00-1.63 0 3.268 3.268 0 10.043.7 1.162 1.162 0 011.544.006 3.26 3.26 0 006.507.114zm-14.753 2.924a2.655 2.655 0 01-2.6-2.127l2.007-.313.06-.633-2.115.333a2.649 2.649 0 112.646 2.74zm8.056 0a2.651 2.651 0 112.651-2.651 2.654 2.654 0 01-2.651 2.651z"/></g></g></g></svg>