<svg xmlns="http://www.w3.org/2000/svg" width="100" height="100"><defs><clipPath id="a"><circle class="a" cx="50" cy="50" r="50"/></clipPath><style>.a{fill:#f5f5f5}.d{fill:#e5af9c}</style></defs><g transform="translate(-2630.349 -1197.943)"><circle class="a" cx="50" cy="50" r="50" transform="translate(2630.349 1197.943)"/><g transform="translate(2630.349 1197.943)" clip-path="url(#a)"><path d="M57.767 24.563s-3.366-7.246-12.54-5.176c-13.7 3.091-10.126 9.557-6.182 14.941 8.256 11.27 5.228 12.71 10.578 12.393 6.612-.392 7.618.209 12.21-9.618 2.65-5.672 4.769-12.179-4.066-12.54z" fill="#011721"/><path class="d" d="M55.118 36.003s-.517-8.882-7.877-10.046c-5.755-.911-8 5.691-8.308 12.985s1.74 12.136 6.729 11.165c5.257-1.024 8.608-3.593 9.923-7.474 0 0 3.833-.1 3.636-4.439-.21-4.612-4.103-2.191-4.103-2.191z"/><path class="d" d="M41.489 58.04s4.614-1.554 3.853-9.4l10.839-7.427s-1.166 14.957 4.277 16.44c0 0-3.439 13.906-11.736 14.077-5.033.103-6.869-9.955-7.233-13.69z"/><path d="M44.124 35.341s-1.239 3.044-2.23 3.857.515 2.221 2.46 1.786c.764-.173-.23-5.643-.23-5.643zm1.304 14.807s4.984-1.465 7.931-3.879c1.453-1.19.425 2.225-1.834 4.74a13.9 13.9 0 01-6.889 3.668 10.707 10.707 0 00.792-4.529z" fill="#d39784"/><path d="M41.492 58.04a12.439 12.439 0 007.494 2.6c1.918.007 8.371-.149 11.475-2.987 0 0 29.733 3.171 38.688 28.212 0 0-45.721 38.717-89.88-.793-.003 0 9.54-23.1 32.223-27.032z" fill="#405fbd"/><path d="M41.588 35.679a.911.911 0 11-.887-.933.911.911 0 01.887.933zm7.812.128a.911.911 0 11-.888-.934.911.911 0 01.888.934zm.93-4.193a12.16 12.16 0 00-2.017-.073.927.927 0 00-.784 1.039.941.941 0 001.039.783 9.216 9.216 0 011.524.075.92.92 0 00.238-1.824zm-8.962-.407a5.833 5.833 0 00-1.543.08.928.928 0 00-.708 1.09.938.938 0 001.091.708 5.075 5.075 0 01.405-.058h.041c.2.007.4 0 .6.018a.92.92 0 00.11-1.836z" fill="#20120c"/><path d="M41.814 43.318l4.5-.2a1.951 1.951 0 01-2.144 1.86 2.116 2.116 0 01-2.356-1.66zm13.304-7.315l-.079-.608-3.606.479a3.261 3.261 0 00-6.449-.365 1.709 1.709 0 00-1.631-.041 3.265 3.265 0 10.026.7 1.161 1.161 0 011.542.045 3.261 3.261 0 006.5.278zM40.06 38.592a2.655 2.655 0 01-2.543-2.192l1.636-.219.075-.631-1.744.236a2.649 2.649 0 112.576 2.806zm8.054.2a2.651 2.651 0 112.717-2.582 2.653 2.653 0 01-2.716 2.585zM41.489 58.04l4.656 7.612 3.649-5.02 5.158 5.243 5.506-8.223s-9.076 6.371-18.969.388z" fill="#fff"/></g></g></svg>