<svg xmlns="http://www.w3.org/2000/svg" width="317.935" height="170.43"><defs><style>.a{fill:#405fbd}.d{fill:#070307}.e{fill:#0a0d2c}.f{fill:#fd5421}.j{stroke:#fff;stroke-miterlimit:10}.j,.k{fill:#fff}.j{stroke-width:.25px}</style></defs><g transform="translate(-871.322 -526.252)"><path class="a" d="M882.5 538.9a4.652 4.652 0 11-4.652-4.652 4.652 4.652 0 014.652 4.652zm30.806 0a4.652 4.652 0 11-4.652-4.652 4.652 4.652 0 014.652 4.652zm30.803 0a4.652 4.652 0 11-4.652-4.652 4.652 4.652 0 014.652 4.652zm30.804 0a4.653 4.653 0 11-4.653-4.652 4.653 4.653 0 014.653 4.652zm30.803 0a4.652 4.652 0 11-4.652-4.652 4.652 4.652 0 014.652 4.652zm-107.608 24.39a4.652 4.652 0 11-4.652-4.652 4.652 4.652 0 014.652 4.652z"/><circle class="a" cx="4.652" cy="4.652" r="4.652" transform="translate(919.608 558.638)"/><circle class="a" cx="4.652" cy="4.652" r="4.652" transform="translate(950.411 558.638)"/><path class="a" d="M990.519 563.29a4.652 4.652 0 11-4.652-4.652 4.652 4.652 0 014.652 4.652zm30.803 0a4.652 4.652 0 11-4.652-4.652 4.652 4.652 0 014.652 4.652z"/></g><path d="M158.968 5.063A158.968 158.968 0 000 164.031h317.935A158.968 158.968 0 00158.968 5.063z" fill="#e9e2c3"/><path d="M85.828 63.038h146.306a10.211 10.211 0 0110.211 10.211v90.662H75.617V73.249a10.211 10.211 0 0110.211-10.211z" fill="#314581"/><path class="d" d="M233.992 59.579H84.204A11.806 11.806 0 0072.345 71.3v90.341h.4V71.3a11.41 11.41 0 0111.464-11.335h149.783A11.408 11.408 0 01245.446 71.3v90.341h.4V71.3a11.8 11.8 0 00-11.854-11.721z"/><path class="e" d="M52.813 161.641h212.309v6.125a2.664 2.664 0 01-2.664 2.664H55.477a2.664 2.664 0 01-2.664-2.664v-6.125z"/><path class="f" d="M229.827 40.822c5.864-5.958 6.606-15.237 6.527-20.239a4.277 4.277 0 00-4.264-4.185h-5.686a2.355 2.355 0 01-2.355-2.355h-20.785a2.355 2.355 0 01-2.355 2.355h-5.687a4.276 4.276 0 00-4.264 4.185c-.08 5 .663 14.281 6.526 20.239 3.4 3.453 8.029 5.294 13.774 5.484a.976.976 0 01.941.977.979.979 0 01-.979.98h-.336a2.563 2.563 0 00-2.563 2.563h-.07a4.3 4.3 0 00-4.295 4.295v2.147h19.4v-2.147a4.294 4.294 0 00-4.295-4.295h-.069a2.563 2.563 0 00-2.563-2.563h-.336a.98.98 0 01-.98-.98.977.977 0 01.942-.977c5.743-.19 10.374-2.031 13.772-5.484zm-5.779-7.625V21.94a3.879 3.879 0 013.88-3.883h4.163a2.607 2.607 0 012.6 2.548c.075 4.742-.611 13.52-6.05 19.046-3.135 3.185-7.468 4.864-12.887 5a.633.633 0 01-.644-.633.638.638 0 01.528-.622 10.392 10.392 0 008.411-10.2zm-25.375 6.46c-5.439-5.526-6.125-14.3-6.05-19.046a2.606 2.606 0 012.6-2.548h4.163a3.879 3.879 0 013.879 3.878v11.257a10.392 10.392 0 008.409 10.2.638.638 0 01.527.622.633.633 0 01-.643.633c-5.416-.134-9.75-1.812-12.885-4.996z"/><path d="M216.055 46.306c5.744-.19 10.374-2.032 13.773-5.484 5.864-5.958 6.606-15.237 6.527-20.239a4.277 4.277 0 00-4.264-4.185h-5.687a2.355 2.355 0 01-2.355-2.355h-10.391v43.226h9.7v-2.147a4.294 4.294 0 00-4.295-4.295h-.069a2.563 2.563 0 00-2.563-2.563h-.336a.979.979 0 01-.038-1.957zm-.942-2.288a.638.638 0 01.528-.622 10.392 10.392 0 008.409-10.2V21.94a3.879 3.879 0 013.878-3.883h4.163a2.607 2.607 0 012.6 2.548c.075 4.741-.611 13.52-6.05 19.046-3.135 3.185-7.468 4.864-12.887 5a.633.633 0 01-.642-.633z" fill="#fbaf2c"/><path d="M183.836 160.375a.837.837 0 01-.846.831h-78.847c-7.465 0-13.541-5.294-13.541-11.806v-.84c0-6.513 6.076-11.806 13.541-11.806h78.847a.831.831 0 110 1.662h-4.835c-4.606 1.653-7.869 5.582-7.869 10.144v.84c0 4.562 3.263 8.5 7.869 10.144h4.835a.836.836 0 01.846.831zm72.265-49.306a.844.844 0 01-.846.846h-78.847q-.634 0-1.241-.055c-6.885-.552-12.3-5.7-12.3-11.96v-.855c0-6.628 6.076-12.024 13.541-12.024h78.847a.85.85 0 010 1.7h-4.825c-4.615 1.673-7.878 5.681-7.878 10.324v.855c0 4.642 3.263 8.641 7.878 10.324h4.826a.844.844 0 01.845.845z" stroke-width=".5" stroke-miterlimit="10" stroke="#fff" fill="#111e3f"/><path d="M212.821 135.908a.843.843 0 01-.846.846H133.13c-7.464 0-13.54-5.387-13.54-12.015v-.864c0-6.619 6.076-12.015 13.54-12.015h78.848a.846.846 0 010 1.691h-4.826c-4.616 1.682-7.878 5.681-7.878 10.324v.864c0 4.642 3.263 8.641 7.878 10.324h4.826a.843.843 0 01.843.845z" stroke-width=".5" stroke-miterlimit="10" stroke="#fff" fill="#fbaf2c"/><path class="e" d="M80.383 126.952l2.993-17.608a1.436 1.436 0 00-1.656-1.656l-17.608 2.993a1.435 1.435 0 00-.774 2.43l2.345 2.346a1.435 1.435 0 010 2.03l-9.709 9.709a1.435 1.435 0 000 2.03l5.864 5.864a1.435 1.435 0 002.03 0l9.709-9.709a1.436 1.436 0 012.03 0l2.346 2.346a1.435 1.435 0 002.43-.775z"/><path class="j" d="M58.373 133.023a1.631 1.631 0 01-1.157-.479l-5.864-5.862a1.642 1.642 0 010-2.318l9.71-9.709a1.231 1.231 0 000-1.742l-2.346-2.349a1.637 1.637 0 01.884-2.771l17.607-2.992a1.636 1.636 0 011.888 1.887l-2.993 17.607a1.61 1.61 0 01-1.116 1.287 1.643 1.643 0 01-1.656-.4l-2.345-2.349a1.239 1.239 0 00-1.744 0l-9.71 9.709a1.632 1.632 0 01-1.158.481zm19.114-27.841a1.388 1.388 0 00-.212.017l-17.611 2.992a1.232 1.232 0 00-.666 2.087l2.346 2.349a1.637 1.637 0 010 2.316l-9.71 9.709a1.232 1.232 0 000 1.742l5.864 5.862a1.262 1.262 0 001.744 0l9.71-9.71a1.647 1.647 0 012.316 0l2.345 2.349a1.234 1.234 0 002.088-.667l2.993-17.607a1.233 1.233 0 00-1.21-1.44z"/><path class="k" d="M250.931 31.611a.2.2 0 01-.167-.3c.058-.093 5.837-9.46 4.865-23.465a.2.2 0 11.394-.028c.982 14.14-4.866 23.609-4.925 23.7a.2.2 0 01-.167.093z"/><path class="j" d="M116.069 147.03h-13.9a.111.111 0 110-.222h13.9a.111.111 0 110 .222zm0 2.06h-13.9a.111.111 0 110-.222h13.9a.111.111 0 110 .222zm0 2.059h-13.9a.111.111 0 110-.222h13.9a.111.111 0 110 .222zm73.235-53.954h-13.9a.111.111 0 010-.222h13.9a.111.111 0 110 .222zm0 2.06h-13.9a.111.111 0 010-.222h13.9a.111.111 0 110 .222zm0 2.059h-13.9a.111.111 0 110-.222h13.9a.111.111 0 110 .222z"/><path d="M304.744 110.98h-13.9a.111.111 0 010-.222h13.9a.111.111 0 010 .222zm0 2.06h-13.9a.111.111 0 010-.222h13.9a.111.111 0 010 .222zm0 2.064h-13.9a.111.111 0 010-.222h13.9a.111.111 0 110 .222z" stroke="#000" stroke-width=".25" stroke-miterlimit="10"/><path class="f" d="M160.066 71.493l-10.572 32.863-.12.377-.754 2.335-3.493-.5s-.294-19.71 3.668-29.049l-17.963-6.674-.055-.018-4.9-1.82-.469-15.876.45-.064.313-.055 9.073-1.379 1.9 1.526z"/><path class="k" d="M182.331 17.2l-.046 3.585-36.284 2.463c-1.48 6.941-7.759 26.521-8.853 29.914l-1.9-1.526-9.073 1.379-8.513-.4h-.037c0-.009.009-.009.009-.018.156-.616 5.332-20.142 7.465-26.282.009.009.018.009.037.009a.034.034 0 00.028.009.2.2 0 00.193-.175l.4-2.6a.2.2 0 00-.165-.23.21.21 0 00-.221.165l-.4 2.611a.217.217 0 00.009.11L91.932 40.73l-1.361-2.326s14.782-13.275 32.478-20.822c.028.11.064.221.1.34a4 4 0 004.21 2.831 7.567 7.567 0 007.051-6.518l-.092.68 2.215-.772c.643 0 1.287.018 1.931.064 8.401.575 17.98 1.2 43.867 2.993z"/><path class="k" d="M125.758 23.562l-.4 2.6a.2.2 0 01-.193.175.034.034 0 01-.028-.009c-.018 0-.028 0-.037-.009.018-.064.046-.129.064-.184l-.184.083a.217.217 0 01-.009-.11l.4-2.611a.21.21 0 01.221-.165.2.2 0 01.166.23zm3.068-8.191a23.681 23.681 0 015.58-1.131 7.567 7.567 0 01-7.051 6.518 4 4 0 01-4.21-2.831c-.037-.12-.074-.23-.1-.34a73.232 73.232 0 015.781-2.216zm5.491-.451l.092-.68a23.575 23.575 0 012.124-.092z"/><path class="d" d="M140.274 7.814l-5.847 6.315-.018.11a7.567 7.567 0 01-7.051 6.518 4 4 0 01-4.21-2.831c-.037-.12-.074-.23-.1-.34-3.135-10.37 4.909-12.245 4.909-12.245.524-3.567 2.482-2.307 2.482-2.307A9.025 9.025 0 01136.258 0c8.208.625 4.016 7.814 4.016 7.814z"/><path class="k" d="M141.414 10.25l-1.655 2.05-3.024-.037-.2 1.885-2.215.772.092-.68.018-.11a23.076 23.076 0 01.064-4.321c.5-1.747 1.535-.671 1.535-.671 2.85.708 3.833-2.2 3.833-2.2l.414.873z"/><path class="f" d="M136.882 53.521c-.018.046-.028.092-.046.138a515.663 515.663 0 01-6 17.191 472.169 472.169 0 01-3.879 10.195l-.2.524c-5.038 12.769-11.27 27.045-18.79 41.754l-.193.359c-.221.432-.441.873-.671 1.315l-3.1-1.7s6.977-40.633 13.661-70.675l8.513.4 10.6.5z"/><path class="d" d="M91.929 40.734c-2.409 3.245-5.8.579-5.8.579l4.44-2.9zm96.387-23.47a5.407 5.407 0 01-6.031 3.521l.046-3.585zm-84.319 106.031l-2.078 1.163a1.344 1.344 0 00-.008 2.1l6.054 4.768a.724.724 0 001.133-.774l-2-5.553zm41.134-16.718l-1.027 2.228a1.334 1.334 0 001.171 1.734l7.676.469a.729.729 0 00.5-1.283l-4.827-2.658zm-19.373-83.015l-.4 2.6a.2.2 0 01-.193.175.034.034 0 01-.028-.009c-.018 0-.028 0-.037-.009a.175.175 0 01-.129-.211l.4-2.611a.21.21 0 01.221-.165.2.2 0 01.166.23zM108.287 124.02a.2.2 0 01-.122-.04l-1.961-1.5a.2.2 0 01-.037-.277.2.2 0 01.274-.039l1.961 1.5a.2.2 0 01-.115.356zm42.248-18.954a.185.185 0 01-.044-.007l-3.485-1a.2.2 0 01-.134-.245.194.194 0 01.242-.135l3.485 1a.2.2 0 01-.063.387z"/><path d="M136.775 53.508c-1.967 6.951-10.027 28.059-10.027 28.059" stroke-linecap="round" stroke="#ededed" fill="none" stroke-width=".5" stroke-miterlimit="10"/><path class="k" d="M137.149 53.162c-.11.331-.165.506-.165.506l-.147-.009h-.11l-10.866-.588-8.2-.45 8.513.4 9.073-1.379z"/><path stroke="#070307" fill="none" stroke-width=".5" stroke-miterlimit="10" d="M147.568 28.437l-5.581 19.09"/><path d="M239.074 29.533s-1.371 14.551-14.064 17.994" stroke="#070307" stroke-linecap="round" fill="none" stroke-width=".5" stroke-miterlimit="10"/></svg>