<svg xmlns="http://www.w3.org/2000/svg" width="260.424" height="230.275"><defs><style>.a{fill:#405fbd}.l{fill:#070307}.d{fill:#fd5421}.e{fill:#fbaf2c}.g{fill:#0a0d2c}</style></defs><g transform="translate(-760.898 -366.127)"><path class="a" d="M882.5 538.9a4.652 4.652 0 11-4.652-4.652 4.652 4.652 0 014.652 4.652zm30.806 0a4.652 4.652 0 11-4.652-4.652 4.652 4.652 0 014.652 4.652zm30.803 0a4.652 4.652 0 11-4.652-4.652 4.652 4.652 0 014.652 4.652zm30.804 0a4.653 4.653 0 11-4.653-4.652 4.653 4.653 0 014.653 4.652zm30.803 0a4.652 4.652 0 11-4.652-4.652 4.652 4.652 0 014.652 4.652zm-107.608 24.39a4.652 4.652 0 11-4.652-4.652 4.652 4.652 0 014.652 4.652z"/><circle class="a" cx="4.652" cy="4.652" r="4.652" transform="translate(919.608 558.638)"/><circle class="a" cx="4.652" cy="4.652" r="4.652" transform="translate(950.411 558.638)"/><path class="a" d="M990.519 563.29a4.652 4.652 0 11-4.652-4.652 4.652 4.652 0 014.652 4.652zm30.803 0a4.652 4.652 0 11-4.652-4.652 4.652 4.652 0 014.652 4.652z"/></g><path d="M157.428 219.183H61.092a11.66 11.66 0 01-11.647-11.647V22.202a11.66 11.66 0 0111.647-11.647h96.336a11.66 11.66 0 0111.647 11.647v185.334a11.66 11.66 0 01-11.647 11.647zM61.092 10.912A11.3 11.3 0 0049.8 22.202v185.334a11.3 11.3 0 0011.292 11.29h96.336a11.3 11.3 0 0011.291-11.29V22.202a11.3 11.3 0 00-11.291-11.29z" stroke-width=".25" stroke-miterlimit="10" stroke="#070307" fill="#070307"/><rect width="109.816" height="197.72" rx="10.559" fill="#314581" transform="translate(54.352 16.009)"/><rect class="d" width="44.53" height="10.881" rx="4.339" transform="translate(113.906 37.299)"/><rect class="d" width="63.647" height="10.881" rx="4.339" transform="translate(94.788 129.396)"/><rect class="d" width="63.647" height="10.881" rx="4.339" transform="translate(94.788 158.448)"/><rect class="d" width="44.53" height="10.881" rx="4.339" transform="translate(113.906 143.922)"/><rect class="e" width="40.019" height="10.881" rx="4.339" transform="translate(58.631 68.804)"/><rect class="e" width="40.019" height="10.881" rx="4.339" transform="translate(58.631 84.197)"/><rect class="e" width="44.53" height="10.881" rx="4.339" transform="translate(58.631 187.201)"/><circle cx="26.045" cy="26.045" r="26.045" fill="#e9e2c3" transform="translate(37.36 2.597)"/><path class="g" d="M63.946 36.226a2.565 2.565 0 00-.978.19 2.377 2.377 0 00-1.324 1.324 2.622 2.622 0 000 1.955 2.4 2.4 0 001.325 1.324 2.618 2.618 0 001.953 0 2.4 2.4 0 00.8-.527 2.435 2.435 0 00.529-.8 2.607 2.607 0 000-1.954 2.474 2.474 0 00-.529-.8 2.421 2.421 0 00-.8-.525 2.562 2.562 0 00-.976-.187zm-2-1.98h4v-.665a2.5 2.5 0 01.249-1.062 3.157 3.157 0 01.951-1.08 18.8 18.8 0 001.711-1.478 7.767 7.767 0 001.076-1.319 4.549 4.549 0 00.573-1.3 6 6 0 00.169-1.479 5.422 5.422 0 00-.5-2.389 5.064 5.064 0 00-1.373-1.738 6.016 6.016 0 00-2.015-1.053 8.28 8.28 0 00-2.457-.356 7.423 7.423 0 00-4.876 1.569 6.464 6.464 0 00-2.178 4.381l4.111.267a3.082 3.082 0 01.828-1.759 2.891 2.891 0 012.2-.81 2.324 2.324 0 011.613.582 2.091 2.091 0 01.653 1.626 1.969 1.969 0 01-.3 1.035 5.96 5.96 0 01-.793.989c-.34.348-.74.718-1.188 1.1s-.945.835-1.485 1.357a2.894 2.894 0 00-.742 1.066 4.035 4.035 0 00-.22 1.416z"/><circle class="e" cx="26.045" cy="26.045" r="26.045" transform="translate(125.147 178.185)"/><path d="M148.975 175.415a25.867 25.867 0 1025.868 25.868 25.9 25.9 0 00-25.868-25.868zM66.33 4.897a25.867 25.867 0 1025.868 25.868A25.9 25.9 0 0066.33 4.897z" stroke="#fff" fill="none" stroke-linecap="round" stroke-width=".6" stroke-miterlimit="10"/><path class="g" d="M143.64 200.856a2.525 2.525 0 00-1.787 4.309l5.6 5.6a2.532 2.532 0 003.573 0l9.5-9.5a2.526 2.526 0 00-3.573-3.573l-7.717 7.717-3.816-3.816a2.508 2.508 0 00-1.78-.737z"/><path d="M223.306 149.718h-24.525a.178.178 0 110-.356h24.525a.178.178 0 010 .356zm0 2.768h-24.525a.178.178 0 110-.356h24.525a.178.178 0 010 .356zm0 2.766h-24.525a.178.178 0 110-.356h24.525a.178.178 0 010 .356zM140.135 3.86a1.868 1.868 0 111.869-1.868 1.869 1.869 0 01-1.869 1.868zm0-3.379a1.512 1.512 0 101.512 1.512 1.513 1.513 0 00-1.512-1.514zm5.114 3.379a1.868 1.868 0 111.868-1.868 1.87 1.87 0 01-1.868 1.868zm0-3.379a1.512 1.512 0 101.512 1.512 1.514 1.514 0 00-1.512-1.514zm5.107 3.379a1.868 1.868 0 111.867-1.868 1.87 1.87 0 01-1.867 1.868zm0-3.379a1.512 1.512 0 101.512 1.512 1.514 1.514 0 00-1.512-1.514z" stroke="#000" stroke-width=".25" stroke-miterlimit="10"/><path class="g" d="M217.279 60.387v41.369a7.149 7.149 0 01-7.155 7.145h-74.052a2.024 2.024 0 01-1.437-3.452l5.875-5.865a8.9 8.9 0 002.6-6.3v-32.9a7.149 7.149 0 017.155-7.145h59.856a7.149 7.149 0 017.158 7.148zM85.391 165.431H11.343a7.149 7.149 0 01-7.155-7.145v-41.367a7.149 7.149 0 017.155-7.145h59.856a7.149 7.149 0 017.156 7.145v32.9a8.9 8.9 0 002.6 6.3l5.875 5.865a2.024 2.024 0 01-1.439 3.447z"/><path d="M189.631 78c3.563 4.375 9.656 14.248 14.669 30.9h5.735s-6.193-39.911-26.607-47.938c0 0-1.937-1.329-7.609-.849a2.3 2.3 0 01-2.411-1.684l-.256-.925c-.7-6.108-3.647-1.854-3.647-1.854-3.552.561-5.049-2.992-5.049-2.992l-1.123 4.582 2.755 2.449a1.661 1.661 0 001.415.391l1.953-.369a.711.711 0 01.832.571.7.7 0 01-.538.818c-10.566 2.4-28.5 9.539-57.887 28.534l2.043 3.745s24.164-9.241 39.519-14.749c3.141-1.127 7.563 1.083 8.1 4.375l4.24 25.9h25l-3.18-30.054a1.154 1.154 0 012.046-.851zm-83.34 15.154s-29.677 13.309-56.564 26.986a.883.883 0 01-1.219-.457.885.885 0 01.389-1.1l1.864-1.043a2.641 2.641 0 001.354-2.307v-3.036l-4.817-2.523s2.409 6.193-1.72 6.652c0 0-2.523-2.359-2.982-.605 0 0-.115 2.785 1.835 3.357a5.7 5.7 0 011.689 2.913c-13.8 7.107-26.458 14.158-33.414 19.338 0 0-.458 13.762 20.949 24.313l.614-5.844s-8.412-10.977-10.094-13.577l12.08-5.352-2.6 24.772h24.772l4.752-32.069c.482-3.251 4.849-8.61 7.528-10.514l37.281-25.9z" fill="#fcfcfc"/><path d="M36.253 141.043h-.018a.178.178 0 01-.161-.194l.382-4.08a.176.176 0 01.194-.161.179.179 0 01.161.194l-.382 4.08a.178.178 0 01-.176.161z" fill="#231f20"/><path class="l" d="M164.134 54.376s-4.041-7.791 2.85-8.377c0 0 9.781-.167 10.2 6.77 0 0 .279 3.121-3.427 7.5l-.827.216zm-52.271 35.261l-4.953 3.144s2.544 5.438 7 .6zm-62.567 19.532c.629-1.578.978-4.286-3.136-5.6a2.742 2.742 0 00-2.7.637c-.458.431-1.06.968-1.785 1.56 0 0-15.215 9.4 2.377 17.282l2.984-.4a2.07 2.07 0 00.836-1.765l-.157-3.31.554-4.228a17.346 17.346 0 011.027-4.176z"/><path class="l" d="M106.286 93.154l4.735-2.829s3.482 5.175-3.037 6.83z"/><path d="M189.001 48.18h25.049M.3 149.18v9.715a10.177 10.177 0 0010.176 10.177h11.282" fill="none" stroke-linecap="round" stroke-width=".6" stroke-miterlimit="10" stroke="#070307"/></svg>