<svg xmlns="http://www.w3.org/2000/svg" width="303.072" height="223.16"><defs><style>.a{fill:#405fbd}.c{fill:#fff}.d{fill:none;stroke-linecap:round;stroke:#070307}.d,.g{stroke-miterlimit:10;stroke-width:.5px}.e{fill:#fbaf2c}.f{fill:#fd5421}.g{fill:#0a0d2c;stroke:#fff}.i{fill:#070307}</style></defs><g transform="translate(-873.198 -498.252)"><path class="a" d="M882.5 538.9a4.652 4.652 0 11-4.652-4.652 4.652 4.652 0 014.652 4.652zm30.806 0a4.652 4.652 0 11-4.652-4.652 4.652 4.652 0 014.652 4.652zm30.803 0a4.652 4.652 0 11-4.652-4.652 4.652 4.652 0 014.652 4.652zm30.804 0a4.653 4.653 0 11-4.653-4.652 4.653 4.653 0 014.653 4.652zm30.803 0a4.652 4.652 0 11-4.652-4.652 4.652 4.652 0 014.652 4.652zm-107.608 24.39a4.652 4.652 0 11-4.652-4.652 4.652 4.652 0 014.652 4.652z"/><circle class="a" cx="4.652" cy="4.652" r="4.652" transform="translate(919.608 558.638)"/><circle class="a" cx="4.652" cy="4.652" r="4.652" transform="translate(950.411 558.638)"/><path class="a" d="M990.519 563.29a4.652 4.652 0 11-4.652-4.652 4.652 4.652 0 014.652 4.652zm30.803 0a4.652 4.652 0 11-4.652-4.652 4.652 4.652 0 014.652 4.652z"/></g><g transform="translate(-1.167 -53.811)"><path d="M297.917 269.565s31.72-81.676-46.948-133.95c0 0-13.348 17.191-9.457 24.925 0 0-62.3-101.723-142.7-106.729 0 0-21.355 54.036 4.4 98.666 0 0-17.587 6.031-24.5-17.67 0 0-11.934 60.659 24.5 114.976 0 0-18.136 3.529-19.314 19.781z" fill="#e9e2c3"/><path class="c" d="M256.51 171.827s12.968 29.57 13.284 31.954c3.336 25.133-11.716 34.395-12.176 69.172h-35.839l-27.139-80.916z"/><path class="c" d="M208.786 272.957s-.992-18.848-8.67-27.23a61.415 61.415 0 01-13.566-24.568 65.41 65.41 0 01-.969-32.759l7.787-35.482a1.549 1.549 0 011.809-1.19c1.753.339 4.581 2.088 6.285 9.368a35.819 35.819 0 01.592 12.76c-1.019 7.869-2.285 25.3 4.813 34.155 0 0 7.033 7.771 13.361 9.061l26.456 26.207-3.231 29.678z"/><path class="d" d="M202.086 190.469s2.329 14.695 11.319 23.922 13 13.533 12.869 18.913"/><path class="e" d="M209.45 252.312s-5-9.131-13.615-11.826l-.05 3.379-1.832-4.083a30.527 30.527 0 00-10-.148 42.915 42.915 0 007.85 17.962l5.561-1.27-4.1 3.185s4.582 10.207 18.514 9.735z"/><rect class="f" width="52.599" height="15.029" rx="7.514" transform="translate(240.381 59.204)"/><path class="c" d="M285.466 74.635h-37.571a7.917 7.917 0 010-15.834h37.571a7.917 7.917 0 010 15.834zm-37.571-15.03a7.112 7.112 0 000 14.223h37.571a7.112 7.112 0 000-14.223z"/><path class="c" d="M283.691 64.374h-34.02a.402.402 0 110-.805h34.02a.402.402 0 010 .805zm0 3.026h-34.02a.402.402 0 110-.805h34.02a.402.402 0 010 .805zm0 3.027h-34.02a.4.4 0 110-.8h34.02a.4.4 0 010 .8z"/><path class="g" d="M167.772 211.882a10.422 10.422 0 01-10.241 10.573H57.258v-.806a9.769 9.769 0 000-19.527v-.805h100.273a10.42 10.42 0 0110.241 10.565z"/><path d="M159.327 233.028a10.579 10.579 0 01-10.565 10.573H45.167v-.805a9.768 9.768 0 000-19.535v-.805h103.6a10.584 10.584 0 0110.56 10.572z" fill="#314581" stroke="#fff" stroke-width=".5" stroke-miterlimit="10"/><path class="g" d="M171.333 243.602v.806a15.347 15.347 0 000 30.694v.805H69.358a16.152 16.152 0 010-32.3z"/><ellipse class="i" cx="9.947" cy="12.035" rx="9.947" ry="12.035" transform="rotate(-74.255 142.786 -.942)"/><path class="f" d="M122.326 184.879s15.757-25.339 26.564-29.269c0 0 8.781-1.106 16.518 45.561l-5.22-.265s-11.421-16.559-12.035-28.349c0 0-1.827 19.2-13.01 29.31l-14.008-13.713z"/><path class="f" d="M125.776 139.49c-1.734-.542-2.9.532-5.643 2.283 0 0-29.328 18.938-17.789 53.707a28.785 28.785 0 007.821 12.075 91.9 91.9 0 0023.784 15.273s-6.14 13.509-6.333 39.082l3.959.707s13.164-19.626 13.5-42.995a2.9 2.9 0 00-.166-1.012c-.8-2.262-4.888-11.923-22.057-32.666 0 0 8.973-23.941 7.389-40.788a6.537 6.537 0 00-4.465-5.666z"/><path class="c" d="M120.151 150.45s-1.38 20.239 18.269 24.881a3.392 3.392 0 002.6-.444c3.85-2.454 13.866-7.84 21.732-23.88l-1.842-1.965s-8.064 6.563-21.982 16.226c0 0-8.5-7.7-8.5-16.418zm8.237-9.344a3.048 3.048 0 01-.19-2.539l1.781.337 2.455-2.241-1.872-4.852s-.922 4.022-3.9 2.763c0 0-1.29.514-.43 1.884 0 0-.336 2.586-1.227 2.838a10.261 10.261 0 013.383 1.81z"/><path class="c" d="M130.245 145.155a6.537 6.537 0 00-4.469-5.666c-1.734-.542-3.989-.45-6.727 1.3a44.275 44.275 0 00-6.435 5.945c-2.978 3.279-20.348 30.463-20.348 30.463l-12.629 19.766 1.865 2.6s11.538-7.907 18.538-17.916c-1 2.421-4.8 13.564.169 16.187a4.328 4.328 0 004.608-.473 59.589 59.589 0 007.422-6.954c6.386-7.614 10.616-4.462 10.616-4.462s8.974-23.943 7.39-40.79z"/><circle class="i" cx="4.805" cy="4.805" r="4.805" transform="translate(103.505 118.056)"/><path class="i" d="M126.024 140.408a2.186 2.186 0 112.186-2.186 2.188 2.188 0 01-2.186 2.186zm0-3.969a1.784 1.784 0 101.783 1.783 1.785 1.785 0 00-1.783-1.783zm34.165 64.466l-.555 1.841a3.987 3.987 0 001.625 4.48l7.671 5.052a.823.823 0 001.2-1.036l-4.719-10.071zm-32.572 61.003l-.8 1.7a6.613 6.613 0 00-.025 5.566l.734 1.6a13.537 13.537 0 004.757 5.6l.66.443a.931.931 0 001.43-.966l-2.8-13.23z"/><path class="f" d="M205.381 269.268s-3.632-8.673 5.375-14.223c0 0 1.528 1.826 1.083 2.646 0 0 7.132-10.8 16.336-11.333 0 0 2.445 5.738-.5 10.477 0 0 2.013.641 2.8-1.876a16.661 16.661 0 01-2.8 12.21s2.076.375 2.21 2.1z"/><path class="f" d="M226.031 254.391a15.2 15.2 0 012.639.234 13.491 13.491 0 00-.494-8.267c-9.2.532-16.336 11.333-16.336 11.333.445-.821-1.083-2.646-1.083-2.646-9.006 5.55-5.375 14.223-5.375 14.223h5.54a15.113 15.113 0 0115.109-14.877zm4.465.67l-.02-.1c-.01.032-.022.058-.033.089z" opacity=".72"/><rect width="68.827" height="115.659" rx="2.91" transform="translate(201.004 81.848)" fill="#0a0d2c"/><rect width="61.062" height="108.319" rx="2.542" fill="#314581" transform="translate(204.887 85.518)"/><rect class="e" width="103.049" height="23.926" rx="11.963" transform="translate(158.608 127.234)"/><path d="M246.915 134.184h-73.567a.4.4 0 010-.8h73.567a.4.4 0 110 .8zm0 5.415h-73.567a.402.402 0 010-.805h73.567a.402.402 0 010 .805zm0 5.415h-73.567a.403.403 0 010-.806h73.567a.403.403 0 010 .806zm-6.19-49.498h-28.559a.4.4 0 010-.8h28.559a.4.4 0 010 .8zm0 6.296h-28.559a.402.402 0 010-.805h28.559a.402.402 0 010 .805zm0 6.296h-28.559a.402.402 0 010-.805h28.559a.402.402 0 010 .805zm0 6.297h-28.559a.403.403 0 010-.806h28.559a.403.403 0 010 .806zm-7.815 45.042h-19.4a.4.4 0 110-.8h19.4a.4.4 0 110 .8zm0 6.297h-19.4a.403.403 0 010-.806h19.4a.403.403 0 110 .806zm0 6.295h-19.4a.402.402 0 010-.805h19.4a.402.402 0 110 .805zm0 6.297h-19.4a.402.402 0 110-.805h19.4a.402.402 0 110 .805zm27.488-18.889h-19.4a.4.4 0 110-.8h19.4a.4.4 0 110 .8zm0 6.297h-19.4a.403.403 0 110-.806h19.4a.403.403 0 010 .806zm0 6.295h-19.4a.402.402 0 110-.805h19.4a.402.402 0 010 .805zm0 6.297h-19.4a.402.402 0 110-.805h19.4a.402.402 0 010 .805z" fill="#011721"/><path class="c" d="M270.275 149.873c-4.871 1.441-11.672 4.167-16.976 9.066a2.867 2.867 0 00.708 4.67c3.207 1.548 9.827 2.564 23.133-1.473a5.414 5.414 0 003.75-6.1l-.422-2.447a5.664 5.664 0 00-6.8-4.568 50.12 50.12 0 00-3.393.852z"/><path class="c" d="M268.959 163.372a28.842 28.842 0 00-11.6 6.57 3.035 3.035 0 00.335 4.464c2.21 1.572 6.643 2.97 15.36 1.158a7.117 7.117 0 005.616-7.689l-.094-.93a5.045 5.045 0 00-5.948-4.44 33.756 33.756 0 00-3.669.867z"/><path class="c" d="M264.177 180.929a4.117 4.117 0 00.373 4.46c1.3 1.386 3.674 2.7 7.89 2.159a7.009 7.009 0 006.073-7.658l-.205-2.018a3.986 3.986 0 00-5.231-3.382 17.386 17.386 0 00-8.9 6.439z"/><path class="i" d="M162.754 151.009s4.017-.545 2.825-3.033c-.571-1.192 1.918-1.814 1.763-2.359-.265-.927-5.106.985-6.43 3.427z"/><path d="M113.1 89.762h-12.824a.102.102 0 010-.205H113.1a.102.102 0 110 .205zm0 1.9h-12.824a.102.102 0 010-.205H113.1a.102.102 0 010 .205zm0 1.899h-12.824a.102.102 0 010-.205H113.1a.102.102 0 010 .205z" stroke="#000" stroke-width=".25" stroke-miterlimit="10"/><path class="d" d="M102.832 169.091l-3.177 13.563m19.574-31.135s.872 12.1 8.414 18.31"/><path d="M123.243 186.411s14.378 18.524 18.379 25.474" stroke="#fff" stroke-width=".5" stroke-miterlimit="10" fill="none" stroke-linecap="round"/><path class="d" d="M131.397 259.274l2.999.704m28.578-62.501l3.08.06m27.152-43.889a13.8 13.8 0 011.113 8.772c-.793 3.323-4.256 1.871-4.256 1.871m68.409-7.365a4.307 4.307 0 012.328 5.494m1.424 6.042a4.306 4.306 0 011.408 5.8m4.345 5.208a4.306 4.306 0 011.407 5.8m2.622 39.369s-6.87 20.638-7.431 24.39"/></g></svg>