<svg xmlns="http://www.w3.org/2000/svg" xmlns:xlink="http://www.w3.org/1999/xlink" width="446.842" height="232.416" viewBox="0 0 446.842 232.416"><defs><style>.a,.n{fill:#fff;}.b{fill:#e9e2c3;}.c{fill:#314581;}.d{fill:#070307;}.e{fill:#0a0d2c;}.f{stroke:#000;stroke-width:0.25px;}.f,.o,.p{stroke-miterlimit:10;}.g{fill:#fbaf2c;}.h{opacity:0.16;fill:url(#a);}.h,.n{mix-blend-mode:multiply;isolation:isolate;}.i{fill:url(#b);}.j{fill:url(#c);}.k{fill:url(#d);}.l{fill:#fd5421;}.m{clip-path:url(#e);}.n{opacity:0.49;}.o,.p{fill:none;stroke-linecap:round;stroke-width:0.5px;}.o{stroke:#070307;}.p{stroke:#fff;}</style><linearGradient id="a" y1="0.5" x2="1" y2="0.5" gradientUnits="objectBoundingBox"><stop offset="0" stop-color="#394f95"/><stop offset="1" stop-color="#132650"/></linearGradient><linearGradient id="b" y1="0.5" x2="1" y2="0.5" gradientUnits="objectBoundingBox"><stop offset="0" stop-color="#f5ffff"/><stop offset="1" stop-color="#ebeefc"/></linearGradient><linearGradient id="c" y1="0.5" x2="1" y2="0.5" gradientUnits="objectBoundingBox"><stop offset="0" stop-color="#c75aff"/><stop offset="0.998" stop-color="#693ffb"/></linearGradient><linearGradient id="d" x1="0" y1="0.5" x2="1" y2="0.5" xlink:href="#c"/><clipPath id="e"><path class="a" d="M647.2,408.182s.8,4.55-1.875,7.5c0,0,5.354,2.677,7.5-1.071,0,0-2.677-7.765-1.873-11.781S647.2,407.11,647.2,408.182Z" transform="translate(-645.327 -401.737)"/></clipPath></defs><path class="b" d="M662.143,351.539c-123.391,0-223.421,100.029-223.421,223.421H885.564C885.564,451.568,785.535,351.539,662.143,351.539Z" transform="translate(-438.722 -351.539)"/><g transform="translate(106.276 81.482)"><path class="c" d="M10.211,0H224.117a10.211,10.211,0,0,1,10.211,10.211V141.773a0,0,0,0,1,0,0H0a0,0,0,0,1,0,0V10.211A10.211,10.211,0,0,1,10.211,0Z"/></g><g transform="translate(101.677 76.62)"><path class="d" d="M744.606,410.842H534.086a16.593,16.593,0,0,0-16.667,16.473v126.97h.556V427.315a16.036,16.036,0,0,1,16.111-15.93h210.52a16.033,16.033,0,0,1,16.1,15.93v126.97h.556V427.315A16.581,16.581,0,0,0,744.606,410.842Z" transform="translate(-517.419 -410.842)"/></g><path class="e" d="M0,0H298.39a0,0,0,0,1,0,0V9.689a2.664,2.664,0,0,1-2.664,2.664H2.664A2.664,2.664,0,0,1,0,9.689V0A0,0,0,0,1,0,0Z" transform="translate(74.227 220.063)"/><g transform="translate(352.394 3.609)"><path class="a" d="M711.748,388.035a.279.279,0,0,1-.235-.426c.083-.13,8.2-13.3,6.837-32.979a.278.278,0,1,1,.554-.039c1.38,19.874-6.839,33.181-6.921,33.315A.28.28,0,0,1,711.748,388.035Z" transform="translate(-711.47 -354.333)"/></g><g transform="translate(379.018 96.218)"><path class="f" d="M752.143,426.3H732.22a.145.145,0,0,1,0-.289h19.923a.145.145,0,1,1,0,.289Z" transform="translate(-732.077 -426.01)"/><g transform="translate(0 2.248)"><path class="f" d="M752.143,428.039H732.22a.145.145,0,0,1,0-.289h19.923a.145.145,0,1,1,0,.289Z" transform="translate(-732.077 -427.75)"/></g><g transform="translate(0 4.496)"><path class="f" d="M752.143,429.778H732.22a.144.144,0,0,1,0-.288h19.923a.144.144,0,1,1,0,.288Z" transform="translate(-732.077 -429.49)"/></g></g><g transform="translate(294.498 5.426)"><path class="g" d="M705.615,362.048a21.544,21.544,0,0,0-34.2,25.454l-1.324,3.757L666.66,401l9.745-3.433,3.757-1.324a21.544,21.544,0,0,0,25.454-34.2Z" transform="translate(-666.66 -355.739)"/><g transform="translate(9.656 18.135)"><path class="a" d="M680.017,372.717a2.941,2.941,0,1,1-2.941-2.942A2.942,2.942,0,0,1,680.017,372.717Z" transform="translate(-674.134 -369.775)"/><path class="a" d="M688.857,372.717a2.941,2.941,0,1,1-2.941-2.942A2.942,2.942,0,0,1,688.857,372.717Z" transform="translate(-671.553 -369.775)"/><path class="a" d="M697.7,372.717a2.941,2.941,0,1,1-2.942-2.942A2.942,2.942,0,0,1,697.7,372.717Z" transform="translate(-668.971 -369.775)"/></g></g><rect class="h" width="102.209" height="43.493" rx="3.049" transform="translate(150.733 161.129)"/><rect class="i" width="102.577" height="42.553" rx="3.213" transform="translate(146.562 164.488)"/><path class="e" d="M640.082,495.943c-2.428,5.9-10.057,9.709-12.485-.694s-8.324-7.283-9.364-3.468-4.538,9.713-7.283,3.12c-2.69-6.461-4.491-.851-5.2,1.041-1.2,3.18-1.63-.963-3.468-.694-1.716.251-3.122,6.589-8.323,6.242s-3.815-9.017-9.711-12.831-8.671,5.9-14.22,9.363-4.854-5.2-8.323-5.549-5.548,11.445-5.548,11.445v8.067h91.128v-16.4C646.641,492.745,642.325,490.494,640.082,495.943Z" transform="translate(-404.43 -311.753)"/><path class="j" d="M566.765,481.058a.73.73,0,1,1-.73-.73A.73.73,0,0,1,566.765,481.058Z" transform="translate(-401.758 -313.931)"/><path class="k" d="M602.164,481.623a.73.73,0,1,1-.73-.73A.729.729,0,0,1,602.164,481.623Z" transform="translate(-391.421 -313.766)"/><path class="l" d="M640.4,451.177s4.048,52.919,2.031,88c0,0,4.275,2.62,4.871.558s23.988-75.31,14.348-88.5S640.4,451.177,640.4,451.177Z" transform="translate(-379.831 -324.144)"/><path class="l" d="M643.328,448.6S654.752,503,658.994,540.7c0,0,4.686,2.876,4.868.583s5.912-32.957,2.72-49.021c-.977-4.916,6-27.5,1.547-42.232a13.737,13.737,0,0,0-2.262-4.556C656.715,431.722,643.328,448.6,643.328,448.6Z" transform="translate(-378.975 -325.685)"/><path class="d" d="M620.423,417.655s-1.041-2.872-1.811-4.446c-.447-.912-1.346-3.822-2.561-3.539s.8,2.522.389,3.587c-.322.832-1.906.545-2.3,2.172s2.709,4.212,2.709,4.212" transform="translate(-387.507 -334.569)"/><path class="a" d="M682.7,432.685a58.339,58.339,0,0,0-1.318-6.822c-3.307-13.088-15.7-16.526-16.8-16.757a.129.129,0,0,0-.065-.014c-5.581-1.394-7.778.35-7.778.35a6.682,6.682,0,0,0-1.253.568c-1.809.464-7.185,3.221-11.37,7.789-2.556,2.791-12.054,17.831-12.054,17.831s-9.38-10.79-12.352-17.843l-3.488,2.171S621.74,443.373,632.1,444c0,0,4.662-.129,13.943-8.753.532,11.35,1.412,26.674,1.412,26.674l28.588-2.689s-.584-5.349-1.2-9.845c2.753,1.189,4.758,1.655,6.438,1.255C682.447,450.373,684.087,442.892,682.7,432.685Zm-6.757,8.656a12.665,12.665,0,0,1-1.729-.494c-.052-1.757-.992-8.744-1.07-10.6C673.162,430.3,676.658,441.29,675.948,441.342Z" transform="translate(-386.887 -334.891)"/><g transform="translate(266.936 64.856)"><path class="a" d="M647.2,408.182s.8,4.55-1.875,7.5c0,0,5.354,2.677,7.5-1.071,0,0-2.677-7.765-1.873-11.781S647.2,407.11,647.2,408.182Z" transform="translate(-645.327 -401.737)"/><g class="m"><path class="n" d="M646.167,410.325s4.552-1.607,4.016-5.623S645.631,408.45,646.167,410.325Z" transform="translate(-645.096 -401.203)"/></g></g><path class="g" d="M651.066,424.736l1.406,11.815c.041.354-.329.655-.793.646l-17.035-.363a.725.725,0,0,1-.745-.518l-1.872-11.454c-.058-.353.3-.665.767-.665h17.5A.723.723,0,0,1,651.066,424.736Z" transform="translate(-382.277 -330.322)"/><path class="a" d="M645.245,398.7s-2.41,4.819-1.07,9.1,6.158,3.213,7.764-2.142c0,0,2.142-7.764.8-8.031S645.782,397.629,645.245,398.7Z" transform="translate(-378.846 -338.108)"/><path class="d" d="M651.411,400.9c-3.441.776-9.552,4.886-13.314-4.125-3.545-8.494,6.114-5.4,9.083-5.99,2.916-.585,4.33-6.759,10.806.629,1.453,1.658,7.025-.954,8.137,6.048,1.628,10.243-12.81,13.574-12.81,13.574v-3.018C653.313,406.2,655.622,399.946,651.411,400.9Z" transform="translate(-380.727 -340.947)"/><path class="a" d="M651.6,403.582c-.36,1.076-1.235,1.753-1.952,1.513s-1.006-1.309-.645-2.384,1.234-1.753,1.951-1.513S651.96,402.505,651.6,403.582Z" transform="translate(-377.363 -337.052)"/><g transform="translate(255.759 212.913)"><g transform="translate(0 2.116)"><path class="d" d="M648.384,518.527l1.531,2.452c.382.933-.4,1.876-1.572,1.9l-10.6.208c-.946.019-1.434-.964-.727-1.463l6.5-3.655Z" transform="translate(-636.676 -517.969)"/></g><g transform="translate(6.077 0)"><path class="d" d="M641.5,516.76a.32.32,0,0,0,.172.046l3.4-.031a.229.229,0,0,0,.252-.225.277.277,0,0,0-.289-.22l-3.4.031a.229.229,0,0,0-.252.225A.231.231,0,0,0,641.5,516.76Z" transform="translate(-641.379 -516.331)"/></g></g><g transform="translate(273.159 212.913)"><g transform="translate(0 2.102)"><path class="d" d="M661.872,518.541l1.517,2.46c.38.935-.407,1.875-1.581,1.891l-10.6.153c-.947.014-1.43-.972-.721-1.466l6.521-3.62Z" transform="translate(-650.144 -517.958)"/></g><g transform="translate(6.11 0)"><path class="d" d="M654.989,516.742a.325.325,0,0,0,.171.048l3.4-.014a.228.228,0,0,0,.252-.224.274.274,0,0,0-.287-.221l-3.4.013a.212.212,0,0,0-.136.4Z" transform="translate(-654.872 -516.331)"/></g></g><g transform="translate(265.852 100.595)"><path class="d" d="M652.858,430.841s-1.883-2.643-5.375-.775c-1.693.907-2.3-.276-2.858.331-.946,1.032,3.176,4.439,7.2,4.218Z" transform="translate(-644.488 -429.398)"/></g><path class="o" d="M654.145,436.064s7.416,4.377,9.629,5.07" transform="translate(-375.816 -326.856)"/><line class="p" x2="6.851" y2="55.161" transform="translate(269.444 134.603)"/><path class="o" d="M593.619,359.073h9.9a7.7,7.7,0,0,1,7.7,7.7v9.1" transform="translate(-393.49 -349.339)"/><g transform="translate(119.794 14.558)"><rect class="l" width="93.115" height="97.85" rx="3.654"/><rect class="l" width="93.115" height="54.449" rx="3.143" transform="translate(0 102.584)"/><rect class="g" width="74.966" height="5.524" transform="translate(9.469 7.891)"/><rect class="g" width="21.306" height="21.306" transform="translate(9.469 28.408)"/><circle class="g" cx="12.626" cy="12.626" r="12.626" transform="matrix(0.383, -0.924, 0.924, 0.383, 55.313, 136.723)"/><g transform="translate(41.679 29.967)"><path class="g" d="M605.87,386.744H564.285c-.323,0-.585-.167-.585-.372s.262-.372.585-.372H605.87c.324,0,.587.167.587.372S606.194,386.744,605.87,386.744Z" transform="translate(-563.7 -386)"/><g transform="translate(0 5.815)"><path class="g" d="M605.87,391.244H564.285c-.323,0-.585-.165-.585-.371s.262-.372.585-.372H605.87c.324,0,.587.165.587.372S606.194,391.244,605.87,391.244Z" transform="translate(-563.7 -390.501)"/></g><g transform="translate(0 11.629)"><path class="g" d="M605.87,395.745H564.285c-.323,0-.585-.167-.585-.372s.262-.372.585-.372H605.87c.324,0,.587.167.587.372S606.194,395.745,605.87,395.745Z" transform="translate(-563.7 -395.001)"/></g><g transform="translate(0 17.445)"><path class="g" d="M605.87,400.245H564.285c-.323,0-.585-.165-.585-.371s.262-.372.585-.372H605.87c.324,0,.587.167.587.372S606.194,400.245,605.87,400.245Z" transform="translate(-563.7 -399.502)"/></g></g><g transform="translate(10.132 57.174)"><path class="g" d="M612.567,407.8H540.3c-.563,0-1.018-.165-1.018-.371s.455-.372,1.018-.372h72.266c.563,0,1.019.167,1.019.372S613.13,407.8,612.567,407.8Z" transform="translate(-539.283 -407.058)"/><g transform="translate(0 5.814)"><path class="g" d="M612.567,412.3H540.3c-.563,0-1.018-.167-1.018-.372s.455-.372,1.018-.372h72.266c.563,0,1.019.167,1.019.372S613.13,412.3,612.567,412.3Z" transform="translate(-539.283 -411.558)"/></g><g transform="translate(0 11.629)"><path class="g" d="M612.567,416.8H540.3c-.563,0-1.018-.165-1.018-.371s.455-.372,1.018-.372h72.266c.563,0,1.019.167,1.019.372S613.13,416.8,612.567,416.8Z" transform="translate(-539.283 -416.059)"/></g><g transform="translate(0 17.445)"><path class="g" d="M612.567,421.3H540.3c-.563,0-1.018-.167-1.018-.372s.455-.371,1.018-.371h72.266c.563,0,1.019.165,1.019.371S613.13,421.3,612.567,421.3Z" transform="translate(-539.283 -420.56)"/></g></g><g transform="translate(8.744 121.308)"><path class="g" d="M580.04,457.44H538.792c-.322,0-.583-.167-.583-.372s.261-.371.583-.371H580.04c.32,0,.581.165.581.371S580.361,457.44,580.04,457.44Z" transform="translate(-538.209 -456.697)"/><g transform="translate(0 5.814)"><path class="g" d="M580.04,461.94H538.792c-.322,0-.583-.165-.583-.371s.261-.372.583-.372H580.04c.32,0,.581.167.581.372S580.361,461.94,580.04,461.94Z" transform="translate(-538.209 -461.197)"/></g><g transform="translate(0 11.628)"><path class="g" d="M580.04,466.441H538.792c-.322,0-.583-.167-.583-.372s.261-.372.583-.372H580.04c.32,0,.581.167.581.372S580.361,466.441,580.04,466.441Z" transform="translate(-538.209 -465.697)"/></g><g transform="translate(0 17.443)"><path class="g" d="M580.04,470.942H538.792c-.322,0-.583-.167-.583-.372s.261-.372.583-.372H580.04c.32,0,.581.167.581.372S580.361,470.942,580.04,470.942Z" transform="translate(-538.209 -470.198)"/></g></g></g></svg>