<svg xmlns="http://www.w3.org/2000/svg" width="439.195" height="223.531" viewBox="0 0 439.195 223.531"><defs><style>.a{fill:#e9e2c3;}.b{stroke:#000;stroke-miterlimit:10;stroke-width:0.25px;}.c,.m{fill:#314581;}.d{fill:#070307;}.e,.n{fill:#0a0d2c;}.f,.l{fill:#fbaf2c;}.g{opacity:0.72;}.h,.j{fill:#fd5421;}.i{fill:#111e3f;}.j,.k,.l,.m,.n{fill-rule:evenodd;}.k{fill:#2d3078;}</style></defs><path class="a" d="M285.7,634.852c-121.28,0-219.6,98.317-219.6,219.6H505.3C505.3,733.169,406.979,634.852,285.7,634.852Z" transform="translate(-66.1 -634.852)"/><g transform="translate(401.612 146.007)"><path class="b" d="M447.48,766.772H428.272a.154.154,0,0,1,0-.307H447.48a.154.154,0,0,1,0,.307Z" transform="translate(-428.119 -766.465)"/><g transform="translate(0 2.846)"><path class="b" d="M447.48,769.337H428.272a.154.154,0,0,1,0-.307H447.48a.154.154,0,0,1,0,.307Z" transform="translate(-428.119 -769.03)"/></g><g transform="translate(0 5.691)"><path class="b" d="M447.48,771.9H428.272a.154.154,0,0,1,0-.307H447.48a.154.154,0,0,1,0,.307Z" transform="translate(-428.119 -771.595)"/></g></g><g transform="translate(103.1 70.463)"><path class="c" d="M10.211,0H222.474a10.211,10.211,0,0,1,10.211,10.211V140.779a0,0,0,0,1,0,0H0a0,0,0,0,1,0,0V10.211A10.211,10.211,0,0,1,10.211,0Z"/></g><g transform="translate(98.533 65.636)"><path class="d" d="M380.512,694.017H171.469a16.476,16.476,0,0,0-16.55,16.358v126.08h.551V710.375a15.924,15.924,0,0,1,16-15.82H380.512a15.921,15.921,0,0,1,15.986,15.82v126.08h.551V710.375A16.465,16.465,0,0,0,380.512,694.017Z" transform="translate(-154.919 -694.017)"/></g><path class="e" d="M0,0H296.3a0,0,0,0,1,0,0V9.6a2.664,2.664,0,0,1-2.664,2.664H2.664A2.664,2.664,0,0,1,0,9.6V0A0,0,0,0,1,0,0Z" transform="translate(71.275 208.072)"/><rect class="a" width="82.465" height="105.92" rx="8.851" transform="translate(240.562 86.359)"/><g transform="translate(333.5 169.054)"><path class="f" d="M413.05,810.913s-9.09-16.589-24.737-21.486l-.09,6.139-3.33-7.417a55.459,55.459,0,0,0-18.171-.267s1.979,15.749,14.258,32.631l10.1-2.307-7.454,5.784s8.324,18.544,33.634,17.688Z" transform="translate(-366.722 -787.24)"/></g><g transform="translate(371.12 181.908)"><path class="c" d="M401.948,840.449s-6.6-15.756,9.765-25.842c0,0,2.777,3.317,1.967,4.809,0,0,12.959-19.624,29.68-20.59,0,0,4.442,10.425-.914,19.034,0,0,3.658,1.163,5.094-3.409a30.26,30.26,0,0,1-5.094,22.181s3.772.68,4.017,3.816Z" transform="translate(-400.633 -798.827)"/><g class="g"><path class="c" d="M439.463,813.421a27.533,27.533,0,0,1,4.795.426c2.291-7.527-.9-15.02-.9-15.02-16.721.966-29.68,20.59-29.68,20.59.81-1.492-1.967-4.809-1.967-4.809-16.362,10.085-9.765,25.842-9.765,25.842h10.065A27.457,27.457,0,0,1,439.463,813.421Z" transform="translate(-400.633 -798.827)"/><g transform="translate(46.848 15.625)"><path class="h" d="M442.956,813.1c-.021-.119-.035-.187-.035-.187-.018.058-.04.1-.059.161C442.893,813.082,442.925,813.089,442.956,813.1Z" transform="translate(-442.862 -812.912)"/></g></g></g><g transform="translate(118.698 89.347)"><rect class="i" width="109.766" height="4.012" transform="translate(0 29.112)"/><rect class="i" width="109.766" height="4.012" transform="translate(0 66.023)"/><rect class="i" width="109.766" height="4.012" transform="translate(0 102.933)"/><g transform="translate(4.176 0)"><rect class="e" width="8.031" height="26.755"/><rect class="e" width="8.031" height="26.755" transform="translate(10.262)"/><rect class="e" width="4.015" height="26.755" transform="translate(19.656)"/></g><g transform="translate(68.273)"><rect class="f" width="8.031" height="26.755" transform="translate(23.671 26.755) rotate(180)"/><rect class="f" width="8.031" height="26.755" transform="translate(13.409 26.755) rotate(180)"/><rect class="f" width="4.015" height="26.755" transform="translate(4.015 26.755) rotate(180)"/><rect class="f" width="4.015" height="26.755" transform="translate(30.487 26.755) rotate(180)"/><rect class="f" width="4.015" height="26.755" transform="translate(36.733 26.755) rotate(180)"/></g><g transform="translate(30.176 0.548)"><path class="h" d="M215.943,739.69l-3.573,1.854L200.3,717.739l3.573-1.854Z" transform="translate(-200.298 -715.884)"/><path class="h" d="M221.975,739.69l-3.573,1.854-12.072-23.805,3.573-1.854Z" transform="translate(-199.638 -715.884)"/><path class="h" d="M227.673,739.69l-3.573,1.854-12.072-23.805,3.573-1.854Z" transform="translate(-199.015 -715.884)"/><path class="h" d="M233.437,739.69l-3.573,1.854-12.072-23.805,3.573-1.854Z" transform="translate(-198.385 -715.884)"/></g><g transform="translate(4.101 36.591)"><rect class="f" width="8.031" height="26.755" transform="translate(23.671 26.755) rotate(180)"/><rect class="f" width="8.031" height="26.755" transform="translate(13.409 26.755) rotate(180)"/><rect class="f" width="4.015" height="26.755" transform="translate(4.015 26.755) rotate(180)"/><rect class="f" width="4.015" height="26.755" transform="translate(30.487 26.755) rotate(180)"/><rect class="f" width="4.015" height="26.755" transform="translate(36.733 26.755) rotate(180)"/></g><g transform="translate(58.681 36.591)"><rect class="e" width="8.031" height="26.755" transform="translate(13.409 26.755) rotate(180)"/><rect class="e" width="4.015" height="26.755" transform="translate(4.015 26.755) rotate(180)"/><rect class="e" width="4.015" height="26.755" transform="translate(30.487 26.755) rotate(180)"/><rect class="e" width="4.015" height="26.755" transform="translate(36.733 26.755) rotate(180)"/><rect class="e" width="4.015" height="26.755" transform="translate(42.682 26.755) rotate(180)"/></g><g transform="translate(8.61 73.752)"><rect class="h" width="8.031" height="26.755" transform="translate(53.541 26.755) rotate(180)"/><rect class="h" width="8.031" height="26.755" transform="translate(43.279 26.755) rotate(180)"/><rect class="h" width="4.015" height="26.755" transform="translate(33.885 26.755) rotate(180)"/><path class="h" d="M192.588,806.725l3.573,1.854,12.072-23.805-3.573-1.854Z" transform="translate(-179.575 -781.757)"/><path class="h" d="M186.555,806.725l3.573,1.854L202.2,784.774l-3.573-1.854Z" transform="translate(-180.235 -781.757)"/><path class="h" d="M180.858,806.725l3.573,1.854L196.5,784.774l-3.573-1.854Z" transform="translate(-180.858 -781.757)"/></g><g transform="translate(2.215 73.602)"><rect class="f" width="8.031" height="26.755" transform="translate(104.551 26.755) rotate(180)"/><rect class="f" width="8.031" height="26.755" transform="translate(94.29 26.755) rotate(180)"/><rect class="f" width="4.015" height="26.755" transform="translate(66.752 26.906) rotate(180)"/><rect class="f" width="4.015" height="26.755" transform="translate(72.998 26.906) rotate(180)"/><path class="f" d="M175.093,806.725l3.573,1.854,12.072-23.805-3.573-1.854Z" transform="translate(-175.093 -781.607)"/></g></g><g transform="translate(266.507 119.327)"><path class="c" d="M333.961,761.385l-13.387,13.808-11.822-13.808h7.617V742.416h9.981v18.969Z" transform="translate(-306.069 -742.416)"/><rect class="c" width="30.574" height="3.074" transform="translate(0 36.911)"/></g><g transform="translate(16.973 62.224)"><path class="j" d="M129.433,696.221c-14.246-14.676-24.844,3.966-23.365,22.679,1.4,17.74,16.521,78.612,13.717,104.221h5.789C139.732,790.283,147.671,715.01,129.433,696.221Z" transform="translate(-78.717 -690.942)"/><path class="k" d="M122.244,822.332c13.782-51.759-3.665-123.305-3.723-123.548a.82.82,0,0,0-.988-.609.828.828,0,0,0-.6,1c.058.243,17.527,71.87,3.64,123.158Z" transform="translate(-77.516 -690.153)"/><path class="l" d="M96.968,725.053c-15.012-8.046-18.8,9.512-12.946,24.037,4.852,12.038,26.28,47.645,34.382,70.522h7.631C126.683,788,114.691,734.552,96.968,725.053Z" transform="translate(-81.4 -687.433)"/><path class="k" d="M122.517,818.937c-4.966-42.759-33.076-89.237-33.177-89.406a.68.68,0,0,0-.94-.233.7.7,0,0,0-.23.948c.1.17,28.03,46.347,32.99,88.691Z" transform="translate(-80.67 -686.758)"/><path class="l" d="M155.832,743.288c14.55-6.43,16.858,10.2,10.393,23.321-4.373,8.877-20.136,31.608-30.751,50.943H123.359C127.5,788.3,140.792,749.936,155.832,743.288Z" transform="translate(-76.811 -685.373)"/><path class="k" d="M127.258,816.916c10.33-35.439,34.123-68.837,34.218-68.972a.633.633,0,0,1,.892-.149.648.648,0,0,1,.148.9c-.094.134-23.635,33.185-33.941,68.221Z" transform="translate(-76.384 -684.737)"/><path class="m" d="M106.783,799.543h42.632a2.339,2.339,0,0,1,2.319,2.346v10.648a2.339,2.339,0,0,1-2.319,2.346H106.783a2.339,2.339,0,0,1-2.32-2.346V801.889A2.339,2.339,0,0,1,106.783,799.543Z" transform="translate(-78.877 -679.064)"/><path class="m" d="M113.866,807.351h28.007l7.312,6.678-5.973,23.278H112.526l-5.973-23.278Z" transform="translate(-78.649 -678.211)"/><path class="n" d="M149.185,813.37l-1.228,4.784L109.8,826.021l-3.246-12.651Z" transform="translate(-78.649 -677.552)"/></g></svg>