<svg xmlns="http://www.w3.org/2000/svg" width="380.82" height="347.471" viewBox="0 0 380.82 347.471"><defs><style>.a{fill:#e9e2c3;}.b{fill:#fd5421;}.c{fill:#fbaf2c;}.d{opacity:0.72;}.e{fill:#314581;}.f{fill:#070307;}.g{fill:#0a0d2c;}.h{fill:#111e3f;}.i{stroke:#000;stroke-width:0.25px;}.i,.l,.m{stroke-miterlimit:10;}.j{fill:#011721;}.k{fill:#fff;}.l,.m{fill:none;stroke-linecap:round;}.l{stroke:#fff;stroke-width:0.5px;}.m{stroke:#070307;stroke-width:0.6px;}</style></defs><g transform="translate(-70.269 -105.12)"><g transform="translate(70.269 105.12)"><path class="a" d="M80.855,447.891S27.734,311.106,159.482,223.564c0,0,22.354,28.79,15.837,41.742,0,0,93.732-151.8,228.371-160.186,0,0,38.155,78.317,3.243,146.683,0,0,29.453,10.1,41.024-29.593,0,0,19.985,101.587-41.024,192.554,0,0,30.374,5.909,32.346,33.127Z" transform="translate(-70.269 -105.12)"/></g><g transform="translate(105.529 404.164)"><path class="b" d="M128.09,317.833s-8.679-17.71-20.8-19.746l-.061,4.105L105,297.233a37.071,37.071,0,0,0-12.152-.18s1.323,10.531,9.533,21.821l6.757-1.543-4.984,3.868s5.567,12.4,22.493,11.827Z" transform="translate(-92.849 -296.624)"/></g><g transform="translate(130.686 412.76)"><g transform="translate(0 0)"><path class="c" d="M109.838,329.962s-4.411-10.536,6.53-17.28c0,0,1.857,2.219,1.315,3.215,0,0,8.665-13.122,19.847-13.768,0,0,2.97,6.971-.611,12.728,0,0,2.445.779,3.406-2.278a20.237,20.237,0,0,1-3.406,14.832s2.522.456,2.686,2.552Z" transform="translate(-108.959 -302.129)"/></g><g class="d" transform="translate(0 0)"><path class="c" d="M134.926,311.889a18.529,18.529,0,0,1,3.206.284,16.4,16.4,0,0,0-.6-10.044c-11.182.646-19.847,13.768-19.847,13.768.542-1-1.315-3.215-1.315-3.215-10.942,6.744-6.53,17.28-6.53,17.28h6.73A18.361,18.361,0,0,1,134.926,311.889Z" transform="translate(-108.959 -302.129)"/><g transform="translate(31.328 10.45)"><path class="c" d="M129.085,308.946c-.014-.08-.025-.125-.025-.125-.011.037-.027.069-.039.106Z" transform="translate(-129.021 -308.821)"/></g></g></g><g transform="translate(152.985 313.326)"><path class="e" d="M10.211,0H217.378A10.211,10.211,0,0,1,227.59,10.211V130.369a0,0,0,0,1,0,0H0a0,0,0,0,1,0,0V10.211A10.211,10.211,0,0,1,10.211,0Z"/></g><g transform="translate(148.519 308.174)"><path class="f" d="M341.031,235.153H136.566c-8.923,0-16.187,6.822-16.187,15.208V367.573h.539V250.361c0-8.111,7.015-14.707,15.648-14.707H341.031c8.621,0,15.636,6.6,15.636,14.707V367.573h.54V250.361C357.207,241.975,349.954,235.153,341.031,235.153Z" transform="translate(-120.379 -235.153)"/></g><path class="g" d="M0,0H289.808a0,0,0,0,1,0,0V9.333A2.664,2.664,0,0,1,287.145,12H2.664A2.664,2.664,0,0,1,0,9.333V0A0,0,0,0,1,0,0Z" transform="translate(121.857 440.594)"/><g transform="translate(322.594 418.194)"><rect class="h" width="43.72" height="10.683" rx="3.421" transform="translate(0 0)"/></g><g transform="translate(266.048 418.194)"><rect class="h" width="43.72" height="10.683" rx="3.421" transform="translate(0 0)"/></g><g transform="translate(88.507 353.474)"><g transform="translate(0 0)"><path class="i" d="M106.2,264.513H82.123a.175.175,0,0,1,0-.35H106.2a.175.175,0,0,1,0,.35Z" transform="translate(-81.948 -264.163)"/></g><g transform="translate(0 2.717)"><path class="i" d="M106.2,266.253H82.123a.175.175,0,0,1,0-.35H106.2a.175.175,0,0,1,0,.35Z" transform="translate(-81.948 -265.903)"/></g><g transform="translate(0 5.434)"><path class="i" d="M106.2,267.993H82.123a.175.175,0,0,1,0-.35H106.2a.175.175,0,0,1,0,.35Z" transform="translate(-81.948 -267.643)"/></g></g><g transform="translate(371.794 180.72)"><path class="i" d="M287.616,153.883H263.537a.175.175,0,1,1,0-.35h24.079a.175.175,0,1,1,0,.35Z" transform="translate(-263.362 -153.533)"/><g transform="translate(0 2.717)"><path class="i" d="M287.616,155.623H263.537a.175.175,0,1,1,0-.35h24.079a.175.175,0,1,1,0,.35Z" transform="translate(-263.362 -155.273)"/></g><g transform="translate(0 5.434)"><path class="i" d="M287.616,157.363H263.537a.175.175,0,0,1,0-.35h24.079a.175.175,0,1,1,0,.35Z" transform="translate(-263.362 -157.013)"/></g></g><rect class="b" width="101.52" height="159.301" rx="8.851" transform="translate(266.048 220.378)"/><g transform="translate(277.395 239.795)"><path class="j" d="M280.714,192.342H203.333a.494.494,0,0,1,0-.978h77.381a.494.494,0,0,1,0,.978Z" transform="translate(-202.91 -191.364)"/><g transform="translate(0 6.579)"><path class="j" d="M280.714,196.555H203.333a.494.494,0,0,1,0-.978h77.381a.494.494,0,0,1,0,.978Z" transform="translate(-202.91 -195.577)"/></g><g transform="translate(0 13.156)"><path class="j" d="M280.714,200.768H203.333a.495.495,0,0,1,0-.979h77.381a.495.495,0,0,1,0,.979Z" transform="translate(-202.91 -199.789)"/></g><g transform="translate(0 19.429)"><path class="j" d="M280.714,204.784H203.333a.494.494,0,0,1,0-.978h77.381a.494.494,0,0,1,0,.978Z" transform="translate(-202.91 -203.806)"/><g transform="translate(0 6.579)"><path class="j" d="M280.714,209H203.333a.494.494,0,0,1,0-.978h77.381a.494.494,0,0,1,0,.978Z" transform="translate(-202.91 -208.019)"/></g><g transform="translate(0 13.156)"><path class="j" d="M280.714,213.21H203.333a.495.495,0,0,1,0-.979h77.381a.495.495,0,0,1,0,.979Z" transform="translate(-202.91 -212.231)"/></g></g><g transform="translate(0 38.858)"><path class="j" d="M280.714,217.226H203.333a.494.494,0,0,1,0-.978h77.381a.494.494,0,0,1,0,.978Z" transform="translate(-202.91 -216.248)"/><g transform="translate(0 6.579)"><path class="j" d="M280.714,221.439H203.333a.494.494,0,0,1,0-.978h77.381a.494.494,0,0,1,0,.978Z" transform="translate(-202.91 -220.461)"/></g><g transform="translate(0 13.156)"><path class="j" d="M280.714,225.652H203.333a.495.495,0,0,1,0-.979h77.381a.495.495,0,0,1,0,.979Z" transform="translate(-202.91 -224.673)"/></g></g><g transform="translate(0 58.285)"><path class="j" d="M280.714,229.668H203.333a.495.495,0,0,1,0-.979h77.381a.495.495,0,0,1,0,.979Z" transform="translate(-202.91 -228.689)"/><g transform="translate(0 6.579)"><path class="j" d="M280.714,233.881H203.333a.495.495,0,0,1,0-.979h77.381a.495.495,0,0,1,0,.979Z" transform="translate(-202.91 -232.902)"/></g><g transform="translate(0 13.158)"><path class="j" d="M280.714,238.093H203.333a.494.494,0,0,1,0-.978h77.381a.494.494,0,0,1,0,.978Z" transform="translate(-202.91 -237.115)"/></g></g><g transform="translate(0 77.714)"><path class="j" d="M280.714,242.11H203.333a.495.495,0,0,1,0-.979h77.381a.495.495,0,0,1,0,.979Z" transform="translate(-202.91 -241.131)"/><g transform="translate(0 6.579)"><path class="j" d="M280.714,246.323H203.333a.495.495,0,0,1,0-.979h77.381a.495.495,0,0,1,0,.979Z" transform="translate(-202.91 -245.344)"/></g><g transform="translate(0 13.158)"><path class="j" d="M280.714,250.535H203.333a.494.494,0,0,1,0-.978h77.381a.494.494,0,0,1,0,.978Z" transform="translate(-202.91 -249.557)"/></g></g><g transform="translate(0 97.143)"><path class="j" d="M280.714,254.552H203.333a.495.495,0,0,1,0-.979h77.381a.495.495,0,0,1,0,.979Z" transform="translate(-202.91 -253.573)"/><g transform="translate(0 6.579)"><path class="j" d="M280.714,258.764H203.333a.494.494,0,0,1,0-.978h77.381a.494.494,0,0,1,0,.978Z" transform="translate(-202.91 -257.786)"/></g><g transform="translate(0 13.158)"><path class="j" d="M280.714,262.977H203.333a.494.494,0,0,1,0-.978h77.381a.494.494,0,0,1,0,.978Z" transform="translate(-202.91 -261.999)"/></g></g><g transform="translate(0 116.572)"><path class="j" d="M280.714,266.993H203.333a.494.494,0,0,1,0-.978h77.381a.494.494,0,0,1,0,.978Z" transform="translate(-202.91 -266.015)"/><g transform="translate(0 6.579)"><path class="j" d="M280.714,271.206H203.333a.494.494,0,0,1,0-.978h77.381a.494.494,0,0,1,0,.978Z" transform="translate(-202.91 -270.228)"/></g></g></g><rect class="c" width="99.416" height="38.925" rx="10.34" transform="translate(204.89 238.066)"/><g transform="translate(217.129 250.719)"><path class="k" d="M237.92,199.339H165.178c-.476,0-.862-.219-.862-.49s.386-.489.862-.489H237.92c.475,0,.86.219.86.489S238.395,199.339,237.92,199.339Z" transform="translate(-164.316 -198.36)"/></g><g transform="translate(217.129 258.084)"><path class="k" d="M237.92,204.055H165.178c-.476,0-.862-.22-.862-.49s.386-.489.862-.489H237.92c.475,0,.86.219.86.489S238.395,204.055,237.92,204.055Z" transform="translate(-164.316 -203.076)"/></g><g transform="translate(217.129 265.448)"><path class="k" d="M237.92,208.77H165.178c-.476,0-.862-.219-.862-.489s.386-.489.862-.489H237.92c.475,0,.86.219.86.489S238.395,208.77,237.92,208.77Z" transform="translate(-164.316 -207.792)"/></g><path class="g" d="M219.812,252.508a35.678,35.678,0,1,0-35.678-35.678A35.718,35.718,0,0,0,219.812,252.508Zm0-66.375a30.7,30.7,0,1,1-30.7,30.7A30.733,30.733,0,0,1,219.812,186.133Z" transform="translate(63.942 42.697)"/><rect class="g" width="52.353" height="5.26" transform="translate(221.903 318.966) rotate(-45)"/><g transform="translate(191.203 302.394)"><path class="k" d="M147.807,231.452s-1.957,15.584,12.052,23.161a2.545,2.545,0,0,0,2.221-.044c3.52-1.569,12.986-4.76,21.7-16.463l-1.4-2.038s-7.989,3.84-20.812,10.177c0,0-5.542-8.763-6.387-14.373Z" transform="translate(-147.713 -231.452)"/></g><path class="g" d="M173.7,260.285a7.859,7.859,0,0,0,5.578-2.311l23.921-23.92A7.889,7.889,0,0,0,192.043,222.9l-23.921,23.92a7.89,7.89,0,0,0,5.579,13.468Z" transform="translate(53.652 64.84)"/><rect class="h" width="56.019" height="73.438" rx="5.052" transform="translate(178.445 336.79)"/><g transform="translate(165.932 348.977)"><path class="b" d="M131.53,265.064c4.7,35.992,12.892,83.44,12.892,83.44l3.837-1.521c4.8-36.28,6.546-63.655,5.887-85.7Z" transform="translate(-131.53 -261.283)"/><g transform="translate(11.944 81.808)"><g transform="translate(0 3.073)"><path class="f" d="M139.841,316.354l-.646,3.114a1.577,1.577,0,0,0,1.721,1.783l9.126-.979a.858.858,0,0,0,.334-1.591l-6.29-3.04Z" transform="translate(-139.179 -315.64)"/></g><g transform="translate(3.466)"><path class="f" d="M144.693,314.055a.232.232,0,0,1-.131.078l-2.884.586a.234.234,0,0,1-.094-.458l2.886-.584a.233.233,0,0,1,.275.181A.231.231,0,0,1,144.693,314.055Z" transform="translate(-141.398 -313.672)"/></g></g></g><g transform="translate(163.542 346.038)"><path class="b" d="M131.142,265.627c-1.337,36.273-1.131,84.422-1.131,84.422l4.037-.863c10.748-34.98,18.515-67.937,21.523-89.785Z" transform="translate(-130 -259.401)"/></g><g transform="translate(162.314 432.28)"><g transform="translate(0 2.756)"><path class="f" d="M130.442,316.394l-1.154,2.964a1.576,1.576,0,0,0,1.4,2.044l9.162.548a.857.857,0,0,0,.593-1.513l-5.7-4.043Z" transform="translate(-129.213 -316.394)"/></g><g transform="translate(4.481)"><path class="f" d="M135.409,315.041a.233.233,0,0,1-.144.055l-2.94.1a.234.234,0,0,1-.017-.467l2.942-.1a.235.235,0,0,1,.242.226A.241.241,0,0,1,135.409,315.041Z" transform="translate(-132.083 -314.629)"/></g></g><path class="l" d="M137.592,320.837s11.476-44.447,13.187-58.682" transform="translate(37.806 88.184)"/><g transform="translate(171.434 273.889)"><ellipse class="f" cx="10.762" cy="13.021" rx="10.762" ry="13.021" transform="translate(0 20.716) rotate(-74.255)"/></g><g transform="translate(186.543 307.074)"><path class="k" d="M146.027,234.449s-7.139,20.753,12.079,31.136a3.673,3.673,0,0,0,2.84.267c4.713-1.479,16.69-4.286,29.424-18.826L189,244.454s-10.272,4.585-27.532,10.761c0,0-5.142-4.162-4.257-19.544Z" transform="translate(-144.729 -234.449)"/></g><g transform="translate(230.794 314.203)"><path class="f" d="M173.067,241.959s1.91-3.949,4.068-1.888c1.035.987,2.509-1.365,3.017-1.023.865.584-2.725,4.922-5.681,5.464Z" transform="translate(-173.067 -239.014)"/></g><g transform="translate(193.137 289.276)"><path class="k" d="M152.611,233.106a3.3,3.3,0,0,1-.206-2.748l1.927.365,2.658-2.425-2.027-5.247s-1,4.35-4.218,2.989c0,0-1.394.556-.465,2.038,0,0-.362,2.8-1.327,3.07A11.114,11.114,0,0,1,152.611,233.106Z" transform="translate(-148.952 -223.051)"/></g><g transform="translate(163.606 297.261)"><path class="k" d="M165.24,234.611a7.078,7.078,0,0,0-4.835-6.131c-1.877-.586-4.316-.486-7.278,1.409a47.837,47.837,0,0,0-6.963,6.432c-3.221,3.546-11.607,32.009-13.6,37.768-1.082,2.619-5.189,14.674.183,17.513a4.682,4.682,0,0,0,4.986-.512,64.443,64.443,0,0,0,8.03-7.524c6.908-8.237,9.355-.45,9.355-.45S166.953,252.838,165.24,234.611Z" transform="translate(-130.04 -228.165)"/></g><g transform="translate(169.875 274.388)"><circle class="f" cx="5.199" cy="5.199" r="5.199"/></g><g transform="translate(186.259 314.06)"><path class="f" d="M153.42,260.123a.425.425,0,0,1-.294-.117c-.077-.07-7.63-7.238-8.578-20.617a.435.435,0,1,1,.868-.061c.924,13.02,8.228,19.972,8.3,20.041a.436.436,0,0,1,.02.615A.431.431,0,0,1,153.42,260.123Z" transform="translate(-144.547 -238.923)"/></g><path class="m" d="M250.562,176.083h7.847a12.142,12.142,0,0,1,12.141,12.143v12.7" transform="translate(101.244 39.85)"/><path class="m" d="M213.029,292.416h-7.847a12.142,12.142,0,0,1-12.141-12.143v-12.7" transform="translate(68.943 91.228)"/></g></svg>