<svg xmlns="http://www.w3.org/2000/svg" width="356.984" height="308.782" viewBox="0 0 356.984 308.782"><defs><style>.a{fill:#e9e2c3;}.b{fill:#fd5421;}.c{fill:#fbaf2c;}.d{opacity:0.72;}.e,.m{fill:none;stroke-linecap:round;stroke-width:0.6px;}.e{stroke:#070307;}.e,.f,.i,.m{stroke-miterlimit:10;}.f{stroke:#000;}.f,.i{stroke-width:0.25px;}.g{fill:#0a0d2c;}.h{fill:#314581;}.i,.l{fill:#fff;}.i,.m{stroke:#fff;}.j{fill:#233862;}.k{fill:#070307;}</style></defs><g transform="translate(0.3)"><g transform="translate(0.603)"><path class="a" d="M485.659,586.9s-46.4-119.481,68.679-195.948c0,0,19.526,25.148,13.835,36.46,0,0,81.875-132.6,199.481-139.92,0,0,33.327,68.409,2.833,128.127,0,0,25.727,8.822,35.833-25.849,0,0,17.458,88.736-35.833,168.193,0,0,26.53,5.163,28.253,28.938Z" transform="translate(-476.412 -287.493)"/></g><g transform="translate(320.9 270.43)"><path class="b" d="M711.232,507.288s8.813-17.982,21.123-20.05l.061,4.168,2.26-5.036a37.666,37.666,0,0,1,12.339-.181s-1.345,10.692-9.68,22.156l-6.861-1.567,5.061,3.928S729.884,523.3,712.7,522.715Z" transform="translate(-711.232 -485.754)"/></g><g transform="translate(299.027 276.93)"><g transform="translate(0 0)"><path class="c" d="M728.877,521.007s4.833-11.542-7.153-18.928c0,0-2.034,2.429-1.44,3.522,0,0-9.492-14.375-21.741-15.082,0,0-3.255,7.636.67,13.943,0,0-2.68.853-3.732-2.5a22.169,22.169,0,0,0,3.732,16.248s-2.763.5-2.944,2.795Z" transform="translate(-695.196 -490.519)"/></g><g class="d" transform="translate(0.259 0)"><g transform="translate(1.823)"><path class="c" d="M700.841,501.209a20.145,20.145,0,0,0-3.512.312,17.96,17.96,0,0,1,.659-11c12.249.707,21.741,15.082,21.741,15.082-.593-1.093,1.44-3.522,1.44-3.522,11.986,7.386,7.153,18.928,7.153,18.928h-7.372A20.113,20.113,0,0,0,700.841,501.209Z" transform="translate(-696.723 -490.519)"/></g><g transform="translate(0 11.445)"><path class="c" d="M695.386,499.048c.015-.087.026-.138.026-.138.012.042.03.076.044.117Z" transform="translate(-695.386 -498.91)"/></g></g></g><g transform="translate(8.508 73.882)"><circle class="b" cx="84.103" cy="84.103" r="84.103"/></g><g transform="translate(0 67.395)"><circle class="e" cx="84.513" cy="84.513" r="84.513"/></g><g transform="translate(63.246 121.583)"><path class="c" d="M543.9,427.962a8.279,8.279,0,0,0-3.155.612,7.662,7.662,0,0,0-4.275,4.276,8.433,8.433,0,0,0,0,6.31,7.733,7.733,0,0,0,4.278,4.276,8.473,8.473,0,0,0,6.3,0,7.764,7.764,0,0,0,2.574-1.7,7.842,7.842,0,0,0,1.706-2.575,8.434,8.434,0,0,0,0-6.307,7.941,7.941,0,0,0-1.705-2.581,7.8,7.8,0,0,0-2.574-1.7A8.265,8.265,0,0,0,543.9,427.962Zm-6.453-6.394h12.9v-2.147a8.068,8.068,0,0,1,.8-3.429,10.209,10.209,0,0,1,3.07-3.486,60.448,60.448,0,0,0,5.526-4.773,25.1,25.1,0,0,0,3.475-4.258,14.677,14.677,0,0,0,1.851-4.19,19.331,19.331,0,0,0,.546-4.774,17.49,17.49,0,0,0-1.63-7.714,16.335,16.335,0,0,0-4.433-5.614,19.472,19.472,0,0,0-6.506-3.4,26.736,26.736,0,0,0-7.933-1.149c-6.39,0-11.687,1.705-15.743,5.067-3.922,3.249-6.287,8.007-7.036,14.148l13.275.862a9.96,9.96,0,0,1,2.672-5.684c1.631-1.735,4.025-2.613,7.115-2.613a7.5,7.5,0,0,1,5.208,1.878,6.756,6.756,0,0,1,2.109,5.253,6.343,6.343,0,0,1-.971,3.339,19.231,19.231,0,0,1-2.56,3.2c-1.1,1.125-2.388,2.318-3.837,3.545s-3.05,2.7-4.793,4.381a9.335,9.335,0,0,0-2.394,3.443,12.969,12.969,0,0,0-.713,4.575Z" transform="translate(-522.337 -376.629)"/></g><g transform="translate(263.844 62.356)"><path class="f" d="M690.586,333.514H669.555a.153.153,0,1,1,0-.306h21.032a.153.153,0,1,1,0,.306Z" transform="translate(-669.402 -333.208)"/><g transform="translate(0 2.373)"><path class="f" d="M690.586,335.254H669.555a.153.153,0,1,1,0-.306h21.032a.153.153,0,1,1,0,.306Z" transform="translate(-669.402 -334.948)"/></g><g transform="translate(0 4.747)"><path class="f" d="M690.586,336.992H669.555a.152.152,0,1,1,0-.3h21.032a.152.152,0,1,1,0,.3Z" transform="translate(-669.402 -336.688)"/></g></g><g transform="translate(8.802 264.016)"><path class="f" d="M503.609,481.357H482.576a.153.153,0,1,1,0-.306h21.033a.153.153,0,0,1,0,.306Z" transform="translate(-482.423 -481.051)"/><g transform="translate(0 2.373)"><path class="f" d="M503.609,483.1H482.576a.153.153,0,0,1,0-.306h21.033a.153.153,0,0,1,0,.306Z" transform="translate(-482.423 -482.791)"/></g><g transform="translate(0 4.747)"><path class="f" d="M503.609,484.835H482.576a.152.152,0,1,1,0-.3h21.033a.152.152,0,1,1,0,.3Z" transform="translate(-482.423 -484.531)"/></g></g><g transform="translate(148.334 188.79)"><path class="g" d="M762.5,442.9c0,9.384-7.393,17.009-16.477,17.009H584.718v-1.3a15.715,15.715,0,0,0,0-31.413v-1.3H746.026A16.763,16.763,0,0,1,762.5,442.9Z" transform="translate(-584.718 -425.901)"/></g><g transform="translate(128.883 222.795)"><path class="h" d="M754.037,466.259a17.021,17.021,0,0,1-16.925,18.59H570.458v-1.3a15.713,15.713,0,0,0,0-31.427v-1.3h166.1C745.443,450.831,753.235,457.414,754.037,466.259Z" transform="translate(-570.458 -450.831)"/></g><g transform="translate(141.814 256.813)"><path class="g" d="M769.972,475.771v1.3a24.689,24.689,0,0,0,0,49.377v1.3H605.922a26.011,26.011,0,0,1-25.967-26.953c.516-14.085,12.561-25.016,26.656-25.016Z" transform="translate(-579.938 -475.771)"/></g><g transform="translate(166.924 279.821)"><path class="i" d="M619.143,492.968H598.512a.164.164,0,1,1,0-.329h20.631a.164.164,0,1,1,0,.329Z" transform="translate(-598.347 -492.639)"/><g transform="translate(0 3.055)"><path class="i" d="M619.143,495.209H598.512a.165.165,0,1,1,0-.33h20.631a.165.165,0,0,1,0,.33Z" transform="translate(-598.347 -494.879)"/></g><g transform="translate(0 6.112)"><path class="i" d="M619.143,497.45H598.512a.165.165,0,1,1,0-.33h20.631a.165.165,0,0,1,0,.33Z" transform="translate(-598.347 -497.12)"/></g></g><path class="b" d="M693.584,426.81l-6.493,17.473-11.253,28.262-7.379-1.841s5.388-37.074,7.623-43.335c.164-.454,2.8-7.884,4.189-9.534C687.078,409.787,693.584,426.81,693.584,426.81Z" transform="translate(-405.901 -240.834)"/><path class="j" d="M672.889,430.119c.368-1.651.75-3.274,1.173-4.8C673.666,426.8,673.271,428.428,672.889,430.119Z" transform="translate(-404.289 -237.323)"/><path class="b" d="M739.4,467.87l-6.343,4.2s-27.717-30.649-31.768-36.61c-3.833-5.62-6.384-10-9.48-9.371a32.238,32.238,0,0,0-3.887,1.773,22.453,22.453,0,0,1-9.79,7.6H658.515c-6.6,0-13.466.014-13.466.014h-.382a4.482,4.482,0,0,1-4.46-3c-4.747-12.276.344-31.536.344-31.536L666.876,403l2.551,4.2c12.181-2.387,24.32-4.147,28.576-2.769C707.592,407.526,739.4,467.87,739.4,467.87Z" transform="translate(-416.922 -246.197)"/><path class="k" d="M670.245,387.237c-9.375,5.161-28.392,15.862-28.491,15.793,0,0-6.989,2.634-10.954,0-6.61-4.389-10.154-16.2,1.933-26.369,6.029-5.07,10.311-6.3,10.963-14.4.352-4.392,6.356-18.887,16.331-17.547.835.112,5.965.352,9.338,2.122C677.958,351.349,684.3,385.239,670.245,387.237Z" transform="translate(-421.815 -266.695)"/><path class="l" d="M654.2,372.81c.024.016-2.761.967-4.623.142-1.751-.773-3.079-3.656-3.053-3.658.8-.037,1.672-.732,2.346-5.3l.338.121,5.707,2.053s-.415,1.832-.682,3.575C654.012,371.2,653.892,372.6,654.2,372.81Z" transform="translate(-413.885 -259.647)"/><path class="l" d="M655.1,371.146s-9.376-1.258-8.5-7.085.252-9.914,6.276-9.357,6.85,2.954,7.031,4.97S657.562,371.324,655.1,371.146Z" transform="translate(-413.88 -263.045)"/><path class="k" d="M665.644,352.641s-8.351,7.2-14.03,7.776-7.829-1.244-7.829-1.244a22.188,22.188,0,0,0,5.362-7.265,3.992,3.992,0,0,1,3.293-2.354C656.494,349.2,664.183,349.044,665.644,352.641Z" transform="translate(-414.883 -264.965)"/><path class="l" d="M670.736,393.6c-.394,26.406-.108,20.888-3,23.393-.7.6-2.653.963-5.228,1.134-8.1.537-22.329-.8-22.87-2.293-1.867-5.178-.548-6.786-2.107-14.712-.162-.843-.363-1.755-.6-2.749-1.3-5.445-2.564-7.3,2.045-16.043,4.181-7.922,11.084-14.669,11.48-14.446,6.7,3.789,7.584,1.368,7.584,1.368S670.929,380.718,670.736,393.6Z" transform="translate(-417.815 -258.233)"/><path class="l" d="M652.088,368.881s13.114,1.923,14.446,6.809,9.174,33.607,9.174,33.607-5.768,1.037-8.434-1.629S658,382.944,658,382.944Z" transform="translate(-411.861 -257.866)"/><path class="l" d="M654.12,367.878s-13.3.981-17.012,6.16c-5.227,7.289-15.595,38.356-9.653,42.5,6.692,4.666,32.05,1.1,32.05,1.1a5.718,5.718,0,0,0-.424-4.108c-1.1-1.788-20.46-5.929-21.285-6.755s10.316-16.093,10.316-18.568S654.12,367.878,654.12,367.878Z" transform="translate(-421.477 -258.231)"/><g transform="translate(235.42 132.822)"><path class="h" d="M657.277,413.664H695.77l11.579-28.794H668.916Z" transform="translate(-645.392 -384.869)"/><path class="h" d="M699.393,405.157H648.563v1.122h50.378Z" transform="translate(-648.563 -377.484)"/><path class="h" d="M679.372,395.913a1.334,1.334,0,0,0-1.308-1.832,2.626,2.626,0,0,0-2.358,1.832,1.335,1.335,0,0,0,1.308,1.833A2.628,2.628,0,0,0,679.372,395.913Z" transform="translate(-638.71 -381.516)"/></g><g transform="translate(237.553 154.739)"><path class="k" d="M650.284,405.508s5.2,3.409,6.319-.671c.537-1.955,4.044-.172,4.412-.958.625-1.339-6.9-3.994-10.889-2.5Z" transform="translate(-650.127 -400.937)"/></g><path class="e" d="M640.169,387.568s-2.661,7.546-5.321,10.716" transform="translate(-418.136 -251.064)"/><path class="m" d="M694.055,433.567c-4.711-5.332-9.867-13.831-12-14.157-2.638-.4-4.624,1.615-5.782,2.62a49.113,49.113,0,0,1-7.816,6.026" transform="translate(-405.901 -239.492)"/><g transform="translate(315.745 218.39)"><g transform="translate(0 3.289)"><path class="k" d="M707.841,454.211l-.389,4.467c.127,1.559,1.87,2.313,3.51,1.518l14.8-7.175c1.322-.64,1.305-2.342-.023-2.533l-11.557-.476Z" transform="translate(-707.452 -450.013)"/></g><g transform="translate(0.971)"><path class="k" d="M713.62,448.107a.5.5,0,0,1-.2.186l-4.726,2.353a.354.354,0,0,1-.5-.135.425.425,0,0,1,.244-.506l4.725-2.353a.356.356,0,0,1,.506.134A.351.351,0,0,1,713.62,448.107Z" transform="translate(-708.164 -447.601)"/></g></g><g transform="translate(258.477 227.032)"><g transform="translate(0 2.841)"><path class="k" d="M669.552,456.02l-3.559,2.727c-1.065,1.146-.445,2.941,1.248,3.615l15.282,6.081c1.364.543,2.609-.618,1.854-1.727l-7.449-8.851Z" transform="translate(-665.467 -456.02)"/></g><g transform="translate(7.845 0)"><path class="k" d="M676.687,456.523a.518.518,0,0,1-.274-.026l-4.925-1.9a.355.355,0,0,1-.241-.464.425.425,0,0,1,.537-.162l4.925,1.9a.354.354,0,0,1,.243.464A.359.359,0,0,1,676.687,456.523Z" transform="translate(-671.219 -453.937)"/></g></g><g transform="translate(229.298 85.112)"><path class="b" d="M654.5,349.891c-5.743,0-10.421,4.324-10.421,9.645,0,5.018,4.147,9.152,9.425,9.6v-.668c-4.9-.462-8.743-4.3-8.743-8.933,0-4.938,4.378-8.963,9.739-8.963s9.739,4.025,9.739,8.963a8.245,8.245,0,0,1-.887,3.736h.764a9.091,9.091,0,0,0,.8-3.736C664.917,354.215,660.252,349.891,654.5,349.891Z" transform="translate(-644.075 -349.891)"/></g><ellipse class="b" cx="4.03" cy="1.393" rx="4.03" ry="1.393" transform="matrix(0.133, -0.991, 0.991, 0.133, 228.793, 100.84)"/><path class="k" d="M653.75,355.291a20.545,20.545,0,0,1,4.059,4.376c1.011,1.854,1.657,6.44,1.139,8.326,0,0,3.617-8.8.813-12.689C656.788,351.182,653.75,355.291,653.75,355.291Z" transform="translate(-411.256 -263.477)"/></g></svg>