<svg xmlns="http://www.w3.org/2000/svg" width="1568.929" height="668" viewBox="0 0 1568.929 668"><defs><style>.a{fill:rgba(64,95,189,0.1);}.b{fill:#fcaf3a;stroke:rgba(0,0,0,0);stroke-miterlimit:10;}.b,.c{opacity:0.603;}.c{fill:#fd5421;}</style></defs><g transform="translate(0 -2824)"><rect class="a" width="1366" height="668" transform="translate(0 2824)"/><path class="b" d="M-1213.764,220.838a96.472,96.472,0,0,1-19.3-1.946,95.283,95.283,0,0,1-17.976-5.58,95.778,95.778,0,0,1-16.267-8.83,96.46,96.46,0,0,1-14.173-11.694,96.461,96.461,0,0,1-11.694-14.173,95.791,95.791,0,0,1-8.83-16.267,95.288,95.288,0,0,1-5.58-17.976,96.476,96.476,0,0,1-1.946-19.3c0-1.186.022-2.388.066-3.573h30.223c-.063,1.177-.1,2.379-.1,3.573a65.163,65.163,0,0,0,5.153,25.524,65.572,65.572,0,0,0,6.046,11.139,66.042,66.042,0,0,0,8.007,9.7,66.044,66.044,0,0,0,9.7,8.007,65.578,65.578,0,0,0,11.138,6.046,65.163,65.163,0,0,0,25.524,5.153,65.161,65.161,0,0,0,25.524-5.153,65.577,65.577,0,0,0,11.138-6.046,66.037,66.037,0,0,0,9.7-8.007,66.036,66.036,0,0,0,8.007-9.7,65.578,65.578,0,0,0,6.046-11.139,65.163,65.163,0,0,0,5.153-25.524c0-1.187-.032-2.39-.1-3.573h30.223c.044,1.194.065,2.4.065,3.573a96.469,96.469,0,0,1-1.946,19.3,95.29,95.29,0,0,1-5.58,17.976,95.787,95.787,0,0,1-8.829,16.267,96.463,96.463,0,0,1-11.694,14.173,96.454,96.454,0,0,1-14.173,11.694,95.775,95.775,0,0,1-16.267,8.83,95.28,95.28,0,0,1-17.976,5.58A96.47,96.47,0,0,1-1213.764,220.838Z" transform="translate(1353 2703)"/><path class="c" d="M929.905-388.823A118.729,118.729,0,0,0,811.176-270.094,118.729,118.729,0,0,0,929.905-151.365a118.729,118.729,0,0,0,118.73-118.729A118.729,118.729,0,0,0,929.905-388.823Zm0,200.027a81.3,81.3,0,0,1-81.3-81.3,81.3,81.3,0,0,1,81.3-81.3,81.3,81.3,0,0,1,81.3,81.3A81.3,81.3,0,0,1,929.905-188.8Z" transform="translate(520.294 3527.823)"/></g></svg>