<svg xmlns="http://www.w3.org/2000/svg" xmlns:xlink="http://www.w3.org/1999/xlink" width="1366" height="764" viewBox="0 0 1366 764"><defs><style>.a{fill:#fff;}.b{fill:#405fbd;}.c{clip-path:url(#a);}.d{fill:none;stroke:#fb5521;stroke-miterlimit:10;stroke-width:3px;}.e{fill:#e9e3bf;opacity:0.196;}</style><clipPath id="a"><rect class="a" width="1366" height="764"/></clipPath></defs><g transform="translate(-821.867 -218.252)"><path class="b" d="M882.5,538.9a4.652,4.652,0,1,1-4.652-4.652A4.652,4.652,0,0,1,882.5,538.9Z"/><path class="b" d="M913.306,538.9a4.652,4.652,0,1,1-4.652-4.652A4.652,4.652,0,0,1,913.306,538.9Z"/><path class="b" d="M944.109,538.9a4.652,4.652,0,1,1-4.652-4.652A4.652,4.652,0,0,1,944.109,538.9Z"/><path class="b" d="M974.913,538.9a4.653,4.653,0,1,1-4.653-4.652A4.653,4.653,0,0,1,974.913,538.9Z"/><path class="b" d="M1005.716,538.9a4.652,4.652,0,1,1-4.652-4.652A4.652,4.652,0,0,1,1005.716,538.9Z"/><path class="b" d="M1036.519,538.9a4.652,4.652,0,1,1-4.652-4.652A4.652,4.652,0,0,1,1036.519,538.9Z"/><path class="b" d="M1067.323,538.9a4.652,4.652,0,1,1-4.652-4.652A4.652,4.652,0,0,1,1067.323,538.9Z"/><path class="b" d="M1098.126,538.9a4.652,4.652,0,1,1-4.652-4.652A4.652,4.652,0,0,1,1098.126,538.9Z"/><path class="b" d="M1128.93,538.9a4.652,4.652,0,1,1-4.652-4.652A4.652,4.652,0,0,1,1128.93,538.9Z"/><path class="b" d="M898.108,563.29a4.652,4.652,0,1,1-4.652-4.652A4.652,4.652,0,0,1,898.108,563.29Z"/><circle class="b" cx="4.652" cy="4.652" r="4.652" transform="translate(919.608 558.638)"/><circle class="b" cx="4.652" cy="4.652" r="4.652" transform="translate(950.411 558.638)"/><path class="b" d="M990.519,563.29a4.652,4.652,0,1,1-4.652-4.652A4.652,4.652,0,0,1,990.519,563.29Z"/><path class="b" d="M1021.322,563.29a4.652,4.652,0,1,1-4.652-4.652A4.652,4.652,0,0,1,1021.322,563.29Z"/><path class="b" d="M1052.126,563.29a4.652,4.652,0,1,1-4.652-4.652A4.652,4.652,0,0,1,1052.126,563.29Z"/><circle class="b" cx="4.652" cy="4.652" r="4.652" transform="translate(1073.625 558.638)"/><circle class="b" cx="4.652" cy="4.652" r="4.652" transform="translate(1104.428 558.638)"/><path class="b" d="M1144.536,563.29a4.652,4.652,0,1,1-4.652-4.652A4.652,4.652,0,0,1,1144.536,563.29Z"/></g><g class="c"><g transform="translate(1215.073 630.99) rotate(-90)"><path class="d" d="M371.279,176.016s-55.785-25.38-45.868-88.084C336.531,17.624,272.106-12.594,228.1,4.824S187.141,86.811,103.512,88.8C18,90.825,0,172.035,0,172.035" transform="translate(0 0)"/><path class="d" d="M271.486,162.213s-24.174-53.594-15.5-106.919S225.656-4.267,210.123,1.969c-32.231,12.939-38.43,82.113-90.5,86.592C80.488,91.927,27.892,65.17,0,125.884" transform="translate(35.331 32.714)"/><path class="d" d="M214.732,46.171s8.706-54.78-29.752-45C140.9,12.378,141.592,38.706,85.808,13.823,65.966,4.973-13.985,2.378,2.131,51.147" transform="translate(66.051 124.869)"/><ellipse class="d" cx="16.735" cy="24.634" rx="16.735" ry="24.634" transform="translate(236.156 53.593)"/></g><path class="e" d="M968.769-388.823A157.593,157.593,0,0,0,811.176-231.23,157.593,157.593,0,0,0,968.769-73.637,157.593,157.593,0,0,0,1126.363-231.23,157.593,157.593,0,0,0,968.769-388.823Zm0,265.5A107.909,107.909,0,0,1,860.861-231.23,107.909,107.909,0,0,1,968.769-339.139,107.909,107.909,0,0,1,1076.678-231.23,107.909,107.909,0,0,1,968.769-123.321Z" transform="translate(-29.6 901.707)"/></g></svg>