<svg xmlns="http://www.w3.org/2000/svg" xmlns:xlink="http://www.w3.org/1999/xlink" width="1430.669" height="768" viewBox="0 0 1430.669 768"><defs><style>.a{fill:#fff;}.b{clip-path:url(#a);}.c{fill:none;stroke:#fcaf3a;stroke-miterlimit:10;stroke-width:3px;}.d,.e{fill:#405fbd;}.d{opacity:0.204;}</style><clipPath id="a"><rect class="a" width="1366" height="768"/></clipPath></defs><g class="b"><g transform="translate(58.427 695.008) rotate(-90)"><path class="c" d="M549.3-58.026S503.292-37.095,511.47,14.617c9.17,57.982-43.961,82.9-80.255,68.539S397.439,15.541,328.469,13.9C257.952,12.231,243.1-54.743,243.1-54.743" transform="translate(0 -15.732)"/><path class="c" d="M525.527-89.354s-19.936,44.2-12.78,88.176S487.731,47.942,474.921,42.8c-26.581-10.67-31.693-67.718-74.632-71.412-32.278-2.776-75.654,19.29-98.657-30.781" transform="translate(-29.392 0)"/><path class="c" d="M529.614-53.922s7.18,45.177-24.536,37.113c-36.353-9.244-35.782-30.957-81.788-10.436-16.364,7.3-82.3,9.439-69.009-30.781" transform="translate(-54.948 -15.732)"/><ellipse class="c" cx="13.802" cy="20.316" rx="13.802" ry="20.316" transform="translate(437.861 -13.427)"/></g><path class="d" d="M981.91-388.823A170.734,170.734,0,0,0,811.176-218.089,170.734,170.734,0,0,0,981.91-47.356a170.734,170.734,0,0,0,170.734-170.734A170.734,170.734,0,0,0,981.91-388.823Zm0,287.64A116.907,116.907,0,0,1,865-218.089,116.907,116.907,0,0,1,981.91-335a116.906,116.906,0,0,1,116.906,116.906A116.906,116.906,0,0,1,981.91-101.183Z" transform="translate(-392.741 1020.567)"/></g><g transform="translate(286.133 -377.252)"><path class="e" d="M882.5,538.9a4.652,4.652,0,1,1-4.652-4.652A4.652,4.652,0,0,1,882.5,538.9Z"/><path class="e" d="M913.306,538.9a4.652,4.652,0,1,1-4.652-4.652A4.652,4.652,0,0,1,913.306,538.9Z"/><path class="e" d="M944.109,538.9a4.652,4.652,0,1,1-4.652-4.652A4.652,4.652,0,0,1,944.109,538.9Z"/><path class="e" d="M974.913,538.9a4.653,4.653,0,1,1-4.653-4.652A4.653,4.653,0,0,1,974.913,538.9Z"/><path class="e" d="M1005.716,538.9a4.652,4.652,0,1,1-4.652-4.652A4.652,4.652,0,0,1,1005.716,538.9Z"/><path class="e" d="M1036.519,538.9a4.652,4.652,0,1,1-4.652-4.652A4.652,4.652,0,0,1,1036.519,538.9Z"/><path class="e" d="M1067.323,538.9a4.652,4.652,0,1,1-4.652-4.652A4.652,4.652,0,0,1,1067.323,538.9Z"/><path class="e" d="M1098.126,538.9a4.652,4.652,0,1,1-4.652-4.652A4.652,4.652,0,0,1,1098.126,538.9Z"/><path class="e" d="M1128.93,538.9a4.652,4.652,0,1,1-4.652-4.652A4.652,4.652,0,0,1,1128.93,538.9Z"/><path class="e" d="M898.108,563.29a4.652,4.652,0,1,1-4.652-4.652A4.652,4.652,0,0,1,898.108,563.29Z"/><circle class="e" cx="4.652" cy="4.652" r="4.652" transform="translate(919.608 558.638)"/><circle class="e" cx="4.652" cy="4.652" r="4.652" transform="translate(950.411 558.638)"/><path class="e" d="M990.519,563.29a4.652,4.652,0,1,1-4.652-4.652A4.652,4.652,0,0,1,990.519,563.29Z"/><path class="e" d="M1021.322,563.29a4.652,4.652,0,1,1-4.652-4.652A4.652,4.652,0,0,1,1021.322,563.29Z"/><path class="e" d="M1052.126,563.29a4.652,4.652,0,1,1-4.652-4.652A4.652,4.652,0,0,1,1052.126,563.29Z"/><circle class="e" cx="4.652" cy="4.652" r="4.652" transform="translate(1073.625 558.638)"/><circle class="e" cx="4.652" cy="4.652" r="4.652" transform="translate(1104.428 558.638)"/><path class="e" d="M1144.536,563.29a4.652,4.652,0,1,1-4.652-4.652A4.652,4.652,0,0,1,1144.536,563.29Z"/></g></svg>