<svg xmlns="http://www.w3.org/2000/svg" xmlns:xlink="http://www.w3.org/1999/xlink" width="1422.669" height="1089" viewBox="0 0 1422.669 1089"><defs><style>.a{fill:#fff;}.b{fill:#405fbd;}.c{clip-path:url(#a);}.d{opacity:0.3;}.e{fill:none;stroke:#fb5521;stroke-miterlimit:10;stroke-width:3px;}.f{fill:#fd5421;opacity:0.204;}</style><clipPath id="a"><rect class="a" width="1366" height="1089"/></clipPath></defs><g transform="translate(278.133 -275.252)"><path class="b" d="M882.5,538.9a4.652,4.652,0,1,1-4.652-4.652A4.652,4.652,0,0,1,882.5,538.9Z"/><path class="b" d="M913.306,538.9a4.652,4.652,0,1,1-4.652-4.652A4.652,4.652,0,0,1,913.306,538.9Z"/><path class="b" d="M944.109,538.9a4.652,4.652,0,1,1-4.652-4.652A4.652,4.652,0,0,1,944.109,538.9Z"/><path class="b" d="M974.913,538.9a4.653,4.653,0,1,1-4.653-4.652A4.653,4.653,0,0,1,974.913,538.9Z"/><path class="b" d="M1005.716,538.9a4.652,4.652,0,1,1-4.652-4.652A4.652,4.652,0,0,1,1005.716,538.9Z"/><path class="b" d="M1036.519,538.9a4.652,4.652,0,1,1-4.652-4.652A4.652,4.652,0,0,1,1036.519,538.9Z"/><path class="b" d="M1067.323,538.9a4.652,4.652,0,1,1-4.652-4.652A4.652,4.652,0,0,1,1067.323,538.9Z"/><path class="b" d="M1098.126,538.9a4.652,4.652,0,1,1-4.652-4.652A4.652,4.652,0,0,1,1098.126,538.9Z"/><path class="b" d="M1128.93,538.9a4.652,4.652,0,1,1-4.652-4.652A4.652,4.652,0,0,1,1128.93,538.9Z"/><path class="b" d="M898.108,563.29a4.652,4.652,0,1,1-4.652-4.652A4.652,4.652,0,0,1,898.108,563.29Z"/><circle class="b" cx="4.652" cy="4.652" r="4.652" transform="translate(919.608 558.638)"/><circle class="b" cx="4.652" cy="4.652" r="4.652" transform="translate(950.411 558.638)"/><path class="b" d="M990.519,563.29a4.652,4.652,0,1,1-4.652-4.652A4.652,4.652,0,0,1,990.519,563.29Z"/><path class="b" d="M1021.322,563.29a4.652,4.652,0,1,1-4.652-4.652A4.652,4.652,0,0,1,1021.322,563.29Z"/><path class="b" d="M1052.126,563.29a4.652,4.652,0,1,1-4.652-4.652A4.652,4.652,0,0,1,1052.126,563.29Z"/><circle class="b" cx="4.652" cy="4.652" r="4.652" transform="translate(1073.625 558.638)"/><circle class="b" cx="4.652" cy="4.652" r="4.652" transform="translate(1104.428 558.638)"/><path class="b" d="M1144.536,563.29a4.652,4.652,0,1,1-4.652-4.652A4.652,4.652,0,0,1,1144.536,563.29Z"/></g><g class="c"><g class="d" transform="translate(-0.573 1023.093) rotate(-90)"><path class="e" d="M614.382-58.026S558.6-32.646,568.514,30.058c11.12,70.307-53.305,100.526-97.313,83.108S430.244,31.179,346.615,29.194C261.108,27.165,243.1-54.045,243.1-54.045" transform="translate(0 -12.417)"/><path class="e" d="M573.118-89.354s-24.174,53.594-15.5,106.919S527.288,77.126,511.755,70.89c-32.231-12.939-38.43-82.113-90.5-86.592-39.139-3.367-91.735,23.39-119.627-37.324" transform="translate(-23.198 0)"/><path class="e" d="M567.256-53.05s8.706,54.78-29.752,45C493.423-19.256,494.116-45.585,438.331-20.7c-19.842,8.85-99.793,11.446-83.677-37.324" transform="translate(-43.369 -12.417)"/><ellipse class="e" cx="16.735" cy="24.634" rx="16.735" ry="24.634" transform="translate(479.259 2.712)"/></g><path class="f" d="M947.539-388.823A136.363,136.363,0,0,0,811.176-252.46,136.363,136.363,0,0,0,947.539-116.1,136.363,136.363,0,0,0,1083.9-252.46,136.363,136.363,0,0,0,947.539-388.823Zm0,229.735a93.372,93.372,0,0,1-93.372-93.372,93.372,93.372,0,0,1,93.372-93.372,93.372,93.372,0,0,1,93.372,93.372A93.372,93.372,0,0,1,947.539-159.088Z" transform="translate(-896.37 289.938)"/></g></svg>