<svg xmlns="http://www.w3.org/2000/svg" width="1366" height="553.646" viewBox="0 0 1366 553.646"><defs><style>.a{fill:rgba(64,95,189,0.1);}.b{fill:#405fbd;opacity:0.603;}.c{fill:#fd5421;}</style></defs><g transform="translate(0 -1634)"><rect class="a" width="1366" height="393" transform="translate(0 1634)"/><path class="b" d="M967.845-388.823A156.669,156.669,0,0,0,811.176-232.154,156.669,156.669,0,0,0,967.845-75.485a156.669,156.669,0,0,0,156.669-156.669A156.669,156.669,0,0,0,967.845-388.823Zm0,263.945A107.276,107.276,0,0,1,860.569-232.154,107.276,107.276,0,0,1,967.845-339.43a107.276,107.276,0,0,1,107.276,107.276A107.276,107.276,0,0,1,967.845-124.878Z" transform="translate(102.485 2263.132)"/><g transform="translate(292.678 1191.748)"><path class="c" d="M882.5,538.9a4.652,4.652,0,1,1-4.652-4.652A4.652,4.652,0,0,1,882.5,538.9Z"/><path class="c" d="M913.306,538.9a4.652,4.652,0,1,1-4.652-4.652A4.652,4.652,0,0,1,913.306,538.9Z"/><path class="c" d="M944.109,538.9a4.652,4.652,0,1,1-4.652-4.652A4.652,4.652,0,0,1,944.109,538.9Z"/><path class="c" d="M974.913,538.9a4.653,4.653,0,1,1-4.653-4.652A4.653,4.653,0,0,1,974.913,538.9Z"/><path class="c" d="M1005.716,538.9a4.652,4.652,0,1,1-4.652-4.652A4.652,4.652,0,0,1,1005.716,538.9Z"/><path class="c" d="M898.108,563.29a4.652,4.652,0,1,1-4.652-4.652A4.652,4.652,0,0,1,898.108,563.29Z"/><circle class="c" cx="4.652" cy="4.652" r="4.652" transform="translate(919.608 558.638)"/><circle class="c" cx="4.652" cy="4.652" r="4.652" transform="translate(950.411 558.638)"/><path class="c" d="M990.519,563.29a4.652,4.652,0,1,1-4.652-4.652A4.652,4.652,0,0,1,990.519,563.29Z"/><path class="c" d="M1021.322,563.29a4.652,4.652,0,1,1-4.652-4.652A4.652,4.652,0,0,1,1021.322,563.29Z"/></g></g></svg>