<svg xmlns="http://www.w3.org/2000/svg" width="271.338" height="33.69" viewBox="0 0 271.338 33.69"><defs><style>.a{fill:#fd5421;}</style></defs><path class="a" d="M882.5,538.9a4.652,4.652,0,1,1-4.652-4.652A4.652,4.652,0,0,1,882.5,538.9Z" transform="translate(-873.198 -534.252)"/><path class="a" d="M913.306,538.9a4.652,4.652,0,1,1-4.652-4.652A4.652,4.652,0,0,1,913.306,538.9Z" transform="translate(-873.198 -534.252)"/><path class="a" d="M944.109,538.9a4.652,4.652,0,1,1-4.652-4.652A4.652,4.652,0,0,1,944.109,538.9Z" transform="translate(-873.198 -534.252)"/><path class="a" d="M974.913,538.9a4.653,4.653,0,1,1-4.653-4.652A4.653,4.653,0,0,1,974.913,538.9Z" transform="translate(-873.198 -534.252)"/><path class="a" d="M1005.716,538.9a4.652,4.652,0,1,1-4.652-4.652A4.652,4.652,0,0,1,1005.716,538.9Z" transform="translate(-873.198 -534.252)"/><path class="a" d="M1036.519,538.9a4.652,4.652,0,1,1-4.652-4.652A4.652,4.652,0,0,1,1036.519,538.9Z" transform="translate(-873.198 -534.252)"/><path class="a" d="M1067.323,538.9a4.652,4.652,0,1,1-4.652-4.652A4.652,4.652,0,0,1,1067.323,538.9Z" transform="translate(-873.198 -534.252)"/><path class="a" d="M1098.126,538.9a4.652,4.652,0,1,1-4.652-4.652A4.652,4.652,0,0,1,1098.126,538.9Z" transform="translate(-873.198 -534.252)"/><path class="a" d="M1128.93,538.9a4.652,4.652,0,1,1-4.652-4.652A4.652,4.652,0,0,1,1128.93,538.9Z" transform="translate(-873.198 -534.252)"/><path class="a" d="M898.108,563.29a4.652,4.652,0,1,1-4.652-4.652A4.652,4.652,0,0,1,898.108,563.29Z" transform="translate(-873.198 -534.252)"/><circle class="a" cx="4.652" cy="4.652" r="4.652" transform="translate(46.409 24.386)"/><circle class="a" cx="4.652" cy="4.652" r="4.652" transform="translate(77.213 24.386)"/><path class="a" d="M990.519,563.29a4.652,4.652,0,1,1-4.652-4.652A4.652,4.652,0,0,1,990.519,563.29Z" transform="translate(-873.198 -534.252)"/><path class="a" d="M1021.322,563.29a4.652,4.652,0,1,1-4.652-4.652A4.652,4.652,0,0,1,1021.322,563.29Z" transform="translate(-873.198 -534.252)"/><path class="a" d="M1052.126,563.29a4.652,4.652,0,1,1-4.652-4.652A4.652,4.652,0,0,1,1052.126,563.29Z" transform="translate(-873.198 -534.252)"/><circle class="a" cx="4.652" cy="4.652" r="4.652" transform="translate(200.427 24.386)"/><circle class="a" cx="4.652" cy="4.652" r="4.652" transform="translate(231.23 24.386)"/><path class="a" d="M1144.536,563.29a4.652,4.652,0,1,1-4.652-4.652A4.652,4.652,0,0,1,1144.536,563.29Z" transform="translate(-873.198 -534.252)"/></svg>