<svg xmlns="http://www.w3.org/2000/svg" width="132.518" height="33.69" viewBox="0 0 132.518 33.69"><defs><style>.a{fill:#405fbd;}</style></defs><path class="a" d="M1036.519,538.9a4.652,4.652,0,1,1-4.652-4.652A4.652,4.652,0,0,1,1036.519,538.9Z" transform="translate(-1012.018 -534.252)"/><path class="a" d="M1067.323,538.9a4.652,4.652,0,1,1-4.652-4.652A4.652,4.652,0,0,1,1067.323,538.9Z" transform="translate(-1012.018 -534.252)"/><path class="a" d="M1098.126,538.9a4.652,4.652,0,1,1-4.652-4.652A4.652,4.652,0,0,1,1098.126,538.9Z" transform="translate(-1012.018 -534.252)"/><path class="a" d="M1128.93,538.9a4.652,4.652,0,1,1-4.652-4.652A4.652,4.652,0,0,1,1128.93,538.9Z" transform="translate(-1012.018 -534.252)"/><path class="a" d="M1021.322,563.29a4.652,4.652,0,1,1-4.652-4.652A4.652,4.652,0,0,1,1021.322,563.29Z" transform="translate(-1012.018 -534.252)"/><path class="a" d="M1052.126,563.29a4.652,4.652,0,1,1-4.652-4.652A4.652,4.652,0,0,1,1052.126,563.29Z" transform="translate(-1012.018 -534.252)"/><circle class="a" cx="4.652" cy="4.652" r="4.652" transform="translate(61.607 24.386)"/><circle class="a" cx="4.652" cy="4.652" r="4.652" transform="translate(92.41 24.386)"/><path class="a" d="M1144.536,563.29a4.652,4.652,0,1,1-4.652-4.652A4.652,4.652,0,0,1,1144.536,563.29Z" transform="translate(-1012.018 -534.252)"/></svg>