<svg xmlns="http://www.w3.org/2000/svg" xmlns:xlink="http://www.w3.org/1999/xlink" width="345.85" height="179.887" viewBox="0 0 345.85 179.887"><defs><style>.a,.n{fill:#fff;}.b{fill:#e9e2c3;}.c{fill:#314581;}.d{fill:#070307;}.e{fill:#0a0d2c;}.f{stroke:#000;stroke-width:0.25px;}.f,.o,.p{stroke-miterlimit:10;}.g{fill:#fbaf2c;}.h{opacity:0.16;fill:url(#a);}.h,.n{mix-blend-mode:multiply;isolation:isolate;}.i{fill:url(#b);}.j{fill:url(#c);}.k{fill:url(#d);}.l{fill:#fd5421;}.m{clip-path:url(#e);}.n{opacity:0.49;}.o,.p{fill:none;stroke-linecap:round;stroke-width:0.5px;}.o{stroke:#070307;}.p{stroke:#fff;}</style><linearGradient id="a" y1="0.5" x2="1" y2="0.5" gradientUnits="objectBoundingBox"><stop offset="0" stop-color="#394f95"/><stop offset="1" stop-color="#132650"/></linearGradient><linearGradient id="b" y1="0.5" x2="1" y2="0.5" gradientUnits="objectBoundingBox"><stop offset="0" stop-color="#f5ffff"/><stop offset="1" stop-color="#ebeefc"/></linearGradient><linearGradient id="c" y1="0.5" x2="1" y2="0.5" gradientUnits="objectBoundingBox"><stop offset="0" stop-color="#c75aff"/><stop offset="0.998" stop-color="#693ffb"/></linearGradient><linearGradient id="d" x1="0" y1="0.5" x2="1" y2="0.5" xlink:href="#c"/><clipPath id="e"><path class="a" d="M646.778,406.725s.621,3.522-1.451,5.8c0,0,4.144,2.072,5.8-.829,0,0-2.072-6.01-1.45-9.118S646.778,405.9,646.778,406.725Z"/></clipPath></defs><g transform="translate(-438.722 -351.539)"><path class="b" d="M611.647,351.539A172.925,172.925,0,0,0,438.722,524.464h345.85A172.925,172.925,0,0,0,611.647,351.539Z"/><path class="c" d="M10.211,0H171.156a10.211,10.211,0,0,1,10.211,10.211V109.73a0,0,0,0,1,0,0H0a0,0,0,0,1,0,0V10.211A10.211,10.211,0,0,1,10.211,0Z" transform="translate(520.979 414.605)"/><path class="d" d="M693.259,410.842H530.319a12.842,12.842,0,0,0-12.9,12.75v98.273h.43V423.592a12.411,12.411,0,0,1,12.47-12.33h162.94a12.409,12.409,0,0,1,12.46,12.33v98.273h.43V423.592A12.834,12.834,0,0,0,693.259,410.842Z"/><path class="e" d="M0,0H230.95a0,0,0,0,1,0,0V6.9a2.664,2.664,0,0,1-2.664,2.664H2.664A2.664,2.664,0,0,1,0,6.9V0A0,0,0,0,1,0,0Z" transform="translate(496.173 521.865)"/><path class="f" d="M747.608,426.234h-15.42a.112.112,0,0,1,0-.224h15.42a.112.112,0,0,1,0,.224Z"/><path class="f" d="M747.608,427.974h-15.42a.112.112,0,0,1,0-.224h15.42a.112.112,0,0,1,0,.224Z"/><path class="f" d="M747.608,429.713h-15.42a.112.112,0,0,1,0-.223h15.42a.112.112,0,1,1,0,.223Z"/><path class="f" d="M478.5,487.1h-15.42a.112.112,0,1,1,0-.223H478.5a.112.112,0,0,1,0,.223Z"/><path class="f" d="M478.5,488.836h-15.42a.111.111,0,1,1,0-.223H478.5a.111.111,0,0,1,0,.223Z"/><path class="f" d="M478.5,490.576h-15.42a.112.112,0,0,1,0-.224H478.5a.112.112,0,0,1,0,.224Z"/><path class="g" d="M696.811,360.622a16.674,16.674,0,0,0-26.469,19.7l-1.025,2.908-2.657,7.542,7.542-2.657,2.908-1.025a16.674,16.674,0,0,0,19.7-26.469Z"/><path class="a" d="M678.687,372.052a2.277,2.277,0,1,1-2.276-2.277A2.277,2.277,0,0,1,678.687,372.052Z"/><path class="a" d="M687.527,372.052a2.276,2.276,0,1,1-2.276-2.277A2.277,2.277,0,0,1,687.527,372.052Z"/><path class="a" d="M696.367,372.052a2.276,2.276,0,1,1-2.277-2.277A2.277,2.277,0,0,1,696.367,372.052Z"/><rect class="h" width="79.109" height="33.663" rx="3.049" transform="translate(555.388 476.25)"/><rect class="i" width="79.393" height="32.936" rx="3.213" transform="translate(552.159 478.85)"/><path class="e" d="M621.114,494.1c-1.879,4.563-7.784,7.515-9.663-.537s-6.443-5.637-7.248-2.684-3.512,7.518-5.637,2.415c-2.082-5-3.476-.659-4.026.806-.925,2.461-1.262-.745-2.684-.537-1.328.194-2.416,5.1-6.442,4.831s-2.953-6.979-7.516-9.931-6.711,4.563-11.006,7.247-3.757-4.026-6.442-4.3-4.294,8.858-4.294,8.858v6.244h70.532v-12.7C626.19,491.624,622.85,489.882,621.114,494.1Z"/><path class="j" d="M566.435,480.893a.565.565,0,1,1-.565-.565A.565.565,0,0,1,566.435,480.893Z"/><path class="k" d="M601.834,481.458a.565.565,0,1,1-.565-.565A.564.564,0,0,1,601.834,481.458Z"/><path class="l" d="M640.4,449.861s3.133,40.959,1.572,68.108c0,0,3.309,2.028,3.77.432s18.566-58.289,11.105-68.5S640.4,449.861,640.4,449.861Z"/><path class="l" d="M643.328,446.671s8.842,42.111,12.125,71.287c0,0,3.627,2.226,3.768.451s4.576-25.508,2.1-37.942c-.756-3.805,4.641-21.281,1.2-32.687a10.633,10.633,0,0,0-1.751-3.526C653.689,433.611,643.328,446.671,643.328,446.671Z"/><path class="d" d="M619,415.846s-.806-2.223-1.4-3.441c-.346-.706-1.042-2.958-1.982-2.739s.619,1.952.3,2.776c-.249.644-1.475.422-1.778,1.681s2.1,3.26,2.1,3.26"/><path class="a" d="M667.681,427.231a45.185,45.185,0,0,0-1.02-5.28c-2.56-10.13-12.15-12.791-13-12.97a.1.1,0,0,0-.05-.011c-4.32-1.079-6.02.271-6.02.271a5.174,5.174,0,0,0-.97.44,23.013,23.013,0,0,0-8.8,6.029c-1.978,2.16-9.33,13.8-9.33,13.8s-7.26-8.351-9.56-13.81l-2.7,1.68s4.264,18.122,12.28,18.61c0,0,3.608-.1,10.792-6.775.412,8.785,1.093,20.645,1.093,20.645l22.127-2.081s-.452-4.14-.925-7.62c2.131.92,3.683,1.281,4.983.971C667.481,440.921,668.751,435.131,667.681,427.231Zm-5.23,6.7a9.8,9.8,0,0,1-1.338-.382c-.04-1.36-.768-6.768-.828-8.208C660.295,425.381,663,433.891,662.451,433.931Z"/><path class="a" d="M646.778,406.725s.621,3.522-1.451,5.8c0,0,4.144,2.072,5.8-.829,0,0-2.072-6.01-1.45-9.118S646.778,405.9,646.778,406.725Z"/><g class="m"><path class="n" d="M646.156,408.8s3.523-1.244,3.108-4.352S645.741,407.346,646.156,408.8Z"/></g><path class="g" d="M646.761,424.614l1.088,9.145c.032.274-.255.507-.614.5l-13.185-.281a.561.561,0,0,1-.577-.4l-1.449-8.865c-.045-.273.234-.515.594-.515h13.547A.56.56,0,0,1,646.761,424.614Z"/><path class="a" d="M644.912,398.436s-1.865,3.73-.828,7.045,4.766,2.487,6.009-1.658c0,0,1.658-6.009.622-6.216S645.327,397.607,644.912,398.436Z"/><path class="d" d="M648.228,397.938c-2.663.6-7.393,3.782-10.305-3.193-2.744-6.574,4.732-4.176,7.03-4.636,2.257-.453,3.351-5.231,8.364.487,1.125,1.283,5.437-.738,6.3,4.681,1.26,7.928-9.915,10.506-9.915,10.506v-2.336C649.7,402.041,651.487,397.2,648.228,397.938Z"/><path class="a" d="M650.977,403.032c-.279.833-.956,1.357-1.511,1.171s-.779-1.013-.5-1.845.955-1.357,1.51-1.171S651.256,402.2,650.977,403.032Z"/><path class="d" d="M645.738,518.4l1.185,1.9c.3.722-.308,1.452-1.217,1.47l-8.207.161c-.732.015-1.11-.746-.563-1.132l5.032-2.829Z"/><path class="d" d="M641.471,516.663a.248.248,0,0,0,.133.036l2.634-.024a.177.177,0,0,0,.2-.174.214.214,0,0,0-.224-.17l-2.634.024a.177.177,0,0,0-.2.174A.179.179,0,0,0,641.471,516.663Z"/><path class="d" d="M659.221,518.409l1.174,1.9c.294.724-.315,1.451-1.224,1.464l-8.207.118c-.733.011-1.107-.752-.558-1.135l5.047-2.8Z"/><path class="d" d="M654.963,516.649a.251.251,0,0,0,.132.037l2.635-.011a.176.176,0,0,0,.2-.173.212.212,0,0,0-.222-.171l-2.635.01a.164.164,0,0,0-.1.308Z"/><path class="d" d="M650.966,430.515a3.094,3.094,0,0,0-4.16-.6c-1.31.7-1.783-.214-2.212.256-.732.8,2.458,3.436,5.576,3.265Z"/><path class="o" d="M654.145,436.064a71.3,71.3,0,0,0,7.453,3.924"/><line class="p" x2="5.302" y2="42.694" transform="translate(647.268 455.719)"/><path class="o" d="M593.619,359.073h7.66a5.958,5.958,0,0,1,5.958,5.958v7.043"/><rect class="l" width="72.07" height="75.734" rx="3.654" transform="translate(531.441 362.806)"/><rect class="l" width="72.07" height="42.143" rx="3.143" transform="translate(531.441 442.205)"/><rect class="g" width="58.022" height="4.275" transform="translate(538.77 368.914)"/><rect class="g" width="16.491" height="16.491" transform="translate(538.77 384.794)"/><circle class="g" cx="9.772" cy="9.772" r="9.772" transform="matrix(0.383, -0.924, 0.924, 0.383, 574.252, 468.628)"/><path class="g" d="M596.339,386.576H564.153c-.25,0-.453-.129-.453-.288s.2-.288.453-.288h32.186c.251,0,.454.129.454.288S596.59,386.576,596.339,386.576Z"/><path class="g" d="M596.339,391.076H564.153c-.25,0-.453-.128-.453-.287s.2-.288.453-.288h32.186c.251,0,.454.128.454.288S596.59,391.076,596.339,391.076Z"/><path class="g" d="M596.339,395.577H564.153c-.25,0-.453-.129-.453-.288s.2-.288.453-.288h32.186c.251,0,.454.129.454.288S596.59,395.577,596.339,395.577Z"/><path class="g" d="M596.339,400.077H564.153c-.25,0-.453-.128-.453-.287s.2-.288.453-.288h32.186c.251,0,.454.129.454.288S596.59,400.077,596.339,400.077Z"/><path class="g" d="M596,407.633H540.071c-.436,0-.788-.128-.788-.287s.352-.288.788-.288H596c.436,0,.789.129.789.288S596.44,407.633,596,407.633Z"/><path class="g" d="M596,412.134H540.071c-.436,0-.788-.129-.788-.288s.352-.288.788-.288H596c.436,0,.789.129.789.288S596.44,412.134,596,412.134Z"/><path class="g" d="M596,416.634H540.071c-.436,0-.788-.128-.788-.287s.352-.288.788-.288H596c.436,0,.789.129.789.288S596.44,416.634,596,416.634Z"/><path class="g" d="M596,421.135H540.071c-.436,0-.788-.129-.788-.288s.352-.287.788-.287H596c.436,0,.789.128.789.287S596.44,421.135,596,421.135Z"/><path class="g" d="M570.586,457.272H538.66c-.249,0-.451-.129-.451-.288s.2-.287.451-.287h31.926c.248,0,.45.128.45.287S570.834,457.272,570.586,457.272Z"/><path class="g" d="M570.586,461.772H538.66c-.249,0-.451-.128-.451-.287s.2-.288.451-.288h31.926c.248,0,.45.129.45.288S570.834,461.772,570.586,461.772Z"/><path class="g" d="M570.586,466.273H538.66c-.249,0-.451-.129-.451-.288s.2-.288.451-.288h31.926c.248,0,.45.129.45.288S570.834,466.273,570.586,466.273Z"/><path class="g" d="M570.586,470.774H538.66c-.249,0-.451-.129-.451-.288s.2-.288.451-.288h31.926c.248,0,.45.129.45.288S570.834,470.774,570.586,470.774Z"/></g></svg>