<svg xmlns="http://www.w3.org/2000/svg" xmlns:xlink="http://www.w3.org/1999/xlink" width="208.907" height="37.342" viewBox="0 0 208.907 37.342"><defs><style>.a{fill:none;}.b{fill:#405fbd;}.c{fill:#294cb5;}.d{fill:#87b5d2;}.e{clip-path:url(#a);}</style><clipPath id="a"><path class="a" d="M0,0H28.978V37.342H0Z" transform="translate(0.398 0.258)"/></clipPath></defs><path class="b" d="M0,.141c7.5-.7,10.156,1.275,11.265,4.137a4.252,4.252,0,0,1,.161,1.833V24.863l10.606-.084A4.225,4.225,0,0,1,24.9,25.845c3.1,2.37,2.239,9.645,2.077,10.595H0Z" transform="translate(133.284 0.246)"/><path class="c" d="M16.724,26.2c-.746-.572-4.556-1.094-5.939-1.082L.035,25.2,0,.616V0A5.446,5.446,0,0,1,1.081,1.386,7.89,7.89,0,0,1,1.635,2.8L15.459,24.13l.54.637.452.779Z" transform="translate(143.049 2.242)"/><path class="d" d="M13.824,21.334a4.646,4.646,0,0,0-3.038-1.082l-10.75.085L0,0Z" transform="translate(144.684 5.037)"/><path class="b" d="M14.548,36.164H0V0H14.548c5.706,0,10.444,1.7,13.7,4.911,3.213,3.168,4.911,7.723,4.911,13.171s-1.7,10-4.911,13.171C24.991,34.466,20.253,36.164,14.548,36.164ZM11.191,9.718V26.387h2.768a7.8,7.8,0,0,0,5.875-2.253,8.641,8.641,0,0,0,2.076-6.052,8.743,8.743,0,0,0-2.076-6.1,7.778,7.778,0,0,0-5.875-2.26Z" transform="translate(0 0.589)"/><path class="b" d="M27.211,3.084V9.718H11.25v3.416H22.772a3.084,3.084,0,0,1,3.084,3.084v6.34H11.25v3.828H24.127a3.084,3.084,0,0,1,3.084,3.084v6.693H0V0H24.127a3.084,3.084,0,0,1,3.084,3.084" transform="translate(35.927 0.589)"/><g transform="translate(64.8 -0.258)"><path class="a" d="M0,0H28.978V37.342H0Z" transform="translate(0.398 0.258)"/><g class="e"><path class="b" d="M1,24.443a24.482,24.482,0,0,0,11.721,3.592c2.356,0,4.771-.176,4.771-1.884,0-1.119-.707-1.414-1.944-1.767L10.013,22.97C3.18,21.145,0,17.905,0,11.9,0,4.182,6.361,0,14.548,0a24.416,24.416,0,0,1,11.78,2.592v10.13a20.086,20.086,0,0,0-11.19-3.475c-2.179,0-3.828.412-3.828,1.59,0,1.06.766,1.473,2,1.767l5.183,1.414c7.186,2.062,10.484,5.713,10.484,11.367,0,8.54-7.362,11.957-15.9,11.957A27.016,27.016,0,0,1,1,34.515Z" transform="translate(0.398 0.258)"/></g></g><path class="b" d="M11.426,15.137,21.144,0H34.22L22.676,17.316,34.75,36.164H21.5L11.426,20.2V36.164H0V0H8.342a3.084,3.084,0,0,1,3.084,3.084Z" transform="translate(96.591 0.589)"/><path class="b" d="M11.426,36.164H0V0H8.342a3.084,3.084,0,0,1,3.084,3.084Z" transform="translate(163.498 0.589)"/><path class="b" d="M18.2,36.164H0V0H17.2c3.789,0,6.742.837,8.776,2.489A8.949,8.949,0,0,1,29.1,9.836a8.719,8.719,0,0,1-1.45,4.933,7.111,7.111,0,0,1-3.438,2.724,8.271,8.271,0,0,1,4.226,3.181A9.524,9.524,0,0,1,30.1,26.151a10.889,10.889,0,0,1-.8,4.273,8.271,8.271,0,0,1-2.323,3.141C24.915,35.289,21.962,36.164,18.2,36.164ZM10.778,22.028v4.889h5.537c1.753,0,2.885-.948,2.885-2.416,0-1.549-1.079-2.473-2.885-2.473Zm0-12.84v4.654h4.771c1.9,0,2.945-.837,2.945-2.356,0-1.5-1.018-2.3-2.945-2.3Z" transform="translate(178.811 0.589)"/></svg>