<svg xmlns="http://www.w3.org/2000/svg" width="110.956" height="66.564" viewBox="0 0 110.956 66.564"><defs><style>.a{fill:#e9e2c3;}.b{fill:#fd5421;}.c{fill:#fff;}.d{fill:#fbaf2c;}.e{fill:#0a0d2c;}.f{fill:none;stroke:#070307;stroke-linecap:round;stroke-miterlimit:10;stroke-width:0.6px;}.g{fill:#314581;}.h{opacity:0.72;}.i{fill:#405fbd;}</style></defs><g transform="translate(-268 -2641.7)"><g transform="translate(268 2642)"><g transform="translate(1.97 11.771)"><path class="a" d="M241.293,473.846A54.493,54.493,0,0,0,186.8,528.339H295.786A54.492,54.492,0,0,0,241.293,473.846Z" transform="translate(-186.8 -473.846)"/></g><g transform="translate(30.595 0)"><rect class="b" width="41.561" height="51.791" rx="7.155" transform="translate(0 1.819)"/><g transform="translate(4.645 9.768)"><path class="c" d="M270.7,471.114H239.016a.2.2,0,0,1,0-.4H270.7a.2.2,0,0,1,0,.4Z" transform="translate(-238.843 -470.713)"/><g transform="translate(0 3.7)"><path class="c" d="M270.7,476.9H239.016a.2.2,0,0,1,0-.4H270.7a.2.2,0,0,1,0,.4Z" transform="translate(-238.843 -476.5)"/></g><g transform="translate(0 7.398)"><path class="c" d="M270.7,482.686H239.016a.2.2,0,0,1,0-.4H270.7a.2.2,0,0,1,0,.4Z" transform="translate(-238.843 -482.286)"/></g><g transform="translate(0 11.097)"><path class="c" d="M270.7,488.473H239.016a.2.2,0,0,1,0-.4H270.7a.2.2,0,0,1,0,.4Z" transform="translate(-238.843 -488.072)"/></g><g transform="translate(0 14.797)"><path class="c" d="M270.7,494.259H239.016a.2.2,0,0,1,0-.4H270.7a.2.2,0,0,1,0,.4Z" transform="translate(-238.843 -493.859)"/></g><g transform="translate(0 18.496)"><path class="c" d="M270.7,500.046H239.016a.2.2,0,0,1,0-.4H270.7a.2.2,0,0,1,0,.4Z" transform="translate(-238.843 -499.645)"/></g><g transform="translate(0 22.195)"><path class="c" d="M270.7,505.832H239.016a.2.2,0,0,1,0-.4H270.7a.2.2,0,0,1,0,.4Z" transform="translate(-238.843 -505.432)"/></g><g transform="translate(0 25.894)"><path class="c" d="M270.7,511.618H239.016a.2.2,0,0,1,0-.4H270.7a.2.2,0,0,1,0,.4Z" transform="translate(-238.843 -511.218)"/></g><g transform="translate(0 29.593)"><path class="c" d="M270.7,517.4H239.016a.2.2,0,0,1,0-.4H270.7a.2.2,0,0,1,0,.4Z" transform="translate(-238.843 -517.004)"/></g><g transform="translate(0 33.293)"><path class="c" d="M270.7,523.191H239.016a.2.2,0,0,1,0-.4H270.7a.2.2,0,0,1,0,.4Z" transform="translate(-238.843 -522.791)"/></g><g transform="translate(0 36.992)"><path class="c" d="M270.7,528.978H239.016a.2.2,0,0,1,0-.4H270.7a.2.2,0,0,1,0,.4Z" transform="translate(-238.843 -528.577)"/></g></g><g transform="translate(27.921 27.807)"><rect class="d" width="40.7" height="15.935" rx="7.968"/><g transform="translate(5.011 5.18)"><path class="c" d="M313.223,507.435h-29.78c-.195,0-.352-.089-.352-.2s.157-.2.352-.2h29.78c.195,0,.352.09.352.2S313.418,507.435,313.223,507.435Z" transform="translate(-283.091 -507.034)"/></g><g transform="translate(5.011 8.195)"><path class="c" d="M313.223,512.151h-29.78c-.195,0-.352-.09-.352-.2s.157-.2.352-.2h29.78c.195,0,.352.09.352.2S313.418,512.151,313.223,512.151Z" transform="translate(-283.091 -511.75)"/></g><g transform="translate(5.011 11.21)"><path class="c" d="M313.223,516.867h-29.78c-.195,0-.352-.09-.352-.2s.157-.2.352-.2h29.78c.195,0,.352.09.352.2S313.418,516.867,313.223,516.867Z" transform="translate(-283.091 -516.466)"/></g></g><g transform="translate(21.099 21.169)"><path class="e" d="M293.791,503.153a14.606,14.606,0,1,0-14.606,14.606A14.622,14.622,0,0,0,293.791,503.153Zm-2.039,0a12.567,12.567,0,1,1-12.567-12.567A12.581,12.581,0,0,1,291.753,503.153Z" transform="translate(-264.58 -488.547)"/><rect class="e" width="2.153" height="21.433" transform="translate(23.249 25.307) rotate(-45)"/><path class="e" d="M316.2,544.231a3.217,3.217,0,0,1-2.284-.946l-9.793-9.793a3.23,3.23,0,1,1,4.568-4.567l9.793,9.793a3.23,3.23,0,0,1-2.284,5.514Z" transform="translate(-278.502 -502.771)"/></g><path class="f" d="M286.495,455.433h3.212a4.97,4.97,0,0,1,4.97,4.97v5.2" transform="translate(-251.387 -455.433)"/></g><g transform="translate(0 43.2)"><path class="d" d="M202.944,532.832s-3.772-6.885-10.266-8.917l-.037,2.548-1.382-3.078a23.014,23.014,0,0,0-7.541-.111,32.36,32.36,0,0,0,5.917,13.542l4.193-.958-3.093,2.4s3.454,7.7,13.959,7.34Z" transform="translate(-183.718 -523.008)"/></g><g transform="translate(15.612 48.535)"><path class="g" d="M208.685,548.626s-2.738-6.539,4.052-10.725c0,0,1.153,1.376.816,2,0,0,5.378-8.144,12.318-8.545,0,0,1.843,4.326-.38,7.9,0,0,1.518.483,2.115-1.415a12.559,12.559,0,0,1-2.115,9.205s1.566.283,1.667,1.584Z" transform="translate(-208.139 -531.353)"/><g class="h"><path class="g" d="M224.254,537.409a11.459,11.459,0,0,1,1.99.177,10.171,10.171,0,0,0-.373-6.233c-6.939.4-12.318,8.545-12.318,8.545.336-.619-.816-2-.816-2-6.79,4.185-4.052,10.725-4.052,10.725h4.177A11.4,11.4,0,0,1,224.254,537.409Z" transform="translate(-208.139 -531.353)"/><g transform="translate(19.442 6.484)"><path class="b" d="M238.592,541.574c-.009-.049-.015-.078-.015-.078-.008.024-.017.044-.025.067Z" transform="translate(-238.552 -541.496)"/></g></g></g></g><g transform="translate(268.948 2666.861)"><path class="c" d="M1029.475,535.382a1.13,1.13,0,1,1-1.13-1.13A1.13,1.13,0,0,1,1029.475,535.382Z" transform="translate(-1023.523 -534.252)"/><path class="c" d="M1060.279,535.382a1.13,1.13,0,1,1-1.13-1.13A1.13,1.13,0,0,1,1060.279,535.382Z" transform="translate(-1046.844 -534.252)"/><path class="i" d="M1091.082,535.382a1.13,1.13,0,1,1-1.13-1.13A1.13,1.13,0,0,1,1091.082,535.382Z" transform="translate(-1070.165 -534.252)"/><path class="i" d="M1121.886,535.382a1.13,1.13,0,1,1-1.13-1.13A1.13,1.13,0,0,1,1121.886,535.382Z" transform="translate(-1093.486 -534.252)"/><path class="c" d="M1014.278,559.768a1.13,1.13,0,1,1-1.13-1.13A1.13,1.13,0,0,1,1014.278,559.768Z" transform="translate(-1012.018 -552.714)"/><path class="c" d="M1045.081,559.768a1.13,1.13,0,1,1-1.13-1.13A1.13,1.13,0,0,1,1045.081,559.768Z" transform="translate(-1035.338 -552.714)"/><circle class="i" cx="1.13" cy="1.13" r="1.13" transform="translate(14.966 5.924)"/><circle class="i" cx="1.13" cy="1.13" r="1.13" transform="translate(22.448 5.924)"/><path class="i" d="M1137.492,559.768a1.13,1.13,0,1,1-1.13-1.13A1.13,1.13,0,0,1,1137.492,559.768Z" transform="translate(-1105.3 -552.714)"/></g></g></svg>