<svg xmlns="http://www.w3.org/2000/svg" width="303.072" height="223.16" viewBox="0 0 303.072 223.16"><defs><style>.a{fill:#405fbd;}.b{fill:#e9e2c3;}.c{fill:#fff;}.d,.o{fill:none;stroke-linecap:round;}.d{stroke:#070307;}.d,.g,.h,.n,.o{stroke-miterlimit:10;}.d,.g,.h,.o{stroke-width:0.5px;}.e{fill:#fbaf2c;}.f{fill:#fd5421;}.g,.k{fill:#0a0d2c;}.g,.h,.o{stroke:#fff;}.h,.l{fill:#314581;}.i{fill:#070307;}.j{opacity:0.72;}.m{fill:#011721;}.n{stroke:#000;stroke-width:0.25px;}</style></defs><g transform="translate(-226 -962)"><g transform="translate(-647.198 463.748)"><path class="a" d="M882.5,538.9a4.652,4.652,0,1,1-4.652-4.652A4.652,4.652,0,0,1,882.5,538.9Z"/><path class="a" d="M913.306,538.9a4.652,4.652,0,1,1-4.652-4.652A4.652,4.652,0,0,1,913.306,538.9Z"/><path class="a" d="M944.109,538.9a4.652,4.652,0,1,1-4.652-4.652A4.652,4.652,0,0,1,944.109,538.9Z"/><path class="a" d="M974.913,538.9a4.653,4.653,0,1,1-4.653-4.652A4.653,4.653,0,0,1,974.913,538.9Z"/><path class="a" d="M1005.716,538.9a4.652,4.652,0,1,1-4.652-4.652A4.652,4.652,0,0,1,1005.716,538.9Z"/><path class="a" d="M898.108,563.29a4.652,4.652,0,1,1-4.652-4.652A4.652,4.652,0,0,1,898.108,563.29Z"/><circle class="a" cx="4.652" cy="4.652" r="4.652" transform="translate(919.608 558.638)"/><circle class="a" cx="4.652" cy="4.652" r="4.652" transform="translate(950.411 558.638)"/><path class="a" d="M990.519,563.29a4.652,4.652,0,1,1-4.652-4.652A4.652,4.652,0,0,1,990.519,563.29Z"/><path class="a" d="M1021.322,563.29a4.652,4.652,0,1,1-4.652-4.652A4.652,4.652,0,0,1,1021.322,563.29Z"/></g><g transform="translate(224.833 908.189)"><g transform="translate(76.846 53.811)"><path class="b" d="M303.6,269.565s31.72-81.676-46.948-133.95c0,0-13.348,17.191-9.457,24.925,0,0-62.3-101.723-142.7-106.729,0,0-21.355,54.036,4.4,98.666,0,0-17.587,6.031-24.5-17.67,0,0-11.934,60.659,24.5,114.976,0,0-18.136,3.529-19.314,19.781Z" transform="translate(-82.529 -53.811)"/></g><g transform="translate(194.64 171.831)"><path class="c" d="M283.325,193s12.968,29.57,13.284,31.954c3.336,25.133-11.716,34.395-12.176,69.172H248.594l-27.139-80.916Z" transform="translate(-221.455 -193.004)"/></g><g transform="translate(183.95 151.699)"><path class="c" d="M233.683,290.518s-.992-18.848-8.67-27.23a61.415,61.415,0,0,1-13.566-24.568,65.41,65.41,0,0,1-.969-32.759l7.787-35.482a1.549,1.549,0,0,1,1.809-1.19c1.753.339,4.581,2.088,6.285,9.368a35.819,35.819,0,0,1,.592,12.76c-1.019,7.869-2.285,25.3,4.813,34.155,0,0,7.033,7.771,13.361,9.061l26.456,26.207-3.231,29.678Z" transform="translate(-208.847 -169.26)"/></g><path class="d" d="M230.237,214.985s2.329,14.695,11.319,23.922,13,13.533,12.869,18.913" transform="translate(-28.151 -24.516)"/><g transform="translate(183.95 239.282)"><path class="e" d="M234.347,285.586s-5-9.131-13.615-11.826l-.05,3.379-1.832-4.083a30.527,30.527,0,0,0-10-.148A42.915,42.915,0,0,0,216.7,290.87l5.561-1.27-4.1,3.185s4.582,10.207,18.514,9.735Z" transform="translate(-208.847 -272.556)"/></g><rect class="f" width="52.599" height="15.029" rx="7.514" transform="translate(240.381 59.204)"/><path class="c" d="M320.415,75.53H282.844a7.917,7.917,0,0,1,0-15.834h37.571a7.917,7.917,0,0,1,0,15.834ZM282.844,60.5a7.112,7.112,0,0,0,0,14.223h37.571a7.112,7.112,0,0,0,0-14.223Z" transform="translate(-34.949 -0.895)"/><g transform="translate(249.268 63.569)"><path class="c" d="M320.306,66.124h-34.02a.4.4,0,1,1,0-.805h34.02a.4.4,0,0,1,0,.805Z" transform="translate(-285.883 -65.319)"/></g><g transform="translate(249.268 66.595)"><path class="c" d="M320.306,69.694h-34.02a.4.4,0,1,1,0-.805h34.02a.4.4,0,0,1,0,.805Z" transform="translate(-285.883 -68.889)"/></g><g transform="translate(249.268 69.622)"><path class="c" d="M320.306,73.264h-34.02a.4.4,0,1,1,0-.8h34.02a.4.4,0,0,1,0,.8Z" transform="translate(-285.883 -72.459)"/></g><g transform="translate(57.258 201.317)"><path class="g" d="M169.941,238.345A10.422,10.422,0,0,1,159.7,248.918H59.427v-.806a9.769,9.769,0,0,0,0-19.527v-.805H159.7A10.42,10.42,0,0,1,169.941,238.345Z" transform="translate(-59.427 -227.78)"/></g><g transform="translate(45.167 222.455)"><path class="h" d="M159.327,263.283a10.579,10.579,0,0,1-10.565,10.573H45.167v-.805a9.768,9.768,0,0,0,0-19.535v-.805h103.6A10.584,10.584,0,0,1,159.327,263.283Z" transform="translate(-45.167 -252.71)"/></g><g transform="translate(53.205 243.602)"><path class="g" d="M172.775,277.65v.806a15.347,15.347,0,0,0,0,30.694v.805H70.8a16.152,16.152,0,0,1,0-32.3Z" transform="translate(-54.647 -277.65)"/></g><g transform="translate(104.946 117.594)"><ellipse class="i" cx="9.947" cy="12.035" rx="9.947" ry="12.035" transform="translate(0 19.148) rotate(-74.255)"/></g><g transform="translate(121.136 155.607)"><path class="f" d="M135.955,203.141s15.757-25.339,26.564-29.269c0,0,8.781-1.106,16.518,45.561l-5.22-.265s-11.421-16.559-12.035-28.349c0,0-1.827,19.2-13.01,29.31l-14.008-13.713Z" transform="translate(-134.765 -173.869)"/></g><path class="f" d="M135.551,154.835c-1.734-.542-2.9.532-5.643,2.283,0,0-29.328,18.938-17.789,53.707A28.785,28.785,0,0,0,119.94,222.9a91.9,91.9,0,0,0,23.784,15.273s-6.14,13.509-6.333,39.082l3.959.707s13.164-19.626,13.5-42.995a2.9,2.9,0,0,0-.166-1.012c-.8-2.262-4.888-11.923-22.057-32.666,0,0,8.973-23.941,7.389-40.788A6.537,6.537,0,0,0,135.551,154.835Z" transform="translate(-9.775 -15.345)"/><g transform="translate(120.133 148.853)"><path class="c" d="M133.6,167.5s-1.38,20.239,18.269,24.881a3.392,3.392,0,0,0,2.6-.444c3.85-2.454,13.866-7.84,21.732-23.88l-1.842-1.965s-8.064,6.563-21.982,16.226c0,0-8.5-7.7-8.5-16.418Z" transform="translate(-133.582 -165.903)"/></g><g transform="translate(125.006 131.815)"><path class="c" d="M142.711,155.1a3.048,3.048,0,0,1-.19-2.539l1.781.337,2.455-2.241-1.872-4.852s-.922,4.022-3.9,2.763c0,0-1.29.514-.43,1.884,0,0-.336,2.586-1.227,2.838A10.261,10.261,0,0,1,142.711,155.1Z" transform="translate(-139.329 -145.809)"/></g><g transform="translate(79.637 139.197)"><path class="c" d="M136.429,160.473a6.537,6.537,0,0,0-4.469-5.666c-1.734-.542-3.989-.45-6.727,1.3a44.275,44.275,0,0,0-6.435,5.945c-2.978,3.279-20.348,30.463-20.348,30.463L85.821,212.281l1.865,2.6s11.538-7.907,18.538-17.916c-1,2.421-4.8,13.564.169,16.187a4.328,4.328,0,0,0,4.608-.473,59.589,59.589,0,0,0,7.422-6.954c6.386-7.614,10.616-4.462,10.616-4.462S138.013,177.32,136.429,160.473Z" transform="translate(-85.821 -154.515)"/></g><g transform="translate(103.505 118.056)"><circle class="i" cx="4.805" cy="4.805" r="4.805"/></g><g transform="translate(123.838 136.036)"><path class="i" d="M140.137,155.159a2.186,2.186,0,1,1,2.186-2.186A2.188,2.188,0,0,1,140.137,155.159Zm0-3.969a1.784,1.784,0,1,0,1.783,1.783A1.785,1.785,0,0,0,140.137,151.19Z" transform="translate(-137.951 -150.787)"/></g><g transform="translate(159.465 200.905)"><path class="i" d="M180.694,227.294l-.555,1.841a3.987,3.987,0,0,0,1.625,4.48l7.671,5.052a.823.823,0,0,0,1.2-1.036l-4.719-10.071Z" transform="translate(-179.97 -227.294)"/></g><g transform="translate(126.194 261.908)"><path class="i" d="M142.153,299.24l-.8,1.7a6.613,6.613,0,0,0-.025,5.566l.734,1.6a13.537,13.537,0,0,0,4.757,5.6l.66.443a.931.931,0,0,0,1.43-.966l-2.8-13.23Z" transform="translate(-140.73 -299.24)"/></g><g transform="translate(204.657 246.358)"><g transform="translate(0)"><path class="f" d="M233.993,303.811s-3.632-8.673,5.375-14.223c0,0,1.528,1.826,1.083,2.646,0,0,7.132-10.8,16.336-11.333,0,0,2.445,5.738-.5,10.477,0,0,2.013.641,2.8-1.876a16.661,16.661,0,0,1-2.8,12.21s2.076.375,2.21,2.1Z" transform="translate(-233.269 -280.901)"/></g><g class="j" transform="translate(0)"><path class="f" d="M254.643,288.934a15.2,15.2,0,0,1,2.639.234,13.491,13.491,0,0,0-.494-8.267c-9.2.532-16.336,11.333-16.336,11.333.445-.821-1.083-2.646-1.083-2.646-9.006,5.55-5.375,14.223-5.375,14.223h5.54A15.113,15.113,0,0,1,254.643,288.934Z" transform="translate(-233.269 -280.901)"/><g transform="translate(25.786 8.6)"><path class="f" d="M263.734,291.147c-.012-.065-.02-.1-.02-.1-.01.032-.022.058-.033.089Z" transform="translate(-263.681 -291.044)"/></g></g></g><g transform="translate(201.004 81.848)"><rect class="k" width="68.827" height="115.659" rx="2.91" transform="translate(0 0)"/></g><g transform="translate(204.887 85.518)"><rect class="l" width="61.062" height="108.319" rx="2.542"/></g><rect class="e" width="103.049" height="23.926" rx="11.963" transform="translate(158.608 127.234)"/><g transform="translate(172.946 133.379)"><g transform="translate(0 0)"><path class="m" d="M269.839,148.459H196.272a.4.4,0,0,1,0-.8h73.567a.4.4,0,1,1,0,.8Z" transform="translate(-195.87 -147.654)"/></g><g transform="translate(0 5.415)"><path class="m" d="M269.839,154.845H196.272a.4.4,0,0,1,0-.805h73.567a.4.4,0,0,1,0,.805Z" transform="translate(-195.87 -154.04)"/></g><g transform="translate(0 10.829)"><path class="m" d="M269.839,161.232H196.272a.4.4,0,0,1,0-.806h73.567a.4.4,0,0,1,0,.806Z" transform="translate(-195.87 -160.426)"/></g></g><g transform="translate(211.764 94.711)"><g transform="translate(0 0)"><path class="m" d="M270.612,102.854H242.053a.4.4,0,0,1,0-.8h28.559a.4.4,0,0,1,0,.8Z" transform="translate(-241.651 -102.049)"/></g><g transform="translate(0 6.296)"><path class="m" d="M270.612,110.279H242.053a.4.4,0,0,1,0-.805h28.559a.4.4,0,0,1,0,.805Z" transform="translate(-241.651 -109.474)"/></g><g transform="translate(0 12.592)"><path class="m" d="M270.612,117.705H242.053a.4.4,0,0,1,0-.805h28.559a.4.4,0,0,1,0,.805Z" transform="translate(-241.651 -116.9)"/></g><g transform="translate(0 18.888)"><path class="m" d="M270.612,125.132H242.053a.4.4,0,0,1,0-.806h28.559a.4.4,0,0,1,0,.806Z" transform="translate(-241.651 -124.326)"/></g></g><g transform="translate(213.103 158.642)"><g transform="translate(0)"><path class="m" d="M263.037,178.254h-19.4a.4.4,0,1,1,0-.8h19.4a.4.4,0,1,1,0,.8Z" transform="translate(-243.23 -177.449)"/></g><g transform="translate(0 6.296)"><path class="m" d="M263.037,185.68h-19.4a.4.4,0,0,1,0-.806h19.4a.4.4,0,1,1,0,.806Z" transform="translate(-243.23 -184.874)"/></g><g transform="translate(0 12.592)"><path class="m" d="M263.037,193.105h-19.4a.4.4,0,0,1,0-.805h19.4a.4.4,0,1,1,0,.805Z" transform="translate(-243.23 -192.3)"/></g><g transform="translate(0 18.888)"><path class="m" d="M263.037,200.531h-19.4a.4.4,0,1,1,0-.805h19.4a.4.4,0,1,1,0,.805Z" transform="translate(-243.23 -199.725)"/></g></g><g transform="translate(240.591 158.642)"><path class="m" d="M295.457,178.254h-19.4a.4.4,0,1,1,0-.8h19.4a.4.4,0,1,1,0,.8Z" transform="translate(-275.65 -177.449)"/><g transform="translate(0 6.296)"><path class="m" d="M295.457,185.68h-19.4a.4.4,0,1,1,0-.806h19.4a.4.4,0,0,1,0,.806Z" transform="translate(-275.65 -184.874)"/></g><g transform="translate(0 12.592)"><path class="m" d="M295.457,193.105h-19.4a.4.4,0,1,1,0-.805h19.4a.4.4,0,0,1,0,.805Z" transform="translate(-275.65 -192.3)"/></g><g transform="translate(0 18.888)"><path class="m" d="M295.457,200.531h-19.4a.4.4,0,1,1,0-.805h19.4a.4.4,0,0,1,0,.805Z" transform="translate(-275.65 -199.725)"/></g></g><g transform="translate(252.391 148.884)"><path class="c" d="M307.451,166.928c-4.871,1.441-11.672,4.167-16.976,9.066a2.867,2.867,0,0,0,.708,4.67c3.207,1.548,9.827,2.564,23.133-1.473a5.414,5.414,0,0,0,3.75-6.1l-.422-2.447a5.664,5.664,0,0,0-6.8-4.568C309.675,166.332,308.489,166.621,307.451,166.928Z" transform="translate(-289.567 -165.939)"/></g><g transform="translate(256.531 162.42)"><path class="c" d="M306.877,182.856a28.842,28.842,0,0,0-11.6,6.57,3.035,3.035,0,0,0,.335,4.464c2.21,1.572,6.643,2.97,15.36,1.158a7.117,7.117,0,0,0,5.616-7.689l-.094-.93a5.045,5.045,0,0,0-5.948-4.44A33.756,33.756,0,0,0,306.877,182.856Z" transform="translate(-294.449 -181.904)"/></g><g transform="translate(263.687 174.279)"><path class="c" d="M303.38,202.54a4.117,4.117,0,0,0,.373,4.46c1.3,1.386,3.674,2.7,7.89,2.159a7.009,7.009,0,0,0,6.073-7.658l-.205-2.018a3.986,3.986,0,0,0-5.231-3.382A17.386,17.386,0,0,0,303.38,202.54Z" transform="translate(-302.89 -195.89)"/></g><g transform="translate(160.912 145.379)"><path class="i" d="M183.518,167.436s4.017-.545,2.825-3.033c-.571-1.192,1.918-1.814,1.763-2.359-.265-.927-5.106.985-6.43,3.427Z" transform="translate(-181.676 -161.806)"/></g><g transform="translate(100.174 89.557)"><g transform="translate(0 0)"><path class="n" d="M122.968,96.175H110.144a.1.1,0,0,1,0-.205h12.824a.1.1,0,1,1,0,.205Z" transform="translate(-110.042 -95.97)"/></g><g transform="translate(0 1.9)"><path class="n" d="M122.968,98.416H110.144a.1.1,0,0,1,0-.205h12.824a.1.1,0,0,1,0,.205Z" transform="translate(-110.042 -98.211)"/></g><g transform="translate(0 3.799)"><path class="n" d="M122.968,100.656H110.144a.1.1,0,0,1,0-.205h12.824a.1.1,0,0,1,0,.205Z" transform="translate(-110.042 -100.451)"/></g></g><line class="d" x1="3.177" y2="13.563" transform="translate(99.655 169.091)"/><path class="d" d="M132.516,169.048s.872,12.1,8.414,18.31" transform="translate(-13.287 -17.529)"/><path class="o" d="M137.25,210.2s14.378,18.524,18.379,25.474" transform="translate(-14.007 -23.789)"/><line class="d" x2="2.999" y2="0.704" transform="translate(131.397 259.274)"/><line class="d" x2="3.08" y2="0.06" transform="translate(162.974 197.477)"/><path class="d" d="M219.2,171.559a13.8,13.8,0,0,1,1.113,8.772c-.793,3.323-4.256,1.871-4.256,1.871" transform="translate(-25.994 -17.911)"/><path class="d" d="M296.739,175.425a4.307,4.307,0,0,1,2.328,5.494" transform="translate(-38.267 -18.499)"/><path class="d" d="M301.164,189.03a4.306,4.306,0,0,1,1.408,5.8" transform="translate(-38.94 -20.568)"/><path class="d" d="M307.949,202.013a4.306,4.306,0,0,1,1.407,5.8" transform="translate(-39.972 -22.543)"/><path class="d" d="M311.368,255.285s-6.87,20.638-7.431,24.39" transform="translate(-39.362 -30.646)"/></g></g></svg>