<svg xmlns="http://www.w3.org/2000/svg" width="260.424" height="230.275" viewBox="0 0 260.424 230.275"><defs><style>.a{fill:#405fbd;}.b,.l{fill:#070307;}.b,.m{stroke:#070307;}.b,.h,.i,.m{stroke-miterlimit:10;}.b,.i{stroke-width:0.25px;}.c{fill:#314581;}.d{fill:#fd5421;}.e{fill:#fbaf2c;}.f{fill:#e9e2c3;}.g{fill:#0a0d2c;}.h,.m{fill:none;stroke-linecap:round;stroke-width:0.6px;}.h{stroke:#fff;}.i{stroke:#000;}.j{fill:#fcfcfc;}.k{fill:#231f20;}</style></defs><g transform="translate(-806.7 -1245.875)"><g transform="translate(45.802 879.748)"><path class="a" d="M882.5,538.9a4.652,4.652,0,1,1-4.652-4.652A4.652,4.652,0,0,1,882.5,538.9Z"/><path class="a" d="M913.306,538.9a4.652,4.652,0,1,1-4.652-4.652A4.652,4.652,0,0,1,913.306,538.9Z"/><path class="a" d="M944.109,538.9a4.652,4.652,0,1,1-4.652-4.652A4.652,4.652,0,0,1,944.109,538.9Z"/><path class="a" d="M974.913,538.9a4.653,4.653,0,1,1-4.653-4.652A4.653,4.653,0,0,1,974.913,538.9Z"/><path class="a" d="M1005.716,538.9a4.652,4.652,0,1,1-4.652-4.652A4.652,4.652,0,0,1,1005.716,538.9Z"/><path class="a" d="M898.108,563.29a4.652,4.652,0,1,1-4.652-4.652A4.652,4.652,0,0,1,898.108,563.29Z"/><circle class="a" cx="4.652" cy="4.652" r="4.652" transform="translate(919.608 558.638)"/><circle class="a" cx="4.652" cy="4.652" r="4.652" transform="translate(950.411 558.638)"/><path class="a" d="M990.519,563.29a4.652,4.652,0,1,1-4.652-4.652A4.652,4.652,0,0,1,990.519,563.29Z"/><path class="a" d="M1021.322,563.29a4.652,4.652,0,1,1-4.652-4.652A4.652,4.652,0,0,1,1021.322,563.29Z"/></g><g transform="translate(-179.691 938.354)"><g transform="translate(1035.836 318.076)"><path class="b" d="M1141.515,526.215h-96.336a11.66,11.66,0,0,1-11.647-11.647V329.234a11.66,11.66,0,0,1,11.647-11.647h96.336a11.66,11.66,0,0,1,11.647,11.647V514.568A11.66,11.66,0,0,1,1141.515,526.215Zm-96.336-208.271a11.3,11.3,0,0,0-11.292,11.29V514.568a11.3,11.3,0,0,0,11.292,11.29h96.336a11.3,11.3,0,0,0,11.291-11.29V329.234a11.3,11.3,0,0,0-11.291-11.29Z" transform="translate(-1033.532 -317.587)"/></g><g transform="translate(1040.743 323.53)"><rect class="c" width="109.816" height="197.72" rx="10.559"/></g><g transform="translate(1100.297 344.82)"><rect class="d" width="44.53" height="10.881" rx="4.339"/></g><g transform="translate(1081.179 436.917)"><rect class="d" width="63.647" height="10.881" rx="4.339"/></g><g transform="translate(1081.179 465.969)"><rect class="d" width="63.647" height="10.881" rx="4.339"/></g><g transform="translate(1100.297 451.443)"><rect class="d" width="44.53" height="10.881" rx="4.339"/></g><g transform="translate(1045.022 376.325)"><rect class="e" width="40.019" height="10.881" rx="4.339"/></g><g transform="translate(1045.022 391.718)"><rect class="e" width="40.019" height="10.881" rx="4.339"/></g><g transform="translate(1045.022 494.722)"><rect class="e" width="44.53" height="10.881" rx="4.339"/></g><g transform="translate(1023.751 310.118)"><circle class="f" cx="26.045" cy="26.045" r="26.045"/></g><g transform="translate(1043.659 327.847)"><path class="g" d="M1047.666,342.8a2.565,2.565,0,0,0-.978.19,2.377,2.377,0,0,0-1.324,1.324,2.622,2.622,0,0,0,0,1.955,2.4,2.4,0,0,0,1.325,1.324,2.618,2.618,0,0,0,1.953,0,2.4,2.4,0,0,0,.8-.527,2.435,2.435,0,0,0,.529-.8,2.607,2.607,0,0,0,0-1.954,2.474,2.474,0,0,0-.529-.8,2.421,2.421,0,0,0-.8-.525A2.562,2.562,0,0,0,1047.666,342.8Zm-2-1.98h4v-.665a2.5,2.5,0,0,1,.249-1.062,3.157,3.157,0,0,1,.951-1.08,18.8,18.8,0,0,0,1.711-1.478,7.767,7.767,0,0,0,1.076-1.319,4.549,4.549,0,0,0,.573-1.3,6,6,0,0,0,.169-1.479,5.422,5.422,0,0,0-.5-2.389,5.064,5.064,0,0,0-1.373-1.738,6.016,6.016,0,0,0-2.015-1.053,8.28,8.28,0,0,0-2.457-.356,7.423,7.423,0,0,0-4.876,1.569,6.464,6.464,0,0,0-2.178,4.381l4.111.267a3.082,3.082,0,0,1,.828-1.759,2.891,2.891,0,0,1,2.2-.81,2.324,2.324,0,0,1,1.613.582,2.091,2.091,0,0,1,.653,1.626,1.969,1.969,0,0,1-.3,1.035,5.96,5.96,0,0,1-.793.989c-.34.348-.74.718-1.188,1.1s-.945.835-1.485,1.357a2.894,2.894,0,0,0-.742,1.066,4.035,4.035,0,0,0-.22,1.416Z" transform="translate(-1040.988 -326.9)"/></g><g transform="translate(1111.538 485.706)"><circle class="e" cx="26.045" cy="26.045" r="26.045"/></g><g transform="translate(1109.499 482.936)"><path class="h" d="M1129.609,474.718a25.867,25.867,0,1,0,25.868,25.868A25.9,25.9,0,0,0,1129.609,474.718Z" transform="translate(-1103.742 -474.718)"/></g><g transform="translate(1026.854 312.418)"><path class="h" d="M1050.838,312.194a25.867,25.867,0,1,0,25.868,25.868A25.9,25.9,0,0,0,1050.838,312.194Z" transform="translate(-1024.971 -312.194)"/></g><g transform="translate(1127.507 504.476)"><path class="g" d="M1123.429,499.149a2.525,2.525,0,0,0-1.787,4.309l5.6,5.6a2.532,2.532,0,0,0,3.573,0l9.5-9.5a2.526,2.526,0,0,0-3.573-3.573l-7.717,7.717-3.816-3.816A2.508,2.508,0,0,0,1123.429,499.149Z" transform="translate(-1120.905 -495.248)"/></g><g transform="translate(1184.998 456.883)"><path class="i" d="M1200.4,450.243h-24.525a.178.178,0,1,1,0-.356H1200.4a.178.178,0,0,1,0,.356Z" transform="translate(-1175.701 -449.887)"/><g transform="translate(0 2.768)"><path class="i" d="M1200.4,452.881h-24.525a.178.178,0,1,1,0-.356H1200.4a.178.178,0,0,1,0,.356Z" transform="translate(-1175.701 -452.525)"/></g><g transform="translate(0 5.534)"><path class="i" d="M1200.4,455.518h-24.525a.178.178,0,1,1,0-.356H1200.4a.178.178,0,0,1,0,.356Z" transform="translate(-1175.701 -455.162)"/></g></g><g transform="translate(1124.66 307.646)"><path class="i" d="M1120.058,311.381a1.868,1.868,0,1,1,1.869-1.868A1.869,1.869,0,0,1,1120.058,311.381Zm0-3.379a1.512,1.512,0,1,0,1.512,1.512A1.513,1.513,0,0,0,1120.058,308Z" transform="translate(-1118.192 -307.646)"/><g transform="translate(5.112)"><path class="i" d="M1124.932,311.381a1.868,1.868,0,1,1,1.868-1.868A1.87,1.87,0,0,1,1124.932,311.381Zm0-3.379a1.512,1.512,0,1,0,1.512,1.512A1.514,1.514,0,0,0,1124.932,308Z" transform="translate(-1123.064 -307.646)"/></g><g transform="translate(10.224)"><path class="i" d="M1129.8,311.381a1.868,1.868,0,1,1,1.867-1.868A1.87,1.87,0,0,1,1129.8,311.381Zm0-3.379a1.512,1.512,0,1,0,1.512,1.512A1.514,1.514,0,0,0,1129.8,308Z" transform="translate(-1127.937 -307.646)"/></g></g><g transform="translate(1120.432 360.763)"><path class="g" d="M1197.4,365.418v41.369a7.149,7.149,0,0,1-7.155,7.145h-74.052a2.024,2.024,0,0,1-1.437-3.452l5.875-5.865a8.9,8.9,0,0,0,2.6-6.3v-32.9a7.149,7.149,0,0,1,7.155-7.145h59.856A7.149,7.149,0,0,1,1197.4,365.418Z" transform="translate(-1114.162 -358.273)"/></g><g transform="translate(990.579 417.293)"><path class="g" d="M1071.6,467.812H997.552a7.149,7.149,0,0,1-7.155-7.145V419.3a7.149,7.149,0,0,1,7.155-7.145h59.856a7.149,7.149,0,0,1,7.156,7.145v32.9a8.9,8.9,0,0,0,2.6,6.3l5.875,5.865A2.024,2.024,0,0,1,1071.6,467.812Z" transform="translate(-990.397 -412.153)"/></g><g transform="translate(1098.254 360.183)"><path class="j" d="M1170.792,383.058c3.563,4.375,9.656,14.248,14.669,30.9h5.735s-6.193-39.911-26.607-47.938c0,0-1.937-1.329-7.609-.849a2.3,2.3,0,0,1-2.411-1.684l-.256-.925c-.7-6.108-3.647-1.854-3.647-1.854-3.552.561-5.049-2.992-5.049-2.992l-1.123,4.582,2.755,2.449a1.661,1.661,0,0,0,1.415.391l1.953-.369a.711.711,0,0,1,.832.571h0a.7.7,0,0,1-.538.818c-10.566,2.4-28.5,9.539-57.887,28.534l2.043,3.745s24.164-9.241,39.519-14.749c3.141-1.127,7.563,1.083,8.1,4.375l4.24,25.9h25l-3.18-30.054A1.154,1.154,0,0,1,1170.792,383.058Z" transform="translate(-1093.024 -357.72)"/></g><g transform="translate(999.093 400.675)"><path class="j" d="M1092.1,396.314s-29.677,13.309-56.564,26.986a.883.883,0,0,1-1.219-.457h0a.885.885,0,0,1,.389-1.1l1.864-1.043a2.641,2.641,0,0,0,1.354-2.307v-3.036l-4.817-2.523s2.409,6.193-1.72,6.652c0,0-2.523-2.359-2.982-.605,0,0-.115,2.785,1.835,3.357a5.7,5.7,0,0,1,1.689,2.913c-13.8,7.107-26.458,14.158-33.414,19.338,0,0-.458,13.762,20.949,24.313l.614-5.844s-8.412-10.977-10.094-13.577l12.08-5.352-2.6,24.772h24.772l4.752-32.069c.482-3.251,4.849-8.61,7.528-10.514l37.281-25.9Z" transform="translate(-998.511 -396.314)"/></g><g transform="translate(1022.465 444.127)"><path class="k" d="M1020.966,442.165h-.018a.178.178,0,0,1-.161-.194l.382-4.08a.176.176,0,0,1,.194-.161.179.179,0,0,1,.161.194l-.382,4.08A.178.178,0,0,1,1020.966,442.165Z" transform="translate(-1020.787 -437.728)"/></g><g transform="translate(1021.956 353.52)"><g transform="translate(127.388)"><path class="l" d="M1142.9,359.747s-4.041-7.791,2.85-8.377c0,0,9.781-.167,10.2,6.77,0,0,.279,3.121-3.427,7.5l-.827.216Z" transform="translate(-1141.719 -351.37)"/></g><g transform="translate(71.345 43.638)"><path class="l" d="M1093.256,392.962l-4.953,3.144s2.544,5.438,7,.6Z" transform="translate(-1088.303 -392.962)"/></g><g transform="translate(0 57.45)"><path class="l" d="M1034.034,411.847c.629-1.578.978-4.286-3.136-5.6a2.742,2.742,0,0,0-2.7.637c-.458.431-1.06.968-1.785,1.56,0,0-15.215,9.4,2.377,17.282l2.984-.4h0a2.07,2.07,0,0,0,.836-1.765l-.157-3.31.554-4.228A17.346,17.346,0,0,1,1034.034,411.847Z" transform="translate(-1020.303 -406.127)"/></g><g transform="translate(70.721 44.326)"><path class="l" d="M1087.709,396.447l4.735-2.829s3.482,5.175-3.037,6.83Z" transform="translate(-1087.709 -393.618)"/></g></g><path class="m" d="M1166.545,353.448h25.049" transform="translate(8.847 2.253)"/><path class="m" d="M986.691,449.713v9.715a10.177,10.177,0,0,0,10.176,10.177h11.282" transform="translate(0 6.988)"/></g></g></svg>