<svg xmlns="http://www.w3.org/2000/svg" width="317.935" height="170.43" viewBox="0 0 317.935 170.43"><defs><style>.a{fill:#405fbd;}.b{fill:#e9e2c3;}.c{fill:#314581;}.d{fill:#070307;}.e{fill:#0a0d2c;}.f{fill:#fd5421;}.g,.i{fill:#fbaf2c;}.h{fill:#111e3f;}.h,.i,.j{stroke:#fff;}.h,.i,.j,.l,.m,.n,.o{stroke-miterlimit:10;}.h,.i,.m,.n,.o{stroke-width:0.5px;}.j,.k{fill:#fff;}.j,.l{stroke-width:0.25px;}.l{stroke:#000;}.m,.n,.o{fill:none;}.m{stroke:#ededed;}.m,.o{stroke-linecap:round;}.n,.o{stroke:#070307;}</style></defs><g transform="translate(-265 -1537)"><g transform="translate(-606.322 1010.748)"><path class="a" d="M882.5,538.9a4.652,4.652,0,1,1-4.652-4.652A4.652,4.652,0,0,1,882.5,538.9Z"/><path class="a" d="M913.306,538.9a4.652,4.652,0,1,1-4.652-4.652A4.652,4.652,0,0,1,913.306,538.9Z"/><path class="a" d="M944.109,538.9a4.652,4.652,0,1,1-4.652-4.652A4.652,4.652,0,0,1,944.109,538.9Z"/><path class="a" d="M974.913,538.9a4.653,4.653,0,1,1-4.653-4.652A4.653,4.653,0,0,1,974.913,538.9Z"/><path class="a" d="M1005.716,538.9a4.652,4.652,0,1,1-4.652-4.652A4.652,4.652,0,0,1,1005.716,538.9Z"/><path class="a" d="M898.108,563.29a4.652,4.652,0,1,1-4.652-4.652A4.652,4.652,0,0,1,898.108,563.29Z"/><circle class="a" cx="4.652" cy="4.652" r="4.652" transform="translate(919.608 558.638)"/><circle class="a" cx="4.652" cy="4.652" r="4.652" transform="translate(950.411 558.638)"/><path class="a" d="M990.519,563.29a4.652,4.652,0,1,1-4.652-4.652A4.652,4.652,0,0,1,990.519,563.29Z"/><path class="a" d="M1021.322,563.29a4.652,4.652,0,1,1-4.652-4.652A4.652,4.652,0,0,1,1021.322,563.29Z"/></g><g transform="translate(51.43 1156.29)"><g transform="translate(213.57 385.773)"><path class="b" d="M372.538,386.217A158.968,158.968,0,0,0,213.57,545.185H531.505A158.968,158.968,0,0,0,372.538,386.217Z" transform="translate(-213.57 -386.217)"/></g><g transform="translate(289.187 443.748)"><path class="c" d="M10.211,0H156.517a10.211,10.211,0,0,1,10.211,10.211v90.662a0,0,0,0,1,0,0H0a0,0,0,0,1,0,0V10.211A10.211,10.211,0,0,1,10.211,0Z"/></g><g transform="translate(285.915 440.289)"><path class="d" d="M453.914,445.52H304.126a11.806,11.806,0,0,0-11.859,11.721v90.341h.4V457.241a11.41,11.41,0,0,1,11.464-11.335H453.914a11.408,11.408,0,0,1,11.454,11.335v90.341h.4V457.241A11.8,11.8,0,0,0,453.914,445.52Z" transform="translate(-292.267 -445.52)"/></g><path class="e" d="M0,0H212.309a0,0,0,0,1,0,0V6.125a2.664,2.664,0,0,1-2.664,2.664H2.664A2.664,2.664,0,0,1,0,6.125V0A0,0,0,0,1,0,0Z" transform="translate(266.383 542.351)"/><g transform="translate(404.526 394.753)"><path class="f" d="M460.163,422.765c5.864-5.958,6.606-15.237,6.527-20.239a4.277,4.277,0,0,0-4.264-4.185H456.74a2.355,2.355,0,0,1-2.355-2.355H433.6a2.355,2.355,0,0,1-2.355,2.355h-5.687a4.276,4.276,0,0,0-4.264,4.185c-.08,5,.663,14.281,6.526,20.239,3.4,3.453,8.029,5.294,13.774,5.484a.976.976,0,0,1,.941.977h0a.979.979,0,0,1-.979.98h-.336a2.563,2.563,0,0,0-2.563,2.563h-.07a4.3,4.3,0,0,0-4.295,4.295v2.147h19.4v-2.147a4.294,4.294,0,0,0-4.295-4.295h-.069a2.563,2.563,0,0,0-2.563-2.563h-.336a.98.98,0,0,1-.98-.98h0a.977.977,0,0,1,.942-.977C452.134,428.059,456.765,426.218,460.163,422.765Zm-5.779-7.625V403.883A3.879,3.879,0,0,1,458.264,400h4.163a2.607,2.607,0,0,1,2.6,2.548c.075,4.742-.611,13.52-6.05,19.046-3.135,3.185-7.468,4.864-12.887,5a.633.633,0,0,1-.644-.633h0a.638.638,0,0,1,.528-.622A10.392,10.392,0,0,0,454.385,415.139ZM429.009,421.6c-5.439-5.526-6.125-14.3-6.05-19.046a2.606,2.606,0,0,1,2.6-2.548h4.163a3.879,3.879,0,0,1,3.879,3.878v11.257a10.392,10.392,0,0,0,8.409,10.2.638.638,0,0,1,.527.622h0a.633.633,0,0,1-.643.633C436.478,426.462,432.144,424.784,429.009,421.6Z" transform="translate(-421.292 -395.986)"/></g><g transform="translate(427.228 394.753)"><path class="g" d="M448.384,428.249c5.744-.19,10.374-2.032,13.773-5.484,5.864-5.958,6.606-15.237,6.527-20.239a4.277,4.277,0,0,0-4.264-4.185h-5.687a2.355,2.355,0,0,1-2.355-2.355H445.987v43.226h9.7v-2.147a4.294,4.294,0,0,0-4.295-4.295h-.069a2.563,2.563,0,0,0-2.563-2.563h-.336a.979.979,0,0,1-.038-1.957Zm-.942-2.288a.638.638,0,0,1,.528-.622,10.392,10.392,0,0,0,8.409-10.2V403.883A3.879,3.879,0,0,1,460.257,400h4.163a2.607,2.607,0,0,1,2.6,2.548c.075,4.741-.611,13.52-6.05,19.046-3.135,3.185-7.468,4.864-12.887,5A.633.633,0,0,1,447.441,425.961Z" transform="translate(-445.987 -395.986)"/></g><g transform="translate(304.172 517.463)"><g transform="translate(0)"><path class="h" d="M405.361,553.092a.837.837,0,0,1-.846.831H325.668c-7.465,0-13.541-5.294-13.541-11.806v-.84c0-6.513,6.076-11.806,13.541-11.806h78.847a.831.831,0,1,1,0,1.662H399.68c-4.606,1.653-7.869,5.582-7.869,10.144v.84c0,4.562,3.263,8.5,7.869,10.144h4.835A.836.836,0,0,1,405.361,553.092Z" transform="translate(-312.127 -529.47)"/></g></g><g transform="translate(376.437 467.73)"><g transform="translate(0)"><path class="h" d="M483.971,499.419a.844.844,0,0,1-.846.846H404.278q-.634,0-1.241-.055c-6.885-.552-12.3-5.7-12.3-11.96v-.855c0-6.628,6.076-12.024,13.541-12.024h78.847a.85.85,0,0,1,0,1.7H478.3c-4.615,1.673-7.878,5.681-7.878,10.324v.855c0,4.642,3.263,8.641,7.878,10.324h4.826A.844.844,0,0,1,483.971,499.419Z" transform="translate(-390.737 -475.37)"/></g></g><g transform="translate(333.157 492.569)"><path class="i" d="M436.891,526.439a.843.843,0,0,1-.846.846H357.2c-7.464,0-13.54-5.387-13.54-12.015v-.864c0-6.619,6.076-12.015,13.54-12.015h78.848a.846.846,0,0,1,0,1.691h-4.826c-4.616,1.682-7.878,5.681-7.878,10.324v.864c0,4.642,3.263,8.641,7.878,10.324h4.826A.843.843,0,0,1,436.891,526.439Z" transform="translate(-343.657 -502.39)"/></g><g transform="translate(269.124 488.377)"><path class="e" d="M298.83,517.115l2.993-17.608a1.436,1.436,0,0,0-1.656-1.656l-17.608,2.993a1.435,1.435,0,0,0-.774,2.43l2.345,2.346a1.435,1.435,0,0,1,0,2.03l-9.709,9.709a1.435,1.435,0,0,0,0,2.03l5.864,5.864a1.435,1.435,0,0,0,2.03,0l9.709-9.709a1.436,1.436,0,0,1,2.03,0l2.346,2.346A1.435,1.435,0,0,0,298.83,517.115Z" transform="translate(-274.001 -497.83)"/></g><g transform="translate(264.443 485.488)"><path class="j" d="M276.409,522.932a1.631,1.631,0,0,1-1.157-.479l-5.864-5.862a1.642,1.642,0,0,1,0-2.318l9.71-9.709a1.231,1.231,0,0,0,0-1.742l-2.346-2.349a1.637,1.637,0,0,1,.884-2.771l17.607-2.992a1.636,1.636,0,0,1,1.888,1.887l-2.993,17.607a1.61,1.61,0,0,1-1.116,1.287,1.643,1.643,0,0,1-1.656-.4l-2.345-2.349a1.239,1.239,0,0,0-1.744,0l-9.71,9.709A1.632,1.632,0,0,1,276.409,522.932Zm19.114-27.841a1.388,1.388,0,0,0-.212.017L277.7,498.1a1.232,1.232,0,0,0-.666,2.087l2.346,2.349a1.637,1.637,0,0,1,0,2.316l-9.71,9.709a1.232,1.232,0,0,0,0,1.742l5.864,5.862a1.262,1.262,0,0,0,1.744,0l9.71-9.71a1.647,1.647,0,0,1,2.316,0l2.345,2.349a1.234,1.234,0,0,0,2.088-.667l2.993-17.607a1.233,1.233,0,0,0-1.21-1.44Z" transform="translate(-268.909 -494.687)"/></g><g transform="translate(464.303 388.341)"><path class="k" d="M486.516,412.991a.2.2,0,0,1-.167-.3c.058-.093,5.837-9.46,4.865-23.465a.2.2,0,1,1,.394-.028c.982,14.14-4.866,23.609-4.925,23.7A.2.2,0,0,1,486.516,412.991Z" transform="translate(-486.318 -389.011)"/></g><g transform="translate(315.628 527.518)"><g transform="translate(0 0)"><path class="j" d="M338.6,540.63H324.7a.111.111,0,1,1,0-.222h13.9a.111.111,0,1,1,0,.222Z" transform="translate(-324.589 -540.408)"/></g><g transform="translate(0 2.06)"><path class="j" d="M338.6,542.871H324.7a.111.111,0,1,1,0-.222h13.9a.111.111,0,1,1,0,.222Z" transform="translate(-324.589 -542.649)"/></g><g transform="translate(0 4.119)"><path class="j" d="M338.6,545.111H324.7a.111.111,0,1,1,0-.222h13.9a.111.111,0,1,1,0,.222Z" transform="translate(-324.589 -544.889)"/></g></g><g transform="translate(388.859 477.683)"><path class="j" d="M418.264,486.419h-13.9a.111.111,0,0,1,0-.222h13.9a.111.111,0,1,1,0,.222Z" transform="translate(-404.249 -486.197)"/><g transform="translate(0 2.06)"><path class="j" d="M418.264,488.66h-13.9a.111.111,0,0,1,0-.222h13.9a.111.111,0,1,1,0,.222Z" transform="translate(-404.249 -488.438)"/></g><g transform="translate(0 4.12)"><path class="j" d="M418.264,490.9h-13.9a.111.111,0,1,1,0-.222h13.9a.111.111,0,1,1,0,.222Z" transform="translate(-404.249 -490.679)"/></g></g><g transform="translate(504.299 491.468)"><path class="l" d="M543.84,501.414h-13.9a.111.111,0,0,1,0-.222h13.9a.111.111,0,0,1,0,.222Z" transform="translate(-529.825 -501.192)"/><g transform="translate(0 2.06)"><path class="l" d="M543.84,503.655h-13.9a.111.111,0,0,1,0-.222h13.9a.111.111,0,0,1,0,.222Z" transform="translate(-529.825 -503.433)"/></g><g transform="translate(0 4.12)"><path class="l" d="M543.84,505.9h-13.9a.111.111,0,0,1,0-.222h13.9a.111.111,0,1,1,0,.222Z" transform="translate(-529.825 -505.674)"/></g></g><g transform="translate(299.698 380.71)"><g transform="translate(39.281 51.636)"><path class="f" d="M384.647,456.737,374.075,489.6l-.12.377-.754,2.335-3.493-.5s-.294-19.71,3.668-29.049l-17.963-6.674-.055-.018-4.9-1.82-.469-15.876.45-.064.313-.055,9.073-1.379,1.9,1.526Z" transform="translate(-349.99 -436.88)"/></g><g transform="translate(4.44 14.148)"><path class="k" d="M403.853,399.152l-.046,3.585L367.523,405.2c-1.48,6.941-7.759,26.521-8.853,29.914l-1.9-1.526-9.073,1.379-8.513-.4h-.037c0-.009.009-.009.009-.018.156-.616,5.332-20.142,7.465-26.282.009.009.018.009.037.009a.034.034,0,0,0,.028.009.2.2,0,0,0,.193-.175l.4-2.6a.2.2,0,0,0-.165-.23.21.21,0,0,0-.221.165l-.4,2.611a.217.217,0,0,0,.009.11l-33.048,14.516-1.361-2.326s14.782-13.275,32.478-20.822c.028.11.064.221.1.34a4,4,0,0,0,4.21,2.831,7.567,7.567,0,0,0,7.051-6.518l-.092.68,2.215-.772c.643,0,1.287.018,1.931.064C368.387,396.734,377.966,397.359,403.853,399.152Z" transform="translate(-312.09 -396.1)"/><path class="k" d="M350.3,406.32l-.4,2.6a.2.2,0,0,1-.193.175.034.034,0,0,1-.028-.009c-.018,0-.028,0-.037-.009.018-.064.046-.129.064-.184l-.184.083a.217.217,0,0,1-.009-.11l.4-2.611a.21.21,0,0,1,.221-.165A.2.2,0,0,1,350.3,406.32Z" transform="translate(-315.11 -396.906)"/><path class="k" d="M353.2,397.331a23.681,23.681,0,0,1,5.58-1.131,7.567,7.567,0,0,1-7.051,6.518,4,4,0,0,1-4.21-2.831c-.037-.12-.074-.23-.1-.34C349.314,398.728,351.253,397.983,353.2,397.331Z" transform="translate(-314.942 -396.108)"/><path class="k" d="M359.68,396.872l.092-.68c.708-.064,1.416-.092,2.124-.092Z" transform="translate(-315.931 -396.1)"/></g><g transform="translate(36.193)"><path class="d" d="M364.584,388.524l-5.847,6.315-.018.11a7.567,7.567,0,0,1-7.051,6.518,4,4,0,0,1-4.21-2.831c-.037-.12-.074-.23-.1-.34-3.135-10.37,4.909-12.245,4.909-12.245.524-3.567,2.482-2.307,2.482-2.307a9.025,9.025,0,0,1,5.819-3.034C368.776,381.335,364.584,388.524,364.584,388.524Z" transform="translate(-346.631 -380.71)"/></g><g transform="translate(48.189 6.941)"><path class="k" d="M366.777,391.569l-1.655,2.05-3.024-.037-.2,1.885-2.215.772.092-.68.018-.11a23.076,23.076,0,0,1,.064-4.321c.5-1.747,1.535-.671,1.535-.671,2.85.708,3.833-2.2,3.833-2.2l.414.873Z" transform="translate(-359.68 -388.26)"/></g><g transform="translate(17.871 52.62)"><path class="f" d="M359.583,438.851c-.018.046-.028.092-.046.138-1.682,5.093-3.668,10.884-6,17.191-1.2,3.263-2.491,6.674-3.879,10.195-.129.34-.2.524-.2.524-5.038,12.769-11.27,27.045-18.79,41.754l-.193.359c-.221.432-.441.873-.671,1.315l-3.1-1.7s6.977-40.633,13.661-70.675l8.513.4,10.6.5Z" transform="translate(-326.7 -437.95)"/></g><g transform="translate(0 38.408)"><path class="d" d="M313.061,424.816c-2.409,3.245-5.8.579-5.8.579l4.44-2.9Z" transform="translate(-307.26 -422.49)"/></g><g transform="translate(96.157 17.2)"><path class="d" d="M417.891,399.484a5.407,5.407,0,0,1-6.031,3.521l.046-3.585Z" transform="translate(-411.86 -399.42)"/></g><g transform="translate(15.282 123.295)"><path class="d" d="M326.471,514.83l-2.078,1.163a1.344,1.344,0,0,0-.008,2.1l6.054,4.768a.724.724,0,0,0,1.133-.774l-2-5.553Z" transform="translate(-323.884 -514.83)"/></g><g transform="translate(57.913 106.577)"><path class="d" d="M371.347,496.644l-1.027,2.228a1.334,1.334,0,0,0,1.171,1.734l7.676.469a.729.729,0,0,0,.5-1.283l-4.827-2.658Z" transform="translate(-370.257 -496.644)"/></g><g transform="translate(38.836 23.331)"><path class="d" d="M350.3,406.32l-.4,2.6a.2.2,0,0,1-.193.175.034.034,0,0,1-.028-.009c-.018,0-.028,0-.037-.009a.175.175,0,0,1-.129-.211l.4-2.611a.21.21,0,0,1,.221-.165A.2.2,0,0,1,350.3,406.32Z" transform="translate(-349.506 -406.089)"/></g><g transform="translate(20 122.121)"><path class="d" d="M331.175,515.452a.2.2,0,0,1-.122-.04l-1.961-1.5a.2.2,0,0,1-.037-.277.2.2,0,0,1,.274-.039l1.961,1.5a.2.2,0,0,1-.115.356Z" transform="translate(-329.016 -513.553)"/></g><g transform="translate(60.738 103.666)"><path class="d" d="M377,494.878a.185.185,0,0,1-.044-.007l-3.485-1a.2.2,0,0,1-.134-.245.194.194,0,0,1,.242-.135l3.485,1a.2.2,0,0,1-.063.387Z" transform="translate(-373.331 -493.478)"/></g><path class="m" d="M361.473,438.916c-1.967,6.951-10.027,28.059-10.027,28.059" transform="translate(-310.826 -385.408)"/><g transform="translate(31.532 51.636)"><path class="k" d="M361.049,438.406c-.11.331-.165.506-.165.506l-.147-.009h-.11l-10.866-.588-8.2-.45,8.513.4,9.073-1.379Z" transform="translate(-341.56 -436.88)"/></g></g><line class="n" x1="5.581" y2="19.09" transform="translate(355.557 409.147)"/><path class="o" d="M472.4,412.836s-1.371,14.551-14.064,17.994" transform="translate(-19.756 -2.593)"/></g></g></svg>