<?xml version="1.0" encoding="utf-8"?>
<!-- Generator: Adobe Illustrator 17.0.0, SVG Export Plug-In . SVG Version: 6.00 Build 0)  -->
<!DOCTYPE svg PUBLIC "-//W3C//DTD SVG 1.1//EN" "http://www.w3.org/Graphics/SVG/1.1/DTD/svg11.dtd">
<svg version="1.1" id="Capa_1" xmlns="http://www.w3.org/2000/svg" xmlns:xlink="http://www.w3.org/1999/xlink" x="0px" y="0px"
	 width="500px" height="500px" viewBox="0 0 500 500" enable-background="new 0 0 500 500" xml:space="preserve">
<g>
	<g>
		<path fill="#425EB9" d="M390.406,359.246c-7.224,0-13.073,6.02-13.073,13.245c0,7.052,5.676,13.245,13.073,13.245
			s13.245-6.192,13.245-13.245C403.651,365.266,397.631,359.246,390.406,359.246z"/>
		<path fill="#425EB9" d="M392.643,258.962c-23.222,0-33.886,13.761-33.886,23.049c0,6.709,5.676,9.805,10.321,9.805
			c9.288,0,5.504-13.245,23.049-13.245c8.601,0,15.481,3.784,15.481,11.697c0,9.289-9.633,14.621-15.309,19.438
			c-4.988,4.3-11.525,11.353-11.525,26.146c0,8.944,2.408,11.525,9.46,11.525c8.429,0,10.148-3.784,10.148-7.052
			c0-8.945,0.173-14.105,9.633-21.501c4.644-3.612,19.265-15.309,19.265-31.478S414.66,258.962,392.643,258.962z"/>
	</g>
	<path fill="#425EB9" d="M500,400.971V33.012C499.979,14.789,485.211,0.022,466.987,0H33.012C14.789,0.021,0.022,14.789,0,33.012
		v367.959c0.021,18.223,14.789,32.991,33.012,33.012h8.253v49.502c-0.006,6.679,4.015,12.703,10.185,15.259
		s13.273,1.139,17.991-3.588c0.198-0.194,0.384-0.399,0.556-0.617l49.457-60.555h347.533
		C485.212,433.962,499.979,419.194,500,400.971z M115.542,417.477c-0.139,0-0.254,0.073-0.392,0.079
		c-1.061,0.16-2.106,0.417-3.118,0.77c-0.429,0.236-0.837,0.511-1.217,0.82c-0.489,0.32-0.943,0.691-1.352,1.108
		c-0.093,0.103-0.222,0.147-0.312,0.256l-51.38,62.905v-57.686c0-4.558-3.695-8.253-8.253-8.253H33.011
		c-9.112-0.009-16.497-7.394-16.506-16.506V33.011c0.009-9.112,7.394-16.497,16.506-16.506h433.977
		c9.112,0.009,16.497,7.394,16.506,16.506V400.97c-0.009,9.112-7.394,16.497-16.506,16.506L115.542,417.477L115.542,417.477z"/>
	<g>
		<path fill="#425EB9" d="M438.057,60.195c0,6.337-5.137,11.475-11.475,11.475H63.713c-6.337,0-11.475-5.137-11.475-11.475l0,0
			c0-6.337,5.137-11.475,11.475-11.475h362.87C432.92,48.72,438.057,53.857,438.057,60.195L438.057,60.195z"/>
		<path fill="#425EB9" d="M438.057,110.486c0,6.337-5.137,11.475-11.475,11.475H63.713c-6.337,0-11.475-5.137-11.475-11.475l0,0
			c0-6.337,5.137-11.475,11.475-11.475h362.87C432.92,99.012,438.057,104.149,438.057,110.486L438.057,110.486z"/>
		<path fill="#425EB9" d="M438.057,163.357c0,6.337-5.137,11.475-11.475,11.475H63.713c-6.337,0-11.475-5.137-11.475-11.475l0,0
			c0-6.337,5.137-11.475,11.475-11.475h362.87C432.92,151.882,438.057,157.02,438.057,163.357L438.057,163.357z"/>
	</g>
	<g>
		<path fill="#425EB9" d="M438.057,219.187c0,6.337-5.137,11.475-11.475,11.475H63.713c-6.337,0-11.475-5.137-11.475-11.475l0,0
			c0-6.337,5.137-11.475,11.475-11.475h362.87C432.92,207.712,438.057,212.849,438.057,219.187L438.057,219.187z"/>
		<path fill="#425EB9" d="M330.062,269.478c0,6.337-5.137,11.475-11.475,11.475H63.713c-6.337,0-11.475-5.137-11.475-11.475l0,0
			c0-6.337,5.137-11.475,11.475-11.475h254.875C324.925,258.004,330.062,263.141,330.062,269.478L330.062,269.478z"/>
		<path fill="#425EB9" d="M330.062,322.349c0,6.337-5.137,11.475-11.475,11.475H63.713c-6.337,0-11.475-5.137-11.475-11.475l0,0
			c0-6.337,5.137-11.475,11.475-11.475h254.875C324.925,310.874,330.062,316.012,330.062,322.349L330.062,322.349z"/>
		<path fill="#425EB9" d="M330.062,376.85c0,6.337-5.137,11.475-11.475,11.475H63.713c-6.337,0-11.475-5.137-11.475-11.475l0,0
			c0-6.337,5.137-11.475,11.475-11.475h254.875C324.925,365.375,330.062,370.513,330.062,376.85L330.062,376.85z"/>
	</g>
</g>
</svg>
