<?xml version="1.0" encoding="utf-8"?>
<!-- Generator: Adobe Illustrator 17.0.0, SVG Export Plug-In . SVG Version: 6.00 Build 0)  -->
<!DOCTYPE svg PUBLIC "-//W3C//DTD SVG 1.1//EN" "http://www.w3.org/Graphics/SVG/1.1/DTD/svg11.dtd">
<svg version="1.1" id="Capa_1" xmlns="http://www.w3.org/2000/svg" xmlns:xlink="http://www.w3.org/1999/xlink" x="0px" y="0px"
	 width="500px" height="500px" viewBox="0 0 500 500" enable-background="new 0 0 500 500" xml:space="preserve">
<g>
	<path fill="#425EB9" d="M316.149,332.546h-0.024c-4.558,0.002-8.251,3.699-8.249,8.257c0.002,4.558,3.699,8.251,8.258,8.249h0.016
		c4.552,0.005,8.243,3.692,8.253,8.245c0.005,4.554,3.698,8.244,8.253,8.245h0.009c4.558-0.005,8.249-3.703,8.245-8.261
		C340.88,343.622,329.807,332.561,316.149,332.546z"/>
	<path fill="#425EB9" d="M216.996,365.559l16.506-0.016c4.558-0.002,8.251-3.699,8.249-8.258c-0.002-4.558-3.699-8.251-8.258-8.249
		h-0.009l-16.506,0.016c-4.558,0.002-8.251,3.699-8.249,8.258c0.002,4.558,3.699,8.251,8.258,8.249H216.996z"/>
	<path fill="#425EB9" d="M220.24,331.272l15.515,5.63c2.775,1.019,5.882,0.477,8.148-1.422c2.266-1.898,3.342-4.865,2.823-7.774
		c-0.519-2.91-2.555-5.32-5.338-6.318l-15.515-5.63c-4.28-1.538-8.996,0.675-10.549,4.95
		C213.773,324.982,215.971,329.706,220.24,331.272z"/>
	<path fill="#425EB9" d="M243.921,379.272c-2.26-1.894-5.359-2.437-8.129-1.427l-15.506,5.658c-2.77,1.011-4.79,3.423-5.3,6.326
		c-0.51,2.904,0.569,5.86,2.829,7.754s5.359,2.437,8.129,1.427l15.506-5.658c2.77-1.011,4.79-3.423,5.3-6.326
		C247.259,384.121,246.181,381.166,243.921,379.272z"/>
	<path fill="#425EB9" d="M415.06,349.019L415.06,349.019h-0.009l-16.506,0.016c-4.535,0.034-8.193,3.722-8.191,8.257
		c0.002,4.535,3.664,8.219,8.198,8.249h0.008l16.506-0.016c4.558-0.002,8.251-3.699,8.249-8.258
		C423.314,352.709,419.618,349.018,415.06,349.019z"/>
	<path fill="#425EB9" d="M393.677,337.265L393.677,337.265c0.965-0.002,1.923-0.173,2.829-0.504l15.502-5.658
		c2.77-1.011,4.79-3.423,5.3-6.326c0.51-2.903-0.569-5.86-2.829-7.754s-5.359-2.437-8.129-1.427l-15.502,5.658
		c-3.761,1.373-5.994,5.248-5.298,9.191C386.246,334.388,389.674,337.264,393.677,337.265z"/>
	<path fill="#425EB9" d="M412.058,383.338l-15.515-5.634c-4.28-1.538-8.996,0.675-10.549,4.95
		c-1.552,4.275,0.646,8.998,4.915,10.565l15.515,5.634c4.278,1.531,8.989-0.683,10.539-4.953
		C418.514,389.628,416.321,384.907,412.058,383.338z"/>
	<path fill="#425EB9" d="M365.542,200.482V35.422c-0.021-18.223-14.789-32.99-33.013-33.012H35.422
		C17.199,2.431,2.432,17.199,2.41,35.422v165.06c0.021,18.223,14.789,32.991,33.012,33.012h8.253v49.502
		c-0.006,6.679,4.015,12.703,10.185,15.259s13.273,1.139,17.991-3.588c0.198-0.194,0.384-0.399,0.556-0.617l49.457-60.555h210.665
		C350.754,233.473,365.521,218.705,365.542,200.482z M117.952,216.988c-0.139,0-0.254,0.073-0.392,0.079
		c-1.061,0.16-2.106,0.417-3.118,0.77c-0.429,0.236-0.837,0.511-1.217,0.82c-0.489,0.32-0.943,0.691-1.352,1.108
		c-0.093,0.103-0.222,0.147-0.312,0.256l-51.38,62.905V225.24c0-4.558-3.695-8.253-8.253-8.253H35.421
		c-9.112-0.009-16.497-7.394-16.506-16.506V35.421c0.009-9.112,7.394-16.497,16.506-16.506H332.53
		c9.112,0.009,16.497,7.394,16.506,16.506v165.06c-0.009,9.112-7.394,16.497-16.506,16.506L117.952,216.988L117.952,216.988z"/>
	<path fill="#425EB9" d="M464.578,266.506h-8.253v-49.501c-0.001-6.675-4.022-12.694-10.19-15.248
		c-6.167-2.554-13.266-1.142-17.987,3.577c-0.198,0.194-0.384,0.399-0.556,0.617l-49.457,60.555H167.47
		c-18.223,0.021-32.991,14.789-33.012,33.012v165.06c0.021,18.223,14.789,32.991,33.012,33.012h297.108
		c18.223-0.021,32.991-14.789,33.012-33.012v-165.06C497.568,281.295,482.801,266.527,464.578,266.506z M481.083,464.578
		c-0.009,9.112-7.394,16.497-16.506,16.506H167.469c-9.112-0.009-16.497-7.394-16.506-16.506v-165.06
		c0.009-9.112,7.394-16.497,16.506-16.506h214.578c1.155-0.007,2.295-0.258,3.345-0.739c0.245-0.148,0.483-0.308,0.711-0.48
		c0.76-0.418,1.45-0.954,2.041-1.588c0.086-0.096,0.212-0.128,0.294-0.228l51.38-62.905v57.687c0,4.558,3.695,8.253,8.253,8.253
		h16.506c9.112,0.009,16.497,7.394,16.506,16.506V464.578L481.083,464.578z"/>
	<path fill="#425EB9" d="M322.971,299.929c-25.623-3.114-50.201,11.152-60.205,34.946c-10.004,23.794-3.004,51.337,17.147,67.467
		c1.95,1.535,3.092,3.877,3.099,6.359v6.359c0.018,5.866,3.159,11.278,8.243,14.205l0.01,10.562
		c0.028,7.949,3.858,15.405,10.304,20.056c4.197,3.047,9.252,4.687,14.439,4.683c2.761-0.005,5.504-0.452,8.124-1.326
		c10.211-3.643,16.931-13.429,16.663-24.268l-0.008-9.704c5.087-2.926,8.23-8.34,8.249-14.208v-6.335
		c0.052-2.573,1.269-4.983,3.309-6.552c16.188-12.979,24.111-33.686,20.721-54.156C368.755,322.718,348.425,303.203,322.971,299.929
		z M318.945,447.572c-2.591,0.931-5.474,0.531-7.713-1.072c-2.16-1.547-3.447-4.034-3.461-6.69l-0.009-8.245h16.523l0.004,7.423
		C324.459,442.681,322.334,446.095,318.945,447.572z M341.976,389.33c-5.931,4.695-9.406,11.831-9.446,19.395v6.307h-0.009
		l-33.004,0.028v-6.359c0.005-7.5-3.42-14.59-9.296-19.25c-13.643-10.951-18.894-29.316-13.105-45.824s21.361-27.57,38.855-27.602
		c1.695,0,3.39,0.099,5.074,0.298c18.142,2.326,32.635,16.229,35.716,34.257C359.196,365.218,353.544,380.033,341.976,389.33z"/>
	<g>
		<path fill="#425EB9" d="M282.857,63.209c0,6.337-5.137,11.475-11.475,11.475H96.57c-6.337,0-11.475-5.137-11.475-11.475l0,0
			c0-6.337,5.137-11.475,11.475-11.475h174.813C277.72,51.734,282.857,56.871,282.857,63.209L282.857,63.209z"/>
		<path fill="#425EB9" d="M282.857,113.5c0,6.337-5.137,11.475-11.475,11.475H96.57c-6.337,0-11.475-5.137-11.475-11.475l0,0
			c0-6.337,5.137-11.475,11.475-11.475h174.813C277.72,102.026,282.857,107.163,282.857,113.5L282.857,113.5z"/>
		<path fill="#425EB9" d="M282.857,166.371c0,6.337-5.137,11.475-11.475,11.475H96.57c-6.337,0-11.475-5.137-11.475-11.475l0,0
			c0-6.337,5.137-11.475,11.475-11.475h174.813C277.72,154.896,282.857,160.034,282.857,166.371L282.857,166.371z"/>
	</g>
</g>
</svg>
