<?xml version="1.0" encoding="utf-8"?>
<!-- Generator: Adobe Illustrator 17.0.0, SVG Export Plug-In . SVG Version: 6.00 Build 0)  -->
<!DOCTYPE svg PUBLIC "-//W3C//DTD SVG 1.1//EN" "http://www.w3.org/Graphics/SVG/1.1/DTD/svg11.dtd">
<svg version="1.1" id="Capa_1" xmlns="http://www.w3.org/2000/svg" xmlns:xlink="http://www.w3.org/1999/xlink" x="0px" y="0px"
	 width="500px" height="500px" viewBox="0 0 500 500" enable-background="new 0 0 500 500" xml:space="preserve">
<g>
	<path fill="#425EB9" d="M443.59,152.967l10.2-11.865l9.94,8.546c1.339,1.151,3.042,1.778,4.795,1.778
		c0.184,0,0.369-0.007,0.553-0.021c1.945-0.147,3.752-1.06,5.024-2.54l15.791-18.367c2.648-3.08,2.298-7.723-0.783-10.371
		L434.8,73.435c-1.48-1.272-3.403-1.911-5.348-1.757c-1.945,0.146-3.752,1.06-5.024,2.539l-15.791,18.367
		c-2.648,3.08-2.298,7.723,0.783,10.371l9.94,8.546l-10.98,12.772c-22.492-14.366-48.087-24.284-75.538-28.496V73.555h25.33
		c11.822,0,21.439-9.618,21.439-21.44V35.003c0-11.822-9.618-21.44-21.439-21.44h-110.5c-11.822,0-21.44,9.618-21.44,21.44v17.112
		c0,11.822,9.618,21.44,21.44,21.44h25.331v22.223c-27.992,4.295-54.051,14.529-76.862,29.356l-11.719-13.632l9.941-8.546
		c1.479-1.272,2.392-3.079,2.539-5.024c0.146-1.945-0.485-3.869-1.757-5.348l-15.791-18.367c-2.649-3.079-7.291-3.43-10.372-0.782
		l-54.309,46.692c-1.479,1.272-2.392,3.079-2.539,5.024c-0.146,1.945,0.485,3.869,1.757,5.348l15.791,18.367
		c1.454,1.692,3.512,2.559,5.58,2.559c1.697,0,3.404-0.584,4.791-1.778l9.94-8.545l11.166,12.987
		c-9.663,10.078-18.262,21.184-25.622,33.13c-0.248-0.025-0.5-0.038-0.756-0.038H88.333c-4.062,0-7.355,3.293-7.355,7.355
		s3.293,7.355,7.355,7.355h39.008c-3.872,7.688-7.254,15.663-10.104,23.884H42.926c-4.062,0-7.355,3.293-7.355,7.355
		s3.293,7.355,7.355,7.355h69.846c-2.656,10.195-4.499,20.712-5.483,31.475H7.966c-4.062,0-7.355,3.293-7.355,7.355
		s3.293,7.355,7.355,7.355h98.533c-0.019,1.099-0.042,2.197-0.042,3.301c0,9.566,0.701,18.97,2.029,28.174H36.062
		c-4.062,0-7.355,3.293-7.355,7.355s3.293,7.355,7.355,7.355h75.122c1.824,8.163,4.153,16.136,6.961,23.883H81.469
		c-4.062,0-7.355,3.293-7.355,7.355s3.293,7.355,7.355,7.355h42.697c31.017,67.78,99.474,114.989,178.757,114.989
		c41.409,0,81.014-12.732,114.534-36.821c3.298-2.37,4.051-6.966,1.681-10.264c-2.373-3.3-6.967-4.05-10.265-1.68
		c-31.003,22.28-67.64,34.056-105.949,34.056c-100.221,0-181.757-81.535-181.757-181.756s81.535-181.757,181.757-181.757
		c48.515,0,92.651,19.108,125.279,50.192c0.067,0.071,0.141,0.135,0.211,0.204c34.651,33.116,56.266,79.761,56.266,131.361
		c0,48.608-18.946,94.291-53.348,128.633c-2.875,2.87-2.879,7.526-0.009,10.402c2.869,2.874,7.526,2.879,10.401,0.009
		c37.186-37.122,57.666-86.501,57.666-139.044C499.387,236.734,478.095,188.386,443.59,152.967L443.59,152.967z M430.788,89.384
		l43.156,37.102l-6.202,7.213l-43.156-37.102L430.788,89.384z M430.514,121.092l12.122,10.421l-9.708,11.293
		c-3.991-3.53-8.12-6.91-12.389-10.111L430.514,121.092z M270.396,58.846V28.271h11.877v30.574L270.396,58.846L270.396,58.846z
		 M296.982,28.271h11.877v30.574h-11.877V28.271z M323.569,58.846V28.271h11.878v30.574L323.569,58.846L323.569,58.846z
		 M364.902,35.003v17.112c0,3.712-3.019,6.731-6.73,6.731h-8.015V28.271h8.015C361.883,28.271,364.902,31.291,364.902,35.003z
		 M240.939,52.114V35.003c0-3.712,3.019-6.731,6.731-6.731h8.015v30.574h-8.015C243.96,58.846,240.939,55.826,240.939,52.114
		L240.939,52.114z M136.038,133.7l-6.202-7.213l43.156-37.102l6.201,7.213l-9.939,8.545c0,0-0.001,0.001-0.002,0.001l-23.275,20.011
		c-0.001,0.001-0.001,0.001-0.002,0.002L136.038,133.7z M161.364,131.324l11.901-10.232l10.796,12.557
		c-4.243,3.234-8.353,6.634-12.316,10.196l-10.602-12.33L161.364,131.324z M287.711,94.087V73.555h30.422v20.533
		c-5.021-0.386-10.094-0.584-15.211-0.584S292.73,93.702,287.711,94.087L287.711,94.087z"/>
	<g>
		<path fill="#425EB9" d="M303.092,435.875c-80.738,0-146.423-65.685-146.423-146.424c0-80.738,65.685-146.423,146.423-146.423
			c80.737,0,146.423,65.685,146.423,146.423S383.831,435.875,303.092,435.875z M303.092,158.615
			c-72.143,0-130.836,58.693-130.836,130.836c0,72.144,58.693,130.837,130.836,130.837s130.836-58.693,130.836-130.837
			C433.928,217.308,375.236,158.615,303.092,158.615z"/>
	</g>
	<path fill="#425EB9" d="M332.516,251.715h8.317c4.166,0,7.547,3.381,7.547,7.547c0,4.166-3.381,7.547-7.547,7.547h-8.317
		c-3.502,17.208-18.748,30.189-36.967,30.189h-11.97l47.488,47.488c2.943,2.943,2.943,7.728,0,10.672
		c-1.464,1.479-3.396,2.219-5.328,2.219s-3.864-0.74-5.344-2.204l-60.379-60.379c-2.159-2.174-2.808-5.404-1.63-8.227
		c1.162-2.823,3.925-4.664,6.974-4.664h30.189c9.827,0,18.129-6.325,21.253-15.095h-51.443c-4.166,0-7.547-3.381-7.547-7.547
		s3.381-7.547,7.547-7.547h51.443c-3.125-8.77-11.427-15.095-21.253-15.095H265.36c-4.166,0-7.547-3.381-7.547-7.547
		s3.381-7.547,7.547-7.547h30.189h45.284c4.166,0,7.547,3.381,7.547,7.547s-3.381,7.547-7.547,7.547h-15.291
		C328.878,241.028,331.384,246.1,332.516,251.715z"/>
</g>
</svg>
