<svg id="Layer_1" data-name="Layer 1" xmlns="http://www.w3.org/2000/svg" viewBox="0 0 512 512"><defs><style>.cls-1{fill:#141f38;}</style></defs><title>thumb-up-glyph</title><path class="cls-1" d="M512,223.18a39.45,39.45,0,0,1-25.61,36.9,39.37,39.37,0,0,1-23.93,68,39.36,39.36,0,0,1-26.26,65.64A39.36,39.36,0,0,1,407,459.49H190.36a6.56,6.56,0,0,1-4.64-1.92s-6.85-5.73-28.18-9V245.95c75.15-16,91.9-87.54,91.9-147.49,0-58.4,45.49-59.08,45.95-59.08,13.25,0,24.2,5.07,32.54,15.06C354.22,86,346,159.58,342.47,183.79H472.62A39.43,39.43,0,0,1,512,223.18ZM144.41,256V439.79a32.86,32.86,0,0,1-32.82,32.82H32.82A32.86,32.86,0,0,1,0,439.79V256a32.86,32.86,0,0,1,32.82-32.82h78.77A32.86,32.86,0,0,1,144.41,256ZM85.33,413.54a13.13,13.13,0,1,0-13.13,13.13A13.13,13.13,0,0,0,85.33,413.54Z"/></svg>