<svg xmlns="http://www.w3.org/2000/svg" xmlns:xlink="http://www.w3.org/1999/xlink" width="800" height="455" viewBox="0 0 800 455"><defs><style>.a{fill:#fff;}.b{clip-path:url(#a);}.c{fill:none;stroke:#fcaf3a;stroke-miterlimit:10;stroke-width:2px;}.d{fill:#e9e2c3;opacity:0.603;}</style><clipPath id="a"><rect class="a" width="800" height="455" transform="translate(0)"/></clipPath></defs><g class="b" transform="translate(0)"><g transform="translate(719.472 249.956) rotate(-90)"><path class="c" d="M189.855,90.006S161.329,77.028,166.4,44.964c5.686-35.952-27.258-51.4-49.761-42.5S95.7,44.391,52.931,45.406C9.207,46.443,0,87.97,0,87.97" transform="translate(0 0)"/><path class="c" d="M138.825,82.948S126.464,55.542,130.9,28.275,115.39-2.182,107.447,1.007C90.965,7.623,87.8,43,61.172,45.285,41.158,47.007,14.263,33.325,0,64.371" transform="translate(18.066 16.728)"/><path class="c" d="M109.8,23.61S114.256-4.4,94.59.6C72.05,6.329,72.4,19.792,43.878,7.069,33.732,2.543-7.151,1.216,1.09,26.154" transform="translate(33.775 63.852)"/><ellipse class="c" cx="8.558" cy="12.597" rx="8.558" ry="12.597" transform="translate(120.759 27.405)"/></g><path class="d" d="M896.543-388.823a85.367,85.367,0,0,1,85.367,85.367,85.367,85.367,0,0,1-85.367,85.367,85.367,85.367,0,0,1-85.367-85.367A85.367,85.367,0,0,1,896.543-388.823Zm0,143.82A58.453,58.453,0,0,0,955-303.456a58.453,58.453,0,0,0-58.453-58.453,58.453,58.453,0,0,0-58.453,58.453A58.453,58.453,0,0,0,896.543-245Z" transform="translate(-371 751.456)"/></g></svg>