<svg xmlns="http://www.w3.org/2000/svg" width="142.296" height="71.939" viewBox="0 0 142.296 71.939"><defs><style>.a{fill:#e9e2c3;opacity:0.221;}.b{fill:#fcaf3a;}.c,.k{fill:#fff;}.d{fill:none;stroke:#070307;stroke-linecap:round;stroke-width:0.6px;}.d,.h,.k{stroke-miterlimit:10;}.e{fill:#fbaf2c;}.f{fill:#fd5421;}.g{opacity:0.72;}.h{stroke:#000;}.h,.k{stroke-width:0.25px;}.i{fill:#0a0d2c;}.j{fill:#314581;}.k{stroke:#fff;}</style></defs><g transform="translate(0 0.3)"><g transform="translate(16.599 8.35)"><path class="a" d="M-337.624,928.929a62.848,62.848,0,0,0-62.848,62.848h125.7A62.848,62.848,0,0,0-337.624,928.929Z" transform="translate(400.472 -928.929)"/></g><g transform="translate(57.364)"><rect class="b" width="48.758" height="60.76" rx="7.155" transform="translate(0 2.135)"/><g transform="translate(5.45 8.35)"><path class="c" d="M-301.484,929.4h-37.165a.221.221,0,0,1-.2-.235.221.221,0,0,1,.2-.235h37.165a.221.221,0,0,1,.2.235A.221.221,0,0,1-301.484,929.4Z" transform="translate(338.852 -928.929)"/><g transform="translate(0 4.34)"><path class="c" d="M-301.484,935.185h-37.165a.22.22,0,0,1-.2-.235.221.221,0,0,1,.2-.235h37.165a.221.221,0,0,1,.2.235A.22.22,0,0,1-301.484,935.185Z" transform="translate(338.852 -934.716)"/></g><g transform="translate(0 8.68)"><path class="c" d="M-301.484,940.972h-37.165a.221.221,0,0,1-.2-.235.221.221,0,0,1,.2-.235h37.165a.221.221,0,0,1,.2.235A.221.221,0,0,1-301.484,940.972Z" transform="translate(338.852 -940.502)"/></g><g transform="translate(0 13.02)"><path class="c" d="M-301.484,946.759h-37.165a.221.221,0,0,1-.2-.235.22.22,0,0,1,.2-.235h37.165a.22.22,0,0,1,.2.235A.221.221,0,0,1-301.484,946.759Z" transform="translate(338.852 -946.289)"/></g><g transform="translate(0 17.359)"><path class="c" d="M-301.484,952.545h-37.165a.221.221,0,0,1-.2-.235.221.221,0,0,1,.2-.235h37.165a.221.221,0,0,1,.2.235A.221.221,0,0,1-301.484,952.545Z" transform="translate(338.852 -952.075)"/></g><g transform="translate(0 21.699)"><path class="c" d="M-301.484,958.331h-37.165a.22.22,0,0,1-.2-.235.221.221,0,0,1,.2-.235h37.165a.221.221,0,0,1,.2.235A.22.22,0,0,1-301.484,958.331Z" transform="translate(338.852 -957.861)"/></g><g transform="translate(0 26.039)"><path class="c" d="M-301.484,964.117h-37.165a.22.22,0,0,1-.2-.235.22.22,0,0,1,.2-.235h37.165a.22.22,0,0,1,.2.235A.22.22,0,0,1-301.484,964.117Z" transform="translate(338.852 -963.648)"/></g><g transform="translate(0 30.378)"><path class="c" d="M-301.484,969.9h-37.165a.221.221,0,0,1-.2-.236.22.22,0,0,1,.2-.235h37.165a.22.22,0,0,1,.2.235A.221.221,0,0,1-301.484,969.9Z" transform="translate(338.852 -969.434)"/></g></g><g transform="translate(34.804 34.8)"><rect class="c" width="32.703" height="34.772" rx="10.34" transform="translate(0 0)"/></g><path class="d" d="M-291.2,917.8h3.768a5.832,5.832,0,0,1,5.832,5.832v6.1" transform="translate(332.388 -917.795)"/></g><g transform="translate(0 45.124)"><path class="e" d="M-400.431,989.293s-4.351-7.941-11.84-10.285l-.043,2.938-1.594-3.55a26.55,26.55,0,0,0-8.7-.128,37.321,37.321,0,0,0,6.824,15.619l4.836-1.1-3.568,2.769s3.984,8.875,16.1,8.466Z" transform="translate(422.605 -977.961)"/><g transform="translate(18.006 6.153)"><path class="f" d="M-397.967,1006.087s-3.158-7.541,4.674-12.368c0,0,1.328,1.587.941,2.3,0,0,6.2-9.392,14.206-9.855,0,0,2.125,4.99-.438,9.111,0,0,1.75.556,2.439-1.632a14.484,14.484,0,0,1-2.439,10.617s1.805.325,1.923,1.826Z" transform="translate(398.596 -986.165)"/><g class="g"><path class="f" d="M-380.011,993.151a13.155,13.155,0,0,1,2.295.2,11.739,11.739,0,0,0-.43-7.189c-8,.463-14.206,9.855-14.206,9.855.387-.714-.941-2.3-.941-2.3-7.832,4.827-4.674,12.368-4.674,12.368h4.817A13.142,13.142,0,0,1-380.011,993.151Z" transform="translate(398.596 -986.165)"/><g transform="translate(22.423 7.479)"><path class="f" d="M-368.653,996.227c-.01-.057-.017-.09-.017-.09-.009.028-.02.05-.029.077Z" transform="translate(368.699 -996.137)"/></g></g></g></g><g transform="translate(99.414 43.549)"><g transform="translate(0)"><path class="f" d="M-282.792,991.977a8.789,8.789,0,0,1-8.778-8.779,8.789,8.789,0,0,1,8.778-8.779,8.789,8.789,0,0,1,8.779,8.779A8.789,8.789,0,0,1-282.792,991.977Zm0-16.529a7.759,7.759,0,0,0-7.75,7.75,7.759,7.759,0,0,0,7.75,7.75,7.759,7.759,0,0,0,7.75-7.75A7.759,7.759,0,0,0-282.792,975.448Z" transform="translate(291.57 -974.419)"/></g><g transform="translate(4.424 5.636)"><path class="f" d="M-283.842,984.56a1.083,1.083,0,0,0-.772.319,1.084,1.084,0,0,0-.319.772,1.082,1.082,0,0,0,.319.771l2.421,2.421a1.081,1.081,0,0,0,.771.319,1.082,1.082,0,0,0,.772-.319l4.106-4.106a1.093,1.093,0,0,0,0-1.543,1.092,1.092,0,0,0-1.543,0l-3.335,3.334-1.649-1.649A1.082,1.082,0,0,0-283.842,984.56Z" transform="translate(284.932 -982.874)"/></g></g><g transform="translate(23.72 30.736)"><path class="h" d="M-379.33,958.945h-11.564a.084.084,0,0,1-.084-.084.084.084,0,0,1,.084-.084h11.564a.084.084,0,0,1,.084.084A.084.084,0,0,1-379.33,958.945Z" transform="translate(390.978 -958.777)"/><g transform="translate(0 1.305)"><path class="h" d="M-379.33,960.685h-11.564a.084.084,0,0,1-.084-.084.084.084,0,0,1,.084-.084h11.564a.084.084,0,0,1,.084.084A.084.084,0,0,1-379.33,960.685Z" transform="translate(390.978 -960.517)"/></g><g transform="translate(0 2.609)"><path class="h" d="M-379.33,962.424h-11.564a.084.084,0,0,1-.084-.084.084.084,0,0,1,.084-.084h11.564a.084.084,0,0,1,.084.084A.084.084,0,0,1-379.33,962.424Z" transform="translate(390.978 -962.256)"/></g></g><g transform="translate(27.464 38.076)"><g transform="translate(5.44)"><path class="i" d="M-329,973.318a4.69,4.69,0,0,1-4.609,4.757h-45.118v-.362a4.328,4.328,0,0,0,4.25-4.395,4.327,4.327,0,0,0-4.25-4.391v-.363h45.118A4.689,4.689,0,0,1-329,973.318Z" transform="translate(378.732 -968.564)"/></g><g transform="translate(0 9.511)"><path class="j" d="M-334.638,985.561a4.761,4.761,0,0,1-4.734,5.2h-46.614V990.4A4.4,4.4,0,0,0-381.595,986a4.4,4.4,0,0,0-4.391-4.4v-.363h46.459A4.858,4.858,0,0,1-334.638,985.561Z" transform="translate(385.986 -981.246)"/></g><g transform="translate(3.617 19.027)"><path class="i" d="M-328.01,993.934v.362a6.91,6.91,0,0,0-6.9,6.905,6.91,6.91,0,0,0,6.9,6.906v.362H-373.9a7.275,7.275,0,0,1-7.263-7.539,7.394,7.394,0,0,1,7.456-7Z" transform="translate(381.164 -993.934)"/></g><g transform="translate(10.64 25.462)"><path class="k" d="M-365.982,1002.606h-5.771a.046.046,0,0,1-.046-.046.046.046,0,0,1,.046-.046h5.771a.046.046,0,0,1,.046.046A.046.046,0,0,1-365.982,1002.606Z" transform="translate(371.799 -1002.514)"/><g transform="translate(0 0.855)"><path class="k" d="M-365.982,1003.746h-5.771a.046.046,0,0,1-.046-.046.047.047,0,0,1,.046-.046h5.771a.046.046,0,0,1,.046.046A.045.045,0,0,1-365.982,1003.746Z" transform="translate(371.799 -1003.654)"/></g><g transform="translate(0 1.71)"><path class="k" d="M-365.982,1004.886h-5.771a.047.047,0,0,1-.046-.047.046.046,0,0,1,.046-.046h5.771a.046.046,0,0,1,.046.046A.046.046,0,0,1-365.982,1004.886Z" transform="translate(371.799 -1004.794)"/></g></g></g></g></svg>