<?xml version="1.0" encoding="utf-8"?>
<!-- Generator: Adobe Illustrator 24.1.1, SVG Export Plug-In . SVG Version: 6.00 Build 0)  -->
<svg version="1.1" id="Layer_1" xmlns="http://www.w3.org/2000/svg" xmlns:xlink="http://www.w3.org/1999/xlink" x="0px" y="0px"
	 viewBox="0 0 337.14 251.81" style="enable-background:new 0 0 337.14 251.81;" xml:space="preserve">
<style type="text/css">
	.st0{fill:#405FBD;}
	.st1{fill:#F7F9FD;}
	.st2{fill:#294CB5;}
	.st3{fill:#87B5D2;}
	.st4{opacity:0.204;enable-background:new    ;}
	.st5{fill:none;stroke:#FCAF3A;stroke-width:2;stroke-miterlimit:10;}
	.st6{fill:#FD5421;}
	.st7{fill:#FAF9F2;}
	.st8{stroke:#000000;stroke-width:0.25;stroke-miterlimit:10;}
	.st9{fill:#0A0D2C;}
	.st10{clip-path:url(#SVGID_4_);fill:#314581;}
	.st11{opacity:0.13;clip-path:url(#SVGID_4_);}
	.st12{fill:#FFFFFF;}
	.st13{fill:#314581;}
	.st14{opacity:0.12;}
	.st15{fill:#F1F1F2;}
	.st16{opacity:0.44;}
	.st17{fill:#F7C714;}
</style>
<g>
	<g>
		<path class="st7" d="M168.57,83.24C75.47,83.24,0,158.71,0,251.81h337.14C337.14,158.71,261.67,83.24,168.57,83.24z"/>
	</g>
	<g>
		<g>
			<g>
				<g>
					<g>
						<g>
							<circle class="st8" cx="31.29" cy="149.31" r="3"/>
						</g>
					</g>
				</g>
			</g>
		</g>
		<g>
			<g>
				<g>
					<g>
						<g>
							<circle class="st8" cx="305.4" cy="181.09" r="3.45"/>
						</g>
					</g>
				</g>
			</g>
		</g>
		<g>
			<g>
				<g>
					<g>
						<g>
							<circle class="st8" cx="283.85" cy="107.58" r="3.71"/>
						</g>
					</g>
				</g>
			</g>
		</g>
		<g>
			<g>
				<g>
					<g>
						<g>
							<path class="st8" d="M283.45,232.34c0.86-0.86,0.32-2.89-1.2-5.2c-0.45-0.69-0.45-1.57,0-2.25c1.51-2.31,2.05-4.34,1.2-5.2
								c-0.86-0.86-2.89-0.32-5.2,1.2c-0.69,0.45-1.57,0.45-2.25,0c-2.31-1.51-4.34-2.05-5.2-1.2c-0.86,0.86-0.32,2.89,1.2,5.2
								c0.45,0.69,0.45,1.57,0,2.25c-1.51,2.31-2.05,4.34-1.2,5.2c0.86,0.86,2.89,0.32,5.2-1.2c0.69-0.45,1.57-0.45,2.25,0
								C280.56,232.66,282.59,233.2,283.45,232.34z"/>
						</g>
					</g>
				</g>
			</g>
		</g>
		<g>
			<g>
				<g>
					<g>
						<g>
							<circle class="st8" cx="55.8" cy="98.32" r="2.99"/>
						</g>
					</g>
				</g>
			</g>
		</g>
		<g>
			<g>
				<g>
					<g>
						<g>
							<path class="st8" d="M48.78,196.11c0.95,0,1.78-1.43,2.22-3.55c0.13-0.63,0.62-1.12,1.25-1.25c2.12-0.44,3.55-1.27,3.55-2.22
								s-1.43-1.78-3.55-2.22c-0.63-0.13-1.12-0.62-1.25-1.25c-0.44-2.12-1.27-3.55-2.22-3.55s-1.78,1.43-2.22,3.55
								c-0.13,0.63-0.62,1.12-1.25,1.25c-2.12,0.44-3.55,1.27-3.55,2.22s1.43,1.78,3.55,2.22c0.63,0.13,1.12,0.62,1.25,1.25
								C47,194.68,47.83,196.11,48.78,196.11z"/>
						</g>
					</g>
				</g>
			</g>
		</g>
		<g>
			<g>
				<path class="st9" d="M222.23,251.81h-92.83c-12.78,0-23.15-10.36-23.15-23.15V23.15C106.26,10.36,116.62,0,129.41,0l92.83,0
					c12.78,0,23.15,10.36,23.15,23.15v205.52C245.38,241.45,235.02,251.81,222.23,251.81z"/>
				<g>
					<defs>
						<rect id="SVGID_3_" x="112.62" y="27.61" width="126.4" height="194.84"/>
					</defs>
					<clipPath id="SVGID_2_">
						<use xlink:href="#SVGID_3_"  style="overflow:visible;"/>
					</clipPath>
					<rect x="112.62" y="27.61" style="clip-path:url(#SVGID_2_);fill:#314581;" width="126.4" height="194.84"/>
					<g style="opacity:0.13;clip-path:url(#SVGID_2_);">
						
							<rect x="146.61" y="-7.74" transform="matrix(0.8895 0.4569 -0.4569 0.8895 73.2293 -55.6853)" class="st12" width="10.31" height="262.66"/>
						
							<rect x="201.57" y="32.33" transform="matrix(0.8895 0.4569 -0.4569 0.8895 98.512 -80.1146)" class="st12" width="26.73" height="262.66"/>
						
							<rect x="158.9" y="8.84" transform="matrix(0.8895 0.4569 -0.4569 0.8895 83.9669 -66.9465)" class="st12" width="43.05" height="262.66"/>
					</g>
				</g>
				<path class="st13" d="M187.51,17.13l-23.37,0.11c-1.19,0.01-2.16-0.96-2.16-2.16l0,0c0-1.2,0.97-2.17,2.16-2.18l23.37-0.11
					c1.19-0.01,2.16,0.96,2.16,2.16l0,0C189.67,16.15,188.7,17.13,187.51,17.13z"/>
				<path class="st13" d="M196.15,239.15l-40.65,0.11c-1.19,0.01-2.16-0.96-2.16-2.16l0,0c0-1.2,0.97-2.17,2.16-2.18l40.65-0.11
					c1.19-0.01,2.16,0.96,2.16,2.16l0,0C198.31,238.17,197.34,239.15,196.15,239.15z"/>
				<g class="st14">
					<path class="st15" d="M129.82,37.03h-10.44c-1.3,0-2.36-1.06-2.36-2.36l0,0c0-1.3,1.06-2.36,2.36-2.36h10.44
						c1.3,0,2.36,1.06,2.36,2.36l0,0C132.18,35.98,131.13,37.03,129.82,37.03z"/>
					<path class="st15" d="M139.7,37.03h-3.56c-1.3,0-2.36-1.06-2.36-2.36l0,0c0-1.3,1.06-2.36,2.36-2.36h3.56
						c1.3,0,2.36,1.06,2.36,2.36l0,0C142.06,35.98,141,37.03,139.7,37.03z"/>
					<path class="st15" d="M233.32,37.03h-9.16c-1.3,0-2.36-1.06-2.36-2.36l0,0c0-1.3,1.06-2.36,2.36-2.36h9.16
						c1.3,0,2.36,1.06,2.36,2.36l0,0C235.68,35.98,234.62,37.03,233.32,37.03z"/>
				</g>
			</g>
			<path class="st6" d="M99.21,205.25l99.71-0.01c5,0,9.06-4.06,9.06-9.06v-4.17v-35.63v-54.11V61.89c0-8.71,5.08-15.77,14.31-15.77
				H108.48c-9.23,0-16.72,7.06-16.72,15.77v40.38v54.11v33.15l0.01,8.29C91.77,201.92,95.1,205.25,99.21,205.25z"/>
			<g>
				<g>
					<g class="st16">
						<path class="st12" d="M190.97,93.25h-80.8c-0.81,0-1.46-0.65-1.46-1.46l0,0c0-0.81,0.65-1.46,1.46-1.46h80.8
							c0.81,0,1.46,0.65,1.46,1.46l0,0C192.43,92.6,191.77,93.25,190.97,93.25z"/>
						<path class="st12" d="M190.97,104.3h-80.8c-0.81,0-1.46-0.65-1.46-1.46l0,0c0-0.81,0.65-1.46,1.46-1.46h80.8
							c0.81,0,1.46,0.65,1.46,1.46l0,0C192.43,103.65,191.77,104.3,190.97,104.3z"/>
						<path class="st12" d="M190.97,115.36h-80.8c-0.81,0-1.46-0.65-1.46-1.46l0,0c0-0.81,0.65-1.46,1.46-1.46h80.8
							c0.81,0,1.46,0.65,1.46,1.46l0,0C192.43,114.7,191.77,115.36,190.97,115.36z"/>
						<path class="st12" d="M190.97,126.41h-80.8c-0.81,0-1.46-0.65-1.46-1.46l0,0c0-0.81,0.65-1.46,1.46-1.46h80.8
							c0.81,0,1.46,0.65,1.46,1.46l0,0C192.43,125.76,191.77,126.41,190.97,126.41z"/>
						<path class="st12" d="M190.97,137.46h-80.8c-0.81,0-1.46-0.65-1.46-1.46l0,0c0-0.81,0.65-1.46,1.46-1.46h80.8
							c0.81,0,1.46,0.65,1.46,1.46l0,0C192.43,136.81,191.77,137.46,190.97,137.46z"/>
						<path class="st12" d="M190.97,148.52h-80.8c-0.81,0-1.46-0.65-1.46-1.46l0,0c0-0.81,0.65-1.46,1.46-1.46h80.8
							c0.81,0,1.46,0.65,1.46,1.46l0,0C192.43,147.86,191.77,148.52,190.97,148.52z"/>
						<path class="st12" d="M190.97,159.57h-80.8c-0.81,0-1.46-0.65-1.46-1.46l0,0c0-0.81,0.65-1.46,1.46-1.46h80.8
							c0.81,0,1.46,0.65,1.46,1.46l0,0C192.43,158.92,191.77,159.57,190.97,159.57z"/>
						<path class="st12" d="M167.95,170.62h-57.79c-0.81,0-1.46-0.65-1.46-1.46l0,0c0-0.81,0.65-1.46,1.46-1.46h57.79
							c0.81,0,1.46,0.65,1.46,1.46l0,0C169.41,169.97,168.76,170.62,167.95,170.62z"/>
						<path class="st12" d="M174.77,78.42h-42.09c-0.81,0-1.46-0.65-1.46-1.46l0,0c0-0.81,0.65-1.46,1.46-1.46h42.09
							c0.81,0,1.46,0.65,1.46,1.46l0,0C176.23,77.77,175.58,78.42,174.77,78.42z"/>
					</g>
				</g>
			</g>
			<g>
				
					<ellipse transform="matrix(0.2117 -0.9773 0.9773 0.2117 -23.4274 339.2289)" class="st17" cx="198.57" cy="184.14" rx="36.9" ry="36.9"/>
				<path class="st12" d="M190.83,198.16l-11.18-10.48c-2.4-2.25-2.4-6.05,0-8.3l0,0c2.19-2.05,5.59-2.05,7.78,0l6.04,5.66
					c0.7,0.66,1.8,0.66,2.5,0l17.32-16.24c2.19-2.05,5.59-2.05,7.78,0l0,0c2.4,2.25,2.4,6.05,0,8.3l-22.46,21.06
					C196.42,200.21,193.02,200.21,190.83,198.16z"/>
			</g>
		</g>
	</g>
</g>
</svg>
