<svg xmlns="http://www.w3.org/2000/svg" xmlns:xlink="http://www.w3.org/1999/xlink" width="146.534" height="74.437" viewBox="0 0 146.534 74.437"><defs><style>.a,.o{fill:#fff;}.b{fill:#e9e2c3;opacity:0.219;}.c{fill:#314581;}.d{fill:#070307;}.e{fill:#0a0d2c;}.f{stroke:#000;stroke-width:0.25px;}.f,.l{stroke-miterlimit:10;}.g{fill:#fbaf2c;}.h{opacity:0.16;fill:url(#a);}.h,.o{mix-blend-mode:multiply;isolation:isolate;}.i{fill:url(#b);}.j{fill:url(#c);}.k{fill:url(#d);}.l{fill:none;stroke:#070307;stroke-linecap:round;stroke-width:0.5px;}.m{fill:#fd5421;}.n{clip-path:url(#e);}.o{opacity:0.49;}.p{opacity:0.72;}</style><linearGradient id="a" y1="0.5" x2="1" y2="0.5" gradientUnits="objectBoundingBox"><stop offset="0" stop-color="#394f95"/><stop offset="1" stop-color="#132650"/></linearGradient><linearGradient id="b" y1="0.5" x2="1" y2="0.5" gradientUnits="objectBoundingBox"><stop offset="0" stop-color="#f5ffff"/><stop offset="1" stop-color="#ebeefc"/></linearGradient><linearGradient id="c" y1="0.5" x2="1" y2="0.5" gradientUnits="objectBoundingBox"><stop offset="0" stop-color="#c75aff"/><stop offset="0.998" stop-color="#693ffb"/></linearGradient><linearGradient id="d" x1="0" y1="0.5" x2="1" y2="0.5" xlink:href="#c"/><clipPath id="e"><path class="a" d="M2262.319,899a6.014,6.014,0,0,1-1.151,4.606s3.29,1.645,4.606-.658c0,0-1.645-4.77-1.151-7.238S2262.319,898.346,2262.319,899Z" transform="translate(-2261.168 -895.044)"/></clipPath></defs><g transform="translate(0 1.063)"><path class="b" d="M2120.43,837.9a73.267,73.267,0,0,0-73.267,73.267H2193.7A73.267,73.267,0,0,0,2120.43,837.9Z" transform="translate(-2047.163 -837.896)"/></g><g transform="translate(34.794 24.941)"><path class="c" d="M10.211,0H66.632A10.211,10.211,0,0,1,76.844,10.211V46.492a0,0,0,0,1,0,0H0a0,0,0,0,1,0,0V10.211A10.211,10.211,0,0,1,10.211,0Z" transform="translate(0)"/></g><g transform="translate(33.285 23.347)"><path class="d" d="M2200.225,890.491h-69.036a5.441,5.441,0,0,0-5.466,5.4V937.53h.182V895.893a5.258,5.258,0,0,1,5.284-5.224h69.036a5.258,5.258,0,0,1,5.279,5.224V937.53h.182V895.893A5.438,5.438,0,0,0,2200.225,890.491Z" transform="translate(-2125.723 -890.491)"/></g><path class="e" d="M0,0H97.852a0,0,0,0,1,0,0V1.387a2.664,2.664,0,0,1-2.664,2.664H2.664A2.664,2.664,0,0,1,0,1.387V0A0,0,0,0,1,0,0Z" transform="translate(24.283 70.386)"/><g transform="translate(124.234 29.773)"><g transform="translate(0 0)"><path class="f" d="M2346.962,905.754h-6.533a.047.047,0,0,1,0-.095h6.533a.047.047,0,0,1,0,.095Z" transform="translate(-2340.381 -905.659)"/></g><g transform="translate(0 0.737)"><path class="f" d="M2346.962,907.494h-6.533a.047.047,0,0,1,0-.095h6.533a.047.047,0,0,1,0,.095Z" transform="translate(-2340.381 -907.399)"/></g><g transform="translate(0 1.474)"><path class="f" d="M2346.962,909.233h-6.533a.047.047,0,0,1,0-.095h6.533a.047.047,0,0,1,0,.095Z" transform="translate(-2340.381 -909.138)"/></g></g><g transform="translate(10.216 55.561)"><g transform="translate(0 0)"><path class="f" d="M2077.855,966.616h-6.533a.047.047,0,1,1,0-.094h6.533a.047.047,0,1,1,0,.094Z" transform="translate(-2071.275 -966.522)"/></g><g transform="translate(0 0.737)"><path class="f" d="M2077.855,968.356h-6.533a.047.047,0,1,1,0-.094h6.533a.047.047,0,1,1,0,.094Z" transform="translate(-2071.275 -968.262)"/></g><g transform="translate(0 1.474)"><path class="f" d="M2077.855,970.1h-6.533a.047.047,0,0,1,0-.095h6.533a.047.047,0,1,1,0,.095Z" transform="translate(-2071.275 -970.001)"/></g></g><g transform="translate(96.517)"><path class="g" d="M2287.739,837.457a7.065,7.065,0,0,0-11.214,8.347l-.434,1.232-1.126,3.2,3.2-1.126,1.232-.434a7.065,7.065,0,0,0,8.347-11.215Z" transform="translate(-2274.964 -835.388)"/><g transform="translate(3.167 5.947)"><path class="a" d="M2284.368,850.389a.965.965,0,1,1-.965-.965A.965.965,0,0,1,2284.368,850.389Z" transform="translate(-2282.439 -849.424)"/><path class="a" d="M2293.208,850.389a.965.965,0,1,1-.965-.965A.965.965,0,0,1,2293.208,850.389Z" transform="translate(-2287.533 -849.424)"/><path class="a" d="M2302.048,850.389a.965.965,0,1,1-.965-.965A.965.965,0,0,1,2302.048,850.389Z" transform="translate(-2292.627 -849.424)"/></g></g><rect class="h" width="33.518" height="14.263" rx="3.049" transform="translate(49.373 51.06)"/><rect class="i" width="33.638" height="13.955" rx="3.213" transform="translate(48.004 52.161)"/><path class="e" d="M2191.982,970.11c-.8,1.933-3.3,3.184-4.094-.228s-2.729-2.388-3.07-1.138-1.488,3.186-2.388,1.024c-.883-2.119-1.473-.28-1.706.341-.392,1.043-.535-.316-1.138-.228-.562.082-1.023,2.161-2.729,2.047s-1.251-2.957-3.185-4.208-2.843,1.933-4.663,3.07-1.592-1.706-2.729-1.82-1.82,3.753-1.82,3.753v2.646h29.884v-5.38C2194.133,969.061,2192.718,968.323,2191.982,970.11Z" transform="translate(-2114.762 -911.488)"/><path class="j" d="M2174.089,960.216a.239.239,0,1,1-.239-.239A.239.239,0,0,1,2174.089,960.216Z" transform="translate(-2120.035 -907.189)"/><path class="k" d="M2209.488,960.781a.239.239,0,1,1-.239-.239A.239.239,0,0,1,2209.488,960.781Z" transform="translate(-2140.436 -907.515)"/><path class="l" d="M2201.924,838.722h3.246a2.524,2.524,0,0,1,2.524,2.524v2.984" transform="translate(-2136.353 -837.309)"/><g transform="translate(39.227 2.994)"><rect class="m" width="30.535" height="32.088" rx="3.654"/><rect class="m" width="30.535" height="17.855" rx="3.143" transform="translate(0 33.641)"/><rect class="g" width="24.584" height="1.811" transform="translate(3.105 2.588)"/><rect class="g" width="6.987" height="6.987" transform="translate(3.105 9.316)"/><ellipse class="g" cx="4.14" cy="4.14" rx="4.14" ry="4.14" transform="matrix(0.383, -0.924, 0.924, 0.383, 18.139, 44.836)"/><g transform="translate(13.667 9.827)"><path class="g" d="M2185.833,865.893H2172.2c-.106,0-.192-.055-.192-.122s.086-.122.192-.122h13.637c.106,0,.192.055.192.122S2185.939,865.893,2185.833,865.893Z" transform="translate(-2172.004 -865.649)"/><g transform="translate(0 1.907)"><path class="g" d="M2185.833,870.394H2172.2c-.106,0-.192-.055-.192-.122s.086-.122.192-.122h13.637c.106,0,.192.054.192.122S2185.939,870.394,2185.833,870.394Z" transform="translate(-2172.004 -870.15)"/></g><g transform="translate(0 3.814)"><path class="g" d="M2185.833,874.894H2172.2c-.106,0-.192-.055-.192-.122s.086-.122.192-.122h13.637c.106,0,.192.055.192.122S2185.939,874.894,2185.833,874.894Z" transform="translate(-2172.004 -874.65)"/></g><g transform="translate(0 5.721)"><path class="g" d="M2185.833,879.395H2172.2c-.106,0-.192-.054-.192-.122s.086-.122.192-.122h13.637c.106,0,.192.055.192.122S2185.939,879.395,2185.833,879.395Z" transform="translate(-2172.004 -879.151)"/></g></g><g transform="translate(3.322 18.749)"><path class="g" d="M2171.619,886.951h-23.7c-.185,0-.334-.054-.334-.121s.15-.122.334-.122h23.7c.185,0,.334.054.334.122S2171.8,886.951,2171.619,886.951Z" transform="translate(-2147.587 -886.707)"/><g transform="translate(0 1.907)"><path class="g" d="M2171.619,891.451h-23.7c-.185,0-.334-.055-.334-.122s.15-.122.334-.122h23.7c.185,0,.334.055.334.122S2171.8,891.451,2171.619,891.451Z" transform="translate(-2147.587 -891.207)"/></g><g transform="translate(0 3.814)"><path class="g" d="M2171.619,895.952h-23.7c-.185,0-.334-.055-.334-.122s.15-.122.334-.122h23.7c.185,0,.334.054.334.122S2171.8,895.952,2171.619,895.952Z" transform="translate(-2147.587 -895.708)"/></g><g transform="translate(0 5.72)"><path class="g" d="M2171.619,900.452h-23.7c-.185,0-.334-.055-.334-.122s.15-.122.334-.122h23.7c.185,0,.334.055.334.122S2171.8,900.452,2171.619,900.452Z" transform="translate(-2147.587 -900.208)"/></g></g><g transform="translate(2.868 39.78)"><path class="g" d="M2160.231,936.589H2146.7c-.105,0-.191-.055-.191-.122s.085-.122.191-.122h13.527c.105,0,.19.055.19.122S2160.337,936.589,2160.231,936.589Z" transform="translate(-2146.514 -936.345)"/><g transform="translate(0 1.907)"><path class="g" d="M2160.231,941.09H2146.7c-.105,0-.191-.054-.191-.122s.085-.122.191-.122h13.527c.105,0,.19.055.19.122S2160.337,941.09,2160.231,941.09Z" transform="translate(-2146.514 -940.846)"/></g><g transform="translate(0 3.814)"><path class="g" d="M2160.231,945.59H2146.7c-.105,0-.191-.055-.191-.122s.085-.122.191-.122h13.527c.105,0,.19.055.19.122S2160.337,945.59,2160.231,945.59Z" transform="translate(-2146.514 -945.346)"/></g><g transform="translate(0 5.721)"><path class="g" d="M2160.231,950.091H2146.7c-.105,0-.191-.055-.191-.122s.085-.122.191-.122h13.527c.105,0,.19.055.19.122S2160.337,950.091,2160.231,950.091Z" transform="translate(-2146.514 -949.847)"/></g></g></g><g transform="translate(65.891 14.22)"><path class="m" d="M2266.413,987.293c0-3.1-.424-5.542-1.428-6.917-5.923-8.1-13.056-.034-13.056-.034s.2,2.656.465,6.951Z" transform="translate(-2231.062 -931.085)"/><path class="m" d="M2273.559,981.595a27.507,27.507,0,0,0-.9-8.6,8.426,8.426,0,0,0-1.39-2.8c-5.623-8.449-13.847,1.919-13.847,1.919s.776,3.7,1.908,9.483Z" transform="translate(-2234.228 -925.387)"/><path class="d" d="M2206.558,914.789s-.639-1.765-1.113-2.732c-.274-.56-.827-2.348-1.573-2.174s.492,1.55.24,2.2c-.2.512-1.171.335-1.411,1.335s1.665,2.588,1.665,2.588" transform="translate(-2202.678 -892.533)"/><path class="a" d="M2247.5,922.64a35.815,35.815,0,0,0-.809-4.191c-2.032-8.041-9.645-10.153-10.319-10.3a.087.087,0,0,0-.04-.008c-3.429-.857-4.779.214-4.779.214a4.126,4.126,0,0,0-.77.349,18.284,18.284,0,0,0-6.986,4.787c-1.57,1.714-7.406,10.955-7.406,10.955s-5.763-6.628-7.589-10.963l-2.143,1.334s3.385,14.386,9.748,14.772c0,0,2.865-.079,8.567-5.377.327,6.974.867,16.388.867,16.388l17.564-1.652s-.358-3.286-.734-6.049a6.507,6.507,0,0,0,3.955.77C2247.338,933.507,2248.346,928.911,2247.5,922.64Zm-4.152,5.319a7.808,7.808,0,0,1-1.062-.3c-.032-1.08-.61-5.373-.657-6.516C2241.633,921.172,2243.781,927.927,2243.344,927.958Z" transform="translate(-2204.97 -891.347)"/><g transform="translate(24.782 11.056)"><path class="a" d="M2262.319,899a6.014,6.014,0,0,1-1.151,4.606s3.29,1.645,4.606-.658c0,0-1.645-4.77-1.151-7.238S2262.319,898.346,2262.319,899Z" transform="translate(-2261.168 -895.044)"/><g class="n"><path class="o" d="M2262.68,902.623s2.8-.987,2.467-3.454S2262.351,901.471,2262.68,902.623Z" transform="translate(-2262.022 -897.018)"/></g></g><path class="g" d="M2247.937,937.455l.863,7.26c.026.217-.2.4-.487.4l-10.467-.222a.446.446,0,0,1-.458-.319l-1.15-7.037c-.035-.217.186-.408.472-.408h10.754A.444.444,0,0,1,2247.937,937.455Z" transform="translate(-2222.017 -908.24)"/><path class="a" d="M2259.158,887.883s-1.48,2.961-.658,5.593,3.784,1.974,4.77-1.316c0,0,1.316-4.77.494-4.935S2259.487,887.225,2259.158,887.883Z" transform="translate(-2234.705 -879.448)"/><path class="d" d="M2254.832,876.991c-2.114.477-5.868,3-8.18-2.534-2.179-5.219,3.756-3.315,5.58-3.68,1.792-.359,2.66-4.152,6.64.387.893,1.019,4.315-.586,5,3.716,1,6.294-7.871,8.34-7.871,8.34s0-.738,0-1.854S2257.419,876.407,2254.832,876.991Z" transform="translate(-2227.747 -868.95)"/><path class="a" d="M2269.453,895.439c-.222.661-.759,1.077-1.2.929s-.618-.8-.4-1.464.758-1.077,1.2-.929S2269.674,894.778,2269.453,895.439Z" transform="translate(-2240.186 -883.355)"/><g transform="translate(24.115 33.013)"><path class="d" d="M2264.738,947.756a2.456,2.456,0,0,0-3.3-.476c-1.04.557-1.416-.17-1.756.2-.58.634,1.952,2.728,4.427,2.592Z" transform="translate(-2259.595 -946.869)"/></g><path class="l" d="M2277.688,959.358a56.588,56.588,0,0,0,5.917,3.115" transform="translate(-2245.907 -921.053)"/></g><g transform="translate(12.681 59.707)"><g transform="translate(0 0)"><path class="c" d="M2089.621,982.709s-2.458-4.486-6.689-5.81l-.025,1.66-.9-2.005a14.991,14.991,0,0,0-4.914-.072,21.086,21.086,0,0,0,3.855,8.823l2.732-.624-2.016,1.564s2.251,5.014,9.095,4.783Z" transform="translate(-2077.094 -976.308)"/></g><g transform="translate(10.172 3.476)"><path class="g" d="M2101.458,995.766a5.668,5.668,0,0,1,2.64-6.988s.751.9.532,1.3c0,0,3.5-5.306,8.025-5.568a6.141,6.141,0,0,1-.247,5.147s.989.314,1.377-.922a8.185,8.185,0,0,1-1.377,6s1.02.184,1.086,1.032Z" transform="translate(-2101.103 -984.511)"/><g class="p"><path class="g" d="M2111.6,988.457a7.464,7.464,0,0,1,1.3.115,6.628,6.628,0,0,0-.243-4.062c-4.521.261-8.025,5.568-8.025,5.568.219-.4-.532-1.3-.532-1.3a5.668,5.668,0,0,0-2.64,6.988h2.722A7.424,7.424,0,0,1,2111.6,988.457Z" transform="translate(-2101.103 -984.511)"/><g transform="translate(12.668 4.225)"><path class="m" d="M2131.027,994.534c-.006-.032-.01-.051-.01-.051,0,.016-.011.028-.016.044Z" transform="translate(-2131.001 -994.483)"/></g></g></g></g></svg>