<svg xmlns="http://www.w3.org/2000/svg" width="140.236" height="71.374" viewBox="0 0 140.236 71.374"><defs><style>.a{fill:#e9e2c3;opacity:0.22;}.b{stroke:#000;stroke-miterlimit:10;stroke-width:0.25px;}.c,.n{fill:#314581;}.d{fill:#070307;}.e,.o{fill:#0a0d2c;}.f{fill:#fff;}.g,.m{fill:#fbaf2c;}.h{opacity:0.72;}.i,.k{fill:#fd5421;}.j{fill:#111e3f;}.k,.l,.m,.n,.o{fill-rule:evenodd;}.l{fill:#2d3078;}</style></defs><g transform="translate(0)"><path class="a" d="M-725.671,634.852a70.118,70.118,0,0,0-70.118,70.118h140.236A70.118,70.118,0,0,0-725.671,634.852Z" transform="translate(795.789 -634.852)"/></g><g transform="translate(128.236 46.621)"><path class="b" d="M-427.589,766.563h-6.133a.049.049,0,0,1-.049-.049.049.049,0,0,1,.049-.049h6.133a.049.049,0,0,1,.049.049A.049.049,0,0,1-427.589,766.563Z" transform="translate(433.771 -766.465)"/><g transform="translate(0 0.909)"><path class="b" d="M-427.589,769.128h-6.133a.049.049,0,0,1-.049-.049.049.049,0,0,1,.049-.049h6.133a.049.049,0,0,1,.049.049A.049.049,0,0,1-427.589,769.128Z" transform="translate(433.771 -769.03)"/></g><g transform="translate(0 1.817)"><path class="b" d="M-427.589,771.693h-6.133a.049.049,0,0,1-.049-.049.049.049,0,0,1,.049-.049h6.133a.049.049,0,0,1,.049.049A.049.049,0,0,1-427.589,771.693Z" transform="translate(433.771 -771.595)"/></g></g><g transform="translate(32.92 22.499)"><path class="c" d="M5,0H69.3a5,5,0,0,1,5,5V44.951a0,0,0,0,1,0,0H0a0,0,0,0,1,0,0V5A5,5,0,0,1,5,0Z" transform="translate(0)"/></g><g transform="translate(31.462 20.958)"><path class="d" d="M-634.938,694.017h-66.748a5.261,5.261,0,0,0-5.285,5.223V739.5h.176V699.24a5.085,5.085,0,0,1,5.109-5.051h66.748a5.084,5.084,0,0,1,5.1,5.051V739.5h.176V699.24A5.257,5.257,0,0,0-634.938,694.017Z" transform="translate(706.971 -694.017)"/></g><path class="e" d="M0,0H94.608a0,0,0,0,1,0,0V1.253a2.664,2.664,0,0,1-2.664,2.664H2.664A2.664,2.664,0,0,1,0,1.253V0A0,0,0,0,1,0,0Z" transform="translate(22.758 66.438)"/><rect class="f" width="26.331" height="33.821" rx="8.851" transform="translate(76.812 27.575)"/><g transform="translate(106.488 53.98)"><path class="g" d="M-480.375,794.8s-2.9-5.3-7.9-6.861l-.029,1.96-1.063-2.368a17.707,17.707,0,0,0-5.8-.085,24.892,24.892,0,0,0,4.552,10.419l3.226-.737-2.38,1.847s2.658,5.921,10.74,5.648Z" transform="translate(495.167 -787.24)"/></g><g transform="translate(118.499 58.084)"><g transform="translate(0 0)"><path class="c" d="M-460.837,812.117a6.693,6.693,0,0,1,3.118-8.251s.886,1.059.628,1.536c0,0,4.137-6.266,9.477-6.574,0,0,1.418,3.329-.292,6.078,0,0,1.168.371,1.627-1.089a9.663,9.663,0,0,1-1.627,7.082s1.2.217,1.283,1.219Z" transform="translate(461.257 -798.827)"/></g><g class="h" transform="translate(0 0)"><path class="c" d="M-448.858,803.487a8.8,8.8,0,0,1,1.531.136,7.826,7.826,0,0,0-.287-4.8c-5.339.309-9.477,6.574-9.477,6.574.258-.477-.628-1.536-.628-1.536a6.693,6.693,0,0,0-3.118,8.251h3.214A8.767,8.767,0,0,1-448.858,803.487Z" transform="translate(461.257 -798.827)"/><g transform="translate(14.959 4.989)"><path class="i" d="M-419,812.972l-.011-.06c-.006.018-.013.033-.019.051Z" transform="translate(419.028 -812.912)"/></g></g></g><g transform="translate(37.9 28.529)"><rect class="j" width="35.048" height="1.281" transform="translate(0 9.296)"/><rect class="j" width="35.048" height="1.281" transform="translate(0 21.081)"/><rect class="j" width="35.048" height="1.281" transform="translate(0 32.867)"/><g transform="translate(1.333 0)"><rect class="e" width="2.564" height="8.543"/><rect class="e" width="2.564" height="8.543" transform="translate(3.277)"/><rect class="e" width="1.282" height="8.543" transform="translate(6.276)"/></g><g transform="translate(21.8 0)"><rect class="g" width="2.564" height="8.543" transform="translate(7.558 8.543) rotate(180)"/><rect class="g" width="2.564" height="8.543" transform="translate(4.282 8.543) rotate(180)"/><rect class="g" width="1.282" height="8.543" transform="translate(1.282 8.543) rotate(180)"/><rect class="g" width="1.282" height="8.543" transform="translate(9.735 8.543) rotate(180)"/><rect class="g" width="1.282" height="8.543" transform="translate(11.729 8.543) rotate(180)"/></g><g transform="translate(9.635 0.175)"><path class="i" d="M-656.6,723.485l-1.141.592-3.855-7.6,1.141-.592Z" transform="translate(661.592 -715.884)"/><path class="i" d="M-650.564,723.485l-1.141.592-3.855-7.6,1.141-.592Z" transform="translate(657.696 -715.884)"/><path class="i" d="M-644.866,723.485l-1.141.592-3.855-7.6,1.141-.592Z" transform="translate(654.017 -715.884)"/><path class="i" d="M-639.1,723.485l-1.141.592-3.855-7.6,1.141-.592Z" transform="translate(650.294 -715.884)"/></g><g transform="translate(1.31 11.684)"><rect class="g" width="2.564" height="8.543" transform="translate(7.558 8.543) rotate(180)"/><rect class="g" width="2.564" height="8.543" transform="translate(4.282 8.543) rotate(180)"/><rect class="g" width="1.282" height="8.543" transform="translate(1.282 8.543) rotate(180)"/><rect class="g" width="1.282" height="8.543" transform="translate(9.735 8.543) rotate(180)"/><rect class="g" width="1.282" height="8.543" transform="translate(11.729 8.543) rotate(180)"/></g><g transform="translate(18.737 11.684)"><rect class="e" width="2.564" height="8.543" transform="translate(4.282 8.543) rotate(180)"/><rect class="e" width="1.282" height="8.543" transform="translate(1.282 8.543) rotate(180)"/><rect class="e" width="1.282" height="8.543" transform="translate(9.735 8.543) rotate(180)"/><rect class="e" width="1.282" height="8.543" transform="translate(11.729 8.543) rotate(180)"/><rect class="e" width="1.282" height="8.543" transform="translate(13.629 8.543) rotate(180)"/></g><g transform="translate(2.749 23.549)"><rect class="i" width="2.564" height="8.543" transform="translate(17.096 8.543) rotate(180)"/><rect class="i" width="2.564" height="8.543" transform="translate(13.819 8.543) rotate(180)"/><rect class="i" width="1.282" height="8.543" transform="translate(10.82 8.543) rotate(180)"/><path class="i" d="M-669.3,790.521l1.141.592,3.855-7.6-1.141-.592Z" transform="translate(673.457 -782.549)"/><path class="i" d="M-675.335,790.521l1.141.592,3.855-7.6-1.141-.592Z" transform="translate(677.353 -782.549)"/><path class="i" d="M-681.032,790.521l1.141.592,3.854-7.6-1.141-.592Z" transform="translate(681.032 -782.549)"/></g><g transform="translate(0.707 23.501)"><rect class="g" width="2.564" height="8.543" transform="translate(33.384 8.543) rotate(180)"/><rect class="g" width="2.564" height="8.543" transform="translate(30.107 8.543) rotate(180)"/><rect class="g" width="1.282" height="8.543" transform="translate(21.314 8.591) rotate(180)"/><rect class="g" width="1.282" height="8.543" transform="translate(23.309 8.591) rotate(180)"/><path class="g" d="M-686.8,790.521l1.141.592,3.855-7.6-1.141-.592Z" transform="translate(686.797 -782.5)"/></g></g><g transform="translate(85.096 38.102)"><path class="c" d="M-545.089,748.473l-4.275,4.409-3.775-4.409h2.432v-6.057h3.187v6.057Z" transform="translate(553.995 -742.416)"/><rect class="c" width="9.762" height="0.982" transform="translate(0 11.786)"/></g><g transform="translate(5.419 19.868)"><path class="k" d="M-748.456,692.628c-4.549-4.686-7.933,1.266-7.461,7.241.448,5.664,5.275,25.1,4.38,33.278h1.848C-745.167,722.662-742.632,698.627-748.456,692.628Z" transform="translate(764.649 -690.942)"/><path class="l" d="M-743.279,737.8c4.4-16.527-1.17-39.372-1.189-39.449a.261.261,0,0,0-.316-.195.264.264,0,0,0-.192.319c.018.078,5.6,22.948,1.162,39.325Z" transform="translate(757.56 -695.598)"/><path class="m" d="M-775.519,723.674c-4.794-2.569-6,3.037-4.134,7.675,1.549,3.844,8.391,15.213,10.978,22.518h2.436C-766.031,743.772-769.86,726.707-775.519,723.674Z" transform="translate(780.49 -711.662)"/><path class="l" d="M-762.82,757.852c-1.585-13.653-10.561-28.494-10.593-28.548a.217.217,0,0,0-.3-.074.222.222,0,0,0-.074.3c.032.054,8.95,14.8,10.534,28.319Z" transform="translate(776.182 -715.646)"/><path class="m" d="M-728.162,742.316c4.646-2.053,5.383,3.257,3.318,7.446-1.4,2.835-6.429,10.093-9.819,16.266h-3.868C-737.208,756.689-732.964,744.439-728.162,742.316Z" transform="translate(753.394 -723.824)"/><path class="l" d="M-734.631,769.783c3.3-11.316,10.9-21.98,10.926-22.023a.2.2,0,0,1,.285-.047.207.207,0,0,1,.047.287c-.03.043-7.547,10.6-10.838,21.783Z" transform="translate(750.875 -727.578)"/><path class="n" d="M-756.686,799.543h13.613a.747.747,0,0,1,.74.749v3.4a.747.747,0,0,1-.74.749h-13.613a.746.746,0,0,1-.74-.749v-3.4A.746.746,0,0,1-756.686,799.543Z" transform="translate(765.596 -761.074)"/><path class="n" d="M-753,807.351h8.943l2.335,2.132-1.907,7.433h-9.8l-1.907-7.433Z" transform="translate(764.246 -766.116)"/><path class="o" d="M-741.724,813.37l-.392,1.528L-754.3,817.41l-1.037-4.039Z" transform="translate(764.246 -770.003)"/></g></svg>