<svg id="Layer_1" data-name="Layer 1" xmlns="http://www.w3.org/2000/svg" viewBox="0 0 512 512"><path d="M512 223.18a39.45 39.45 0 01-25.61 36.9 39.37 39.37 0 01-23.93 68 39.36 39.36 0 01-26.26 65.64 39.36 39.36 0 01-29.2 65.77H190.36a6.56 6.56 0 01-4.64-1.92s-6.85-5.73-28.18-9V245.95c75.15-16 91.9-87.54 91.9-147.49 0-58.4 45.49-59.08 45.95-59.08 13.25 0 24.2 5.07 32.54 15.06C354.22 86 346 159.58 342.47 183.79h130.15A39.43 39.43 0 01512 223.18zM144.41 256v183.79a32.86 32.86 0 01-32.82 32.82H32.82A32.86 32.86 0 010 439.79V256a32.86 32.86 0 0132.82-32.82h78.77A32.86 32.86 0 01144.41 256zM85.33 413.54a13.13 13.13 0 10-13.13 13.13 13.13 13.13 0 0013.13-13.13z" fill="#141f38"/></svg>